Accuratist One.ufo
<glyph name="exclam" format="1">
  <advance width="230"/>
  <unicode hex="0021"/>
  <outline>
    <contour>
      <point x="170" y="45" type="curve" name="hr00"/>
      <point x="170" y="15"/>
      <point x="145" y="-10"/>
      <point x="115" y="-10" type="curve" smooth="yes"/>
      <point x="85" y="-10"/>
      <point x="60" y="15"/>
      <point x="60" y="45" type="curve" smooth="yes"/>
      <point x="60" y="75"/>
      <point x="85" y="100"/>
      <point x="115" y="100" type="curve" smooth="yes"/>
      <point x="145" y="100"/>
      <point x="170" y="75"/>
    </contour>
    <contour>
      <point x="160" y="190" type="line"/>
      <point x="160" y="700" type="line"/>
      <point x="70" y="700" type="line"/>
      <point x="70" y="190" type="line"/>
    </contour>
  </outline>
</glyph>
<glyph name="quotedbl" format="1">
  <advance width="335"/>
  <unicode hex="0022"/>
  <outline>
    <contour>
      <point x="50" y="490" type="line" name="hr00"/>
      <point x="135" y="490" type="line"/>
      <point x="135" y="700" type="line"/>
      <point x="50" y="700" type="line"/>
    </contour>
    <contour>
      <point x="200" y="490" type="line"/>
      <point x="285" y="490" type="line"/>
      <point x="285" y="700" type="line"/>
      <point x="200" y="700" type="line"/>
    </contour>
  </outline>
</glyph>
<glyph name="numbersign" format="1">
  <advance width="570"/>
  <unicode hex="0023"/>
  <outline>
    <contour>
      <point x="535" y="490" type="line" name="hr00"/>
      <point x="445" y="490" type="line"/>
      <point x="400" y="390" type="line"/>
      <point x="300" y="390" type="line"/>
      <point x="345" y="490" type="line"/>
      <point x="255" y="490" type="line"/>
      <point x="210" y="390" type="line"/>
      <point x="90" y="390" type="line"/>
      <point x="90" y="310" type="line"/>
      <point x="175" y="310" type="line"/>
      <point x="115" y="180" type="line"/>
      <point x="10" y="180" type="line"/>
      <point x="10" y="100" type="line"/>
      <point x="80" y="100" type="line"/>
      <point x="35" y="0" type="line"/>
      <point x="125" y="0" type="line"/>
      <point x="170" y="100" type="line"/>
      <point x="270" y="100" type="line"/>
      <point x="225" y="0" type="line"/>
      <point x="315" y="0" type="line"/>
      <point x="360" y="100" type="line"/>
      <point x="480" y="100" type="line"/>
      <point x="480" y="180" type="line"/>
      <point x="395" y="180" type="line"/>
      <point x="455" y="310" type="line"/>
      <point x="560" y="310" type="line"/>
      <point x="560" y="390" type="line"/>
      <point x="490" y="390" type="line"/>
    </contour>
    <contour>
      <point x="265" y="310" type="line"/>
      <point x="365" y="310" type="line"/>
      <point x="305" y="180" type="line"/>
      <point x="205" y="180" type="line"/>
    </contour>
  </outline>
</glyph>
<glyph name="percent" format="1">
  <advance width="680"/>
  <unicode hex="0025"/>
  <outline>
    <contour>
      <point x="110" y="0" type="line" name="hr00"/>
      <point x="210" y="0" type="line"/>
      <point x="570" y="700" type="line"/>
      <point x="470" y="700" type="line"/>
    </contour>
    <contour>
      <point x="560" y="125" type="line" smooth="yes"/>
      <point x="560" y="100"/>
      <point x="540" y="80"/>
      <point x="510" y="80" type="curve" smooth="yes"/>
      <point x="480" y="80"/>
      <point x="460" y="100"/>
      <point x="460" y="125" type="curve" smooth="yes"/>
      <point x="460" y="170" type="line" smooth="yes"/>
      <point x="460" y="195"/>
      <point x="480" y="215"/>
      <point x="510" y="215" type="curve" smooth="yes"/>
      <point x="540" y="215"/>
      <point x="560" y="195"/>
      <point x="560" y="170" type="curve" smooth="yes"/>
    </contour>
    <contour>
      <point x="650" y="170" type="line" smooth="yes"/>
      <point x="650" y="250"/>
      <point x="595" y="305"/>
      <point x="510" y="305" type="curve" smooth="yes"/>
      <point x="425" y="305"/>
      <point x="370" y="250"/>
      <point x="370" y="170" type="curve" smooth="yes"/>
      <point x="370" y="125" type="line" smooth="yes"/>
      <point x="370" y="45"/>
      <point x="425" y="-10"/>
      <point x="510" y="-10" type="curve" smooth="yes"/>
      <point x="595" y="-10"/>
      <point x="650" y="45"/>
      <point x="650" y="125" type="curve" smooth="yes"/>
    </contour>
    <contour>
      <point x="220" y="530" type="line" smooth="yes"/>
      <point x="220" y="505"/>
      <point x="200" y="485"/>
      <point x="170" y="485" type="curve" smooth="yes"/>
      <point x="140" y="485"/>
      <point x="120" y="505"/>
      <point x="120" y="530" type="curve" smooth="yes"/>
      <point x="120" y="575" type="line" smooth="yes"/>
      <point x="120" y="600"/>
      <point x="140" y="620"/>
      <point x="170" y="620" type="curve" smooth="yes"/>
      <point x="200" y="620"/>
      <point x="220" y="600"/>
      <point x="220" y="575" type="curve" smooth="yes"/>
    </contour>
    <contour>
      <point x="310" y="575" type="line" smooth="yes"/>
      <point x="310" y="655"/>
      <point x="255" y="710"/>
      <point x="170" y="710" type="curve" smooth="yes"/>
      <point x="85" y="710"/>
      <point x="30" y="655"/>
      <point x="30" y="575" type="curve" smooth="yes"/>
      <point x="30" y="530" type="line" smooth="yes"/>
      <point x="30" y="450"/>
      <point x="85" y="395"/>
      <point x="170" y="395" type="curve" smooth="yes"/>
      <point x="255" y="395"/>
      <point x="310" y="450"/>
      <point x="310" y="530" type="curve" smooth="yes"/>
    </contour>
  </outline>
</glyph>
<glyph name="ampersand" format="1">
  <advance width="600"/>
  <unicode hex="0026"/>
  <outline>
    <contour>
      <point x="525" y="300" type="line" name="hr00"/>
      <point x="450" y="225" type="line"/>
      <point x="290" y="415" type="line"/>
      <point x="290" y="415"/>
      <point x="380" y="480"/>
      <point x="380" y="570" type="curve" smooth="yes"/>
      <point x="380" y="650"/>
      <point x="320" y="710"/>
      <point x="240" y="710" type="curve" smooth="yes"/>
      <point x="160" y="710"/>
      <point x="100" y="640"/>
      <point x="100" y="570" type="curve" smooth="yes"/>
      <point x="100" y="480"/>
      <point x="170" y="415"/>
      <point x="170" y="415" type="curve"/>
      <point x="170" y="415"/>
      <point x="30" y="310"/>
      <point x="30" y="195" type="curve" smooth="yes"/>
      <point x="30" y="80"/>
      <point x="120" y="-10"/>
      <point x="240" y="-10" type="curve" smooth="yes"/>
      <point x="360" y="-10"/>
      <point x="445" y="90"/>
      <point x="445" y="90" type="curve"/>
      <point x="520" y="0" type="line"/>
      <point x="590" y="60" type="line"/>
      <point x="510" y="155" type="line"/>
      <point x="590" y="235" type="line"/>
    </contour>
    <contour>
      <point x="240" y="85" type="curve" smooth="yes"/>
      <point x="175" y="85"/>
      <point x="125" y="135"/>
      <point x="125" y="195" type="curve" smooth="yes"/>
      <point x="125" y="280"/>
      <point x="225" y="350"/>
      <point x="225" y="350" type="curve"/>
      <point x="385" y="160" type="line"/>
      <point x="385" y="160"/>
      <point x="330" y="85"/>
    </contour>
    <contour>
      <point x="195" y="570" type="curve" smooth="yes"/>
      <point x="195" y="595"/>
      <point x="215" y="615"/>
      <point x="240" y="615" type="curve" smooth="yes"/>
      <point x="265" y="615"/>
      <point x="285" y="595"/>
      <point x="285" y="570" type="curve" smooth="yes"/>
      <point x="285" y="520"/>
      <point x="235" y="480"/>
      <point x="235" y="480" type="curve"/>
      <point x="235" y="480"/>
      <point x="195" y="520"/>
    </contour>
  </outline>
</glyph>
<glyph name="quotesingle" format="1">
  <advance width="185"/>
  <unicode hex="0027"/>
  <outline>
    <contour>
      <point x="50" y="490" type="line" name="hr00"/>
      <point x="135" y="490" type="line"/>
      <point x="135" y="700" type="line"/>
      <point x="50" y="700" type="line"/>
    </contour>
  </outline>
</glyph>
<glyph name="parenleft" format="1">
  <advance width="320"/>
  <unicode hex="0028"/>
  <outline>
    <contour>
      <point x="80" y="101" type="line" smooth="yes" name="hr00"/>
      <point x="80" y="-25"/>
      <point x="175" y="-120"/>
      <point x="300" y="-120" type="curve"/>
      <point x="300" y="-120" type="line"/>
      <point x="300" y="-30" type="line"/>
      <point x="225" y="-30"/>
      <point x="170" y="25"/>
      <point x="170" y="100" type="curve" smooth="yes"/>
      <point x="170" y="510" type="line" smooth="yes"/>
      <point x="170" y="585"/>
      <point x="225" y="640"/>
      <point x="300" y="640" type="curve"/>
      <point x="300" y="730" type="line"/>
      <point x="300" y="730" type="line"/>
      <point x="175" y="730"/>
      <point x="80" y="636"/>
      <point x="80" y="510" type="curve" smooth="yes"/>
    </contour>
  </outline>
</glyph>
<glyph name="parenright" format="1">
  <advance width="320"/>
  <unicode hex="0029"/>
  <outline>
    <contour>
      <point x="240" y="510" type="line" smooth="yes" name="hr00"/>
      <point x="240" y="636"/>
      <point x="145" y="730"/>
      <point x="20" y="730" type="curve"/>
      <point x="20" y="730" type="line"/>
      <point x="20" y="640" type="line"/>
      <point x="95" y="640"/>
      <point x="150" y="585"/>
      <point x="150" y="510" type="curve" smooth="yes"/>
      <point x="150" y="100" type="line" smooth="yes"/>
      <point x="150" y="25"/>
      <point x="95" y="-30"/>
      <point x="20" y="-30" type="curve"/>
      <point x="20" y="-120" type="line"/>
      <point x="20" y="-120" type="line"/>
      <point x="145" y="-120"/>
      <point x="240" y="-25"/>
      <point x="240" y="101" type="curve" smooth="yes"/>
    </contour>
  </outline>
</glyph>
<glyph name="asterisk" format="1">
  <advance width="400"/>
  <unicode hex="002A"/>
  <outline>
    <contour>
      <point x="230" y="590" type="line" name="hr00"/>
      <point x="240" y="660" type="line"/>
      <point x="240" y="700" type="line"/>
      <point x="160" y="700" type="line"/>
      <point x="160" y="660" type="line"/>
      <point x="170" y="590" type="line"/>
      <point x="105" y="635" type="line"/>
      <point x="80" y="650" type="line"/>
      <point x="40" y="580" type="line"/>
      <point x="65" y="565" type="line"/>
      <point x="135" y="540" type="line"/>
      <point x="65" y="515" type="line"/>
      <point x="40" y="500" type="line"/>
      <point x="80" y="430" type="line"/>
      <point x="105" y="445" type="line"/>
      <point x="170" y="490" type="line"/>
      <point x="160" y="420" type="line"/>
      <point x="160" y="380" type="line"/>
      <point x="240" y="380" type="line"/>
      <point x="240" y="420" type="line"/>
      <point x="230" y="490" type="line"/>
      <point x="295" y="445" type="line"/>
      <point x="320" y="430" type="line"/>
      <point x="360" y="500" type="line"/>
      <point x="335" y="515" type="line"/>
      <point x="265" y="540" type="line"/>
      <point x="335" y="565" type="line"/>
      <point x="360" y="580" type="line"/>
      <point x="320" y="650" type="line"/>
      <point x="295" y="635" type="line"/>
    </contour>
  </outline>
</glyph>
<glyph name="plus" format="1">
  <advance width="410"/>
  <unicode hex="002B"/>
  <outline>
    <contour>
      <point x="250" y="480" type="line" name="hr00"/>
      <point x="250" y="350" type="line"/>
      <point x="370" y="350" type="line"/>
      <point x="370" y="260" type="line"/>
      <point x="250" y="260" type="line"/>
      <point x="250" y="130" type="line"/>
      <point x="160" y="130" type="line"/>
      <point x="160" y="260" type="line"/>
      <point x="40" y="260" type="line"/>
      <point x="40" y="350" type="line"/>
      <point x="160" y="350" type="line"/>
      <point x="160" y="480" type="line"/>
    </contour>
  </outline>
</glyph>
<glyph name="comma" format="1">
  <advance width="180"/>
  <unicode hex="002C"/>
  <outline>
    <contour>
      <point x="60" y="90" type="line" name="hr00"/>
      <point x="-20" y="-90" type="line"/>
      <point x="40" y="-90" type="line"/>
      <point x="150" y="90" type="line"/>
    </contour>
  </outline>
</glyph>
<glyph name="period" format="1">
  <advance width="190"/>
  <unicode hex="002E"/>
  <outline>
    <contour>
      <point x="150" y="45" type="curve" name="hr00"/>
      <point x="150" y="75"/>
      <point x="125" y="100"/>
      <point x="95" y="100" type="curve" smooth="yes"/>
      <point x="65" y="100"/>
      <point x="40" y="75"/>
      <point x="40" y="45" type="curve"/>
      <point x="40" y="15"/>
      <point x="65" y="-10"/>
      <point x="95" y="-10" type="curve"/>
      <point x="125" y="-10"/>
      <point x="150" y="15"/>
    </contour>
  </outline>
</glyph>
<glyph name="slash" format="1">
  <advance width="440"/>
  <unicode hex="002F"/>
  <outline>
    <contour>
      <point x="100" y="0" type="line" name="hr00"/>
      <point x="440" y="700" type="line"/>
      <point x="340" y="700" type="line"/>
      <point x="0" y="0" type="line"/>
    </contour>
  </outline>
</glyph>
<glyph name="zero" format="1">
  <advance width="580"/>
  <unicode hex="0030"/>
  <outline>
    <contour>
      <point x="510" y="490" type="line" smooth="yes" name="hr00"/>
      <point x="510" y="615"/>
      <point x="415" y="710"/>
      <point x="290" y="710" type="curve" smooth="yes"/>
      <point x="165" y="710"/>
      <point x="70" y="615"/>
      <point x="70" y="490" type="curve" smooth="yes"/>
      <point x="70" y="210" type="line" smooth="yes"/>
      <point x="70" y="85"/>
      <point x="165" y="-10"/>
      <point x="290" y="-10" type="curve" smooth="yes"/>
      <point x="415" y="-10"/>
      <point x="510" y="85"/>
      <point x="510" y="210" type="curve"/>
    </contour>
    <contour>
      <point x="415" y="215" type="line"/>
      <point x="210" y="585" type="line"/>
      <point x="210" y="585"/>
      <point x="240" y="615"/>
      <point x="290" y="615" type="curve" smooth="yes"/>
      <point x="360" y="615"/>
      <point x="415" y="560"/>
      <point x="415" y="490" type="curve" smooth="yes"/>
    </contour>
    <contour>
      <point x="370" y="115" type="line"/>
      <point x="370" y="115"/>
      <point x="340" y="85"/>
      <point x="290" y="85" type="curve" smooth="yes"/>
      <point x="220" y="85"/>
      <point x="165" y="140"/>
      <point x="165" y="210" type="curve"/>
      <point x="165" y="485" type="line"/>
    </contour>
  </outline>
</glyph>
<glyph name="one" format="1">
  <advance width="395"/>
  <unicode hex="0031"/>
  <outline>
    <contour>
      <point x="375" y="95" type="line" name="hr00"/>
      <point x="250" y="95" type="line"/>
      <point x="250" y="700" type="line"/>
      <point x="30" y="700" type="line"/>
      <point x="30" y="605" type="line"/>
      <point x="155" y="605" type="line"/>
      <point x="155" y="95" type="line"/>
      <point x="30" y="95" type="line"/>
      <point x="30" y="0" type="line"/>
      <point x="375" y="0" type="line"/>
    </contour>
  </outline>
</glyph>
<glyph name="two" format="1">
  <advance width="500"/>
  <unicode hex="0032"/>
  <outline>
    <contour>
      <point x="440" y="95" type="line" name="hr00"/>
      <point x="135" y="95" type="line"/>
      <point x="135" y="220" type="line"/>
      <point x="300" y="290" type="line" smooth="yes"/>
      <point x="390" y="328"/>
      <point x="450" y="390"/>
      <point x="450" y="495" type="curve" smooth="yes"/>
      <point x="450" y="610"/>
      <point x="360" y="700"/>
      <point x="245" y="700" type="curve" smooth="yes"/>
      <point x="60" y="700" type="line"/>
      <point x="60" y="605" type="line"/>
      <point x="245" y="605" type="line" smooth="yes"/>
      <point x="305" y="605"/>
      <point x="355" y="555"/>
      <point x="355" y="495" type="curve" smooth="yes"/>
      <point x="355" y="435"/>
      <point x="320" y="400"/>
      <point x="250" y="370" type="curve" smooth="yes"/>
      <point x="40" y="280" type="line"/>
      <point x="40" y="0" type="line"/>
      <point x="440" y="0" type="line"/>
    </contour>
  </outline>
</glyph>
<glyph name="three" format="1">
  <advance width="485"/>
  <unicode hex="0033"/>
  <outline>
    <contour>
      <point x="230" y="0" type="line" smooth="yes" name="hr00"/>
      <point x="345" y="0"/>
      <point x="435" y="90"/>
      <point x="435" y="205" type="curve" smooth="yes"/>
      <point x="435" y="315"/>
      <point x="350" y="400"/>
      <point x="240" y="400" type="curve"/>
      <point x="405" y="525" type="line"/>
      <point x="405" y="700" type="line"/>
      <point x="30" y="700" type="line"/>
      <point x="30" y="605" type="line"/>
      <point x="310" y="605" type="line"/>
      <point x="310" y="555" type="line"/>
      <point x="110" y="400" type="line"/>
      <point x="110" y="315" type="line"/>
      <point x="230" y="315" type="line" smooth="yes"/>
      <point x="290" y="315"/>
      <point x="340" y="265"/>
      <point x="340" y="205" type="curve" smooth="yes"/>
      <point x="340" y="145"/>
      <point x="290" y="95"/>
      <point x="230" y="95" type="curve" smooth="yes"/>
      <point x="20" y="95" type="line"/>
      <point x="20" y="0" type="line"/>
    </contour>
  </outline>
</glyph>
<glyph name="four" format="1">
  <advance width="540"/>
  <unicode hex="0034"/>
  <outline>
    <contour>
      <point x="425" y="0" type="line" name="hr00"/>
      <point x="425" y="175" type="line"/>
      <point x="510" y="175" type="line"/>
      <point x="510" y="270" type="line"/>
      <point x="425" y="270" type="line"/>
      <point x="425" y="700" type="line"/>
      <point x="330" y="700" type="line"/>
      <point x="330" y="270" type="line"/>
      <point x="145" y="270" type="line"/>
      <point x="250" y="510" type="line"/>
      <point x="150" y="510" type="line"/>
      <point x="0" y="175" type="line"/>
      <point x="330" y="175" type="line"/>
      <point x="330" y="0" type="line"/>
    </contour>
  </outline>
</glyph>
<glyph name="five" format="1">
  <advance width="525"/>
  <unicode hex="0035"/>
  <outline>
    <contour>
      <point x="280" y="0" type="line" smooth="yes" name="hr00"/>
      <point x="395" y="0"/>
      <point x="485" y="90"/>
      <point x="485" y="205" type="curve" smooth="yes"/>
      <point x="485" y="320"/>
      <point x="395" y="410"/>
      <point x="280" y="410" type="curve" smooth="yes"/>
      <point x="175" y="410" type="line"/>
      <point x="175" y="605" type="line"/>
      <point x="425" y="605" type="line"/>
      <point x="425" y="700" type="line"/>
      <point x="80" y="700" type="line"/>
      <point x="80" y="315" type="line"/>
      <point x="280" y="315" type="line" smooth="yes"/>
      <point x="340" y="315"/>
      <point x="390" y="265"/>
      <point x="390" y="205" type="curve" smooth="yes"/>
      <point x="390" y="145"/>
      <point x="340" y="95"/>
      <point x="280" y="95" type="curve" smooth="yes"/>
      <point x="70" y="95" type="line"/>
      <point x="70" y="0" type="line"/>
    </contour>
  </outline>
</glyph>
<glyph name="six" format="1">
  <advance width="510"/>
  <unicode hex="0036"/>
  <outline>
    <contour>
      <point x="260" y="430" type="curve" smooth="yes" name="hr00"/>
      <point x="240" y="430"/>
      <point x="225" y="425"/>
      <point x="225" y="425" type="curve"/>
      <point x="365" y="700" type="line"/>
      <point x="260" y="700" type="line"/>
      <point x="80" y="340" type="line"/>
      <point x="80" y="340"/>
      <point x="40" y="275"/>
      <point x="40" y="210" type="curve" smooth="yes"/>
      <point x="40" y="90"/>
      <point x="140" y="-10"/>
      <point x="260" y="-10" type="curve" smooth="yes"/>
      <point x="380" y="-10"/>
      <point x="480" y="90"/>
      <point x="480" y="210" type="curve" smooth="yes"/>
      <point x="480" y="330"/>
      <point x="380" y="430"/>
    </contour>
    <contour>
      <point x="260" y="335" type="curve" smooth="yes"/>
      <point x="330" y="335"/>
      <point x="385" y="280"/>
      <point x="385" y="210" type="curve" smooth="yes"/>
      <point x="385" y="140"/>
      <point x="330" y="85"/>
      <point x="260" y="85" type="curve" smooth="yes"/>
      <point x="190" y="85"/>
      <point x="135" y="140"/>
      <point x="135" y="210" type="curve" smooth="yes"/>
      <point x="135" y="280"/>
      <point x="190" y="335"/>
    </contour>
  </outline>
</glyph>
<glyph name="seven" format="1">
  <advance width="455"/>
  <unicode hex="0037"/>
  <outline>
    <contour>
      <point x="20" y="700" type="line" name="hr00"/>
      <point x="20" y="605" type="line"/>
      <point x="305" y="605" type="line"/>
      <point x="20" y="0" type="line"/>
      <point x="125" y="0" type="line"/>
      <point x="455" y="700" type="line"/>
    </contour>
  </outline>
</glyph>
<glyph name="eight" format="1">
  <advance width="520"/>
  <unicode hex="0038"/>
  <outline>
    <contour>
      <point x="260" y="425" type="curve" name="hr00"/>
      <point x="315" y="425"/>
      <point x="355" y="465"/>
      <point x="355" y="520" type="curve" smooth="yes"/>
      <point x="355" y="575"/>
      <point x="315" y="615"/>
      <point x="260" y="615" type="curve"/>
      <point x="205" y="615"/>
      <point x="165" y="575"/>
      <point x="165" y="520" type="curve" smooth="yes"/>
      <point x="165" y="465"/>
      <point x="205" y="425"/>
    </contour>
    <contour>
      <point x="260" y="85" type="curve"/>
      <point x="330" y="85"/>
      <point x="385" y="140"/>
      <point x="385" y="210" type="curve" smooth="yes"/>
      <point x="385" y="280"/>
      <point x="330" y="335"/>
      <point x="260" y="335" type="curve"/>
      <point x="190" y="335"/>
      <point x="135" y="280"/>
      <point x="135" y="210" type="curve" smooth="yes"/>
      <point x="135" y="140"/>
      <point x="190" y="85"/>
    </contour>
    <contour>
      <point x="260" y="710" type="curve"/>
      <point x="365" y="710"/>
      <point x="450" y="625"/>
      <point x="450" y="520" type="curve" smooth="yes"/>
      <point x="450" y="415"/>
      <point x="375" y="380"/>
      <point x="375" y="380" type="curve"/>
      <point x="375" y="380"/>
      <point x="480" y="325"/>
      <point x="480" y="210" type="curve" smooth="yes"/>
      <point x="480" y="90"/>
      <point x="380" y="-10"/>
      <point x="260" y="-10" type="curve"/>
      <point x="140" y="-10"/>
      <point x="40" y="90"/>
      <point x="40" y="210" type="curve" smooth="yes"/>
      <point x="40" y="325"/>
      <point x="145" y="380"/>
      <point x="145" y="380" type="curve"/>
      <point x="145" y="380"/>
      <point x="70" y="415"/>
      <point x="70" y="520" type="curve" smooth="yes"/>
      <point x="70" y="625"/>
      <point x="155" y="710"/>
    </contour>
  </outline>
</glyph>
<glyph name="nine" format="1">
  <advance width="510"/>
  <unicode hex="0039"/>
  <outline>
    <contour>
      <point x="250" y="270" type="curve" smooth="yes" name="hr00"/>
      <point x="270" y="270"/>
      <point x="285" y="275"/>
      <point x="285" y="275" type="curve"/>
      <point x="145" y="0" type="line"/>
      <point x="250" y="0" type="line"/>
      <point x="430" y="360" type="line"/>
      <point x="430" y="360"/>
      <point x="470" y="425"/>
      <point x="470" y="490" type="curve" smooth="yes"/>
      <point x="470" y="610"/>
      <point x="370" y="710"/>
      <point x="250" y="710" type="curve" smooth="yes"/>
      <point x="130" y="710"/>
      <point x="30" y="610"/>
      <point x="30" y="490" type="curve" smooth="yes"/>
      <point x="30" y="370"/>
      <point x="130" y="270"/>
    </contour>
    <contour>
      <point x="250" y="365" type="curve" smooth="yes"/>
      <point x="180" y="365"/>
      <point x="125" y="420"/>
      <point x="125" y="490" type="curve" smooth="yes"/>
      <point x="125" y="560"/>
      <point x="180" y="615"/>
      <point x="250" y="615" type="curve" smooth="yes"/>
      <point x="320" y="615"/>
      <point x="375" y="560"/>
      <point x="375" y="490" type="curve" smooth="yes"/>
      <point x="375" y="420"/>
      <point x="320" y="365"/>
    </contour>
  </outline>
</glyph>
<glyph name="colon" format="1">
  <advance width="190"/>
  <unicode hex="003A"/>
  <outline>
    <contour>
      <point x="150" y="45" type="curve" smooth="yes" name="hr00"/>
      <point x="150" y="75"/>
      <point x="125" y="100"/>
      <point x="95" y="100" type="curve" smooth="yes"/>
      <point x="65" y="100"/>
      <point x="40" y="75"/>
      <point x="40" y="45" type="curve" smooth="yes"/>
      <point x="40" y="15"/>
      <point x="65" y="-10"/>
      <point x="95" y="-10" type="curve" smooth="yes"/>
      <point x="125" y="-10"/>
      <point x="150" y="15"/>
    </contour>
    <contour>
      <point x="150" y="445" type="curve" smooth="yes"/>
      <point x="150" y="475"/>
      <point x="125" y="500"/>
      <point x="95" y="500" type="curve" smooth="yes"/>
      <point x="65" y="500"/>
      <point x="40" y="475"/>
      <point x="40" y="445" type="curve" smooth="yes"/>
      <point x="40" y="415"/>
      <point x="65" y="390"/>
      <point x="95" y="390" type="curve" smooth="yes"/>
      <point x="125" y="390"/>
      <point x="150" y="415"/>
    </contour>
  </outline>
</glyph>
<glyph name="semicolon" format="1">
  <advance width="190"/>
  <unicode hex="003B"/>
  <outline>
    <contour>
      <point x="160" y="445" type="curve" smooth="yes" name="hr00"/>
      <point x="160" y="475"/>
      <point x="135" y="500"/>
      <point x="105" y="500" type="curve" smooth="yes"/>
      <point x="75" y="500"/>
      <point x="50" y="475"/>
      <point x="50" y="445" type="curve" smooth="yes"/>
      <point x="50" y="415"/>
      <point x="75" y="390"/>
      <point x="105" y="390" type="curve" smooth="yes"/>
      <point x="135" y="390"/>
      <point x="160" y="415"/>
    </contour>
    <contour>
      <point x="60" y="90" type="line"/>
      <point x="-20" y="-90" type="line"/>
      <point x="40" y="-90" type="line"/>
      <point x="150" y="90" type="line"/>
    </contour>
  </outline>
</glyph>
<glyph name="equal" format="1">
  <advance width="410"/>
  <unicode hex="003D"/>
  <outline>
    <contour>
      <point x="370" y="250" type="line" name="hr00"/>
      <point x="40" y="250" type="line"/>
      <point x="40" y="160" type="line"/>
      <point x="370" y="160" type="line"/>
    </contour>
    <contour>
      <point x="370" y="450" type="line"/>
      <point x="40" y="450" type="line"/>
      <point x="40" y="360" type="line"/>
      <point x="370" y="360" type="line"/>
    </contour>
  </outline>
</glyph>
<glyph name="greater" format="1">
  <advance width="400"/>
  <unicode hex="003E"/>
  <outline>
    <contour>
      <point x="370" y="270" type="line" name="hr00"/>
      <point x="30" y="470" type="line"/>
      <point x="30" y="375" type="line"/>
      <point x="270" y="240" type="line"/>
      <point x="30" y="105" type="line"/>
      <point x="30" y="10" type="line"/>
      <point x="370" y="210" type="line"/>
    </contour>
  </outline>
</glyph>
<glyph name="question" format="1">
  <advance width="395"/>
  <unicode hex="003F"/>
  <outline>
    <contour>
      <point x="335" y="515" type="curve" smooth="yes" name="hr00"/>
      <point x="335" y="615"/>
      <point x="250" y="700"/>
      <point x="140" y="700" type="curve" smooth="yes"/>
      <point x="40" y="700" type="line"/>
      <point x="40" y="605" type="line"/>
      <point x="140" y="605" type="line" smooth="yes"/>
      <point x="200" y="605"/>
      <point x="240" y="565"/>
      <point x="240" y="515" type="curve" smooth="yes"/>
      <point x="240" y="420"/>
      <point x="95" y="400"/>
      <point x="95" y="250" type="curve" smooth="yes"/>
      <point x="95" y="190" type="line"/>
      <point x="185" y="190" type="line"/>
      <point x="185" y="250" type="line" smooth="yes"/>
      <point x="185" y="350"/>
      <point x="335" y="370"/>
    </contour>
    <contour>
      <point x="195" y="45" type="curve" smooth="yes"/>
      <point x="195" y="15"/>
      <point x="170" y="-10"/>
      <point x="140" y="-10" type="curve" smooth="yes"/>
      <point x="110" y="-10"/>
      <point x="85" y="15"/>
      <point x="85" y="45" type="curve" smooth="yes"/>
      <point x="85" y="75"/>
      <point x="110" y="100"/>
      <point x="140" y="100" type="curve" smooth="yes"/>
      <point x="170" y="100"/>
      <point x="195" y="75"/>
    </contour>
  </outline>
</glyph>
<glyph name="at" format="1">
  <advance width="770"/>
  <unicode hex="0040"/>
  <outline>
    <contour>
      <point x="400" y="630" type="curve" smooth="yes" name="hr00"/>
      <point x="200" y="630"/>
      <point x="40" y="470"/>
      <point x="40" y="270" type="curve" smooth="yes"/>
      <point x="40" y="70"/>
      <point x="200" y="-90"/>
      <point x="400" y="-90" type="curve" smooth="yes"/>
      <point x="460" y="-90"/>
      <point x="510" y="-70"/>
      <point x="510" y="-70" type="curve"/>
      <point x="490" y="5" type="line"/>
      <point x="490" y="5"/>
      <point x="450" y="-10"/>
      <point x="400" y="-10" type="curve" smooth="yes"/>
      <point x="250" y="-10"/>
      <point x="120" y="120"/>
      <point x="120" y="270" type="curve" smooth="yes"/>
      <point x="120" y="420"/>
      <point x="250" y="550"/>
      <point x="400" y="550" type="curve" smooth="yes"/>
      <point x="540" y="550"/>
      <point x="650" y="440"/>
      <point x="650" y="300" type="curve" smooth="yes"/>
      <point x="650" y="230"/>
      <point x="610" y="190"/>
      <point x="570" y="190" type="curve" smooth="yes"/>
      <point x="530" y="190"/>
      <point x="520" y="220"/>
      <point x="520" y="220" type="curve"/>
      <point x="520" y="440" type="line"/>
      <point x="400" y="440" type="line" smooth="yes"/>
      <point x="305" y="440"/>
      <point x="230" y="365"/>
      <point x="230" y="270" type="curve" smooth="yes"/>
      <point x="230" y="175"/>
      <point x="295" y="110"/>
      <point x="380" y="110" type="curve"/>
      <point x="440" y="110"/>
      <point x="480" y="150"/>
      <point x="480" y="150" type="curve"/>
      <point x="480" y="150"/>
      <point x="510" y="110"/>
      <point x="570" y="110" type="curve" smooth="yes"/>
      <point x="660" y="110"/>
      <point x="730" y="180"/>
      <point x="730" y="300" type="curve" smooth="yes"/>
      <point x="730" y="490"/>
      <point x="590" y="630"/>
    </contour>
    <contour>
      <point x="380" y="190" type="curve" smooth="yes"/>
      <point x="340" y="190"/>
      <point x="310" y="220"/>
      <point x="310" y="270" type="curve" smooth="yes"/>
      <point x="310" y="310"/>
      <point x="350" y="350"/>
      <point x="400" y="350" type="curve" smooth="yes"/>
      <point x="440" y="350" type="line"/>
      <point x="440" y="220" type="line"/>
      <point x="440" y="220"/>
      <point x="420" y="190"/>
    </contour>
  </outline>
</glyph>
<glyph name="D" format="1">
  <advance width="575"/>
  <unicode hex="0044"/>
  <outline>
    <contour>
      <point x="100" y="605" type="line" name="hr00"/>
      <point x="20" y="605" type="line"/>
      <point x="20" y="700" type="line"/>
      <point x="285" y="700" type="line" smooth="yes"/>
      <point x="410" y="700"/>
      <point x="505" y="605"/>
      <point x="505" y="480" type="curve" smooth="yes"/>
      <point x="505" y="220" type="line" smooth="yes"/>
      <point x="505" y="95"/>
      <point x="410" y="0"/>
      <point x="285" y="0" type="curve" smooth="yes"/>
      <point x="20" y="0" type="line"/>
      <point x="20" y="95" type="line"/>
      <point x="100" y="95" type="line"/>
    </contour>
    <contour>
      <point x="195" y="95" type="line"/>
      <point x="285" y="95" type="line" smooth="yes"/>
      <point x="355" y="95"/>
      <point x="410" y="150"/>
      <point x="410" y="220" type="curve" smooth="yes"/>
      <point x="410" y="480" type="line" smooth="yes"/>
      <point x="410" y="550"/>
      <point x="355" y="605"/>
      <point x="285" y="605" type="curve" smooth="yes"/>
      <point x="195" y="605" type="line"/>
    </contour>
  </outline>
</glyph>
<glyph name="E" format="1">
  <advance width="530"/>
  <unicode hex="0045"/>
  <outline>
    <contour>
      <point x="510" y="95" type="line" name="hr00"/>
      <point x="185" y="95" type="line"/>
      <point x="185" y="305" type="line"/>
      <point x="420" y="305" type="line"/>
      <point x="420" y="400" type="line"/>
      <point x="185" y="400" type="line"/>
      <point x="185" y="605" type="line"/>
      <point x="510" y="605" type="line"/>
      <point x="510" y="700" type="line"/>
      <point x="90" y="700" type="line"/>
      <point x="90" y="0" type="line"/>
      <point x="510" y="0" type="line"/>
    </contour>
  </outline>
</glyph>
<glyph name="F" format="1">
  <advance width="510"/>
  <unicode hex="0046"/>
  <outline>
    <contour>
      <point x="510" y="700" type="line" name="hr00"/>
      <point x="80" y="700" type="line"/>
      <point x="80" y="605" type="line"/>
      <point x="510" y="605" type="line"/>
    </contour>
    <contour>
      <point x="175" y="315" type="line"/>
      <point x="420" y="315" type="line"/>
      <point x="420" y="410" type="line"/>
      <point x="80" y="410" type="line"/>
      <point x="80" y="0" type="line"/>
      <point x="175" y="0" type="line"/>
    </contour>
  </outline>
</glyph>
<glyph name="K" format="1">
  <advance width="545"/>
  <unicode hex="004B"/>
  <outline>
    <contour>
      <point x="90" y="0" type="line" name="hr00"/>
      <point x="185" y="0" type="line"/>
      <point x="185" y="305" type="line"/>
      <point x="280" y="305" type="line"/>
      <point x="430" y="0" type="line"/>
      <point x="535" y="0" type="line"/>
      <point x="360" y="350" type="line"/>
      <point x="535" y="700" type="line"/>
      <point x="430" y="700" type="line"/>
      <point x="280" y="400" type="line"/>
      <point x="185" y="400" type="line"/>
      <point x="185" y="700" type="line"/>
      <point x="10" y="700" type="line"/>
      <point x="10" y="605" type="line"/>
      <point x="90" y="605" type="line"/>
    </contour>
  </outline>
</glyph>
<glyph name="L" format="1">
  <advance width="520"/>
  <unicode hex="004C"/>
  <outline>
    <contour>
      <point x="500" y="180" type="line" name="hr00"/>
      <point x="405" y="180" type="line"/>
      <point x="405" y="95" type="line"/>
      <point x="185" y="95" type="line"/>
      <point x="185" y="700" type="line"/>
      <point x="90" y="700" type="line"/>
      <point x="90" y="0" type="line"/>
      <point x="500" y="0" type="line"/>
    </contour>
  </outline>
</glyph>
<glyph name="M" format="1">
  <advance width="720"/>
  <unicode hex="004D"/>
  <outline>
    <contour>
      <point x="630" y="95" type="line" name="hr00"/>
      <point x="630" y="700" type="line"/>
      <point x="515" y="700" type="line"/>
      <point x="360" y="400" type="line"/>
      <point x="205" y="700" type="line"/>
      <point x="90" y="700" type="line"/>
      <point x="90" y="0" type="line"/>
      <point x="185" y="0" type="line"/>
      <point x="185" y="545" type="line"/>
      <point x="310" y="300" type="line"/>
      <point x="410" y="300" type="line"/>
      <point x="535" y="545" type="line"/>
      <point x="535" y="0" type="line"/>
      <point x="710" y="0" type="line"/>
      <point x="710" y="95" type="line"/>
    </contour>
  </outline>
</glyph>
<glyph name="Q" format="1">
  <advance width="600"/>
  <unicode hex="0051"/>
  <outline>
    <contour>
      <point x="510" y="100" type="line" name="hr00"/>
      <point x="510" y="100"/>
      <point x="530" y="150"/>
      <point x="530" y="220" type="curve" smooth="yes"/>
      <point x="530" y="481" type="line" smooth="yes"/>
      <point x="530" y="610"/>
      <point x="430" y="710"/>
      <point x="300" y="710" type="curve" smooth="yes"/>
      <point x="170" y="710"/>
      <point x="70" y="610"/>
      <point x="70" y="480" type="curve" smooth="yes"/>
      <point x="70" y="220" type="line" smooth="yes"/>
      <point x="70" y="90"/>
      <point x="170" y="-10"/>
      <point x="300" y="-10" type="curve" smooth="yes"/>
      <point x="390" y="-10"/>
      <point x="440" y="40"/>
      <point x="440" y="40" type="curve"/>
      <point x="515" y="-80" type="line"/>
      <point x="590" y="-30" type="line"/>
    </contour>
    <contour>
      <point x="300" y="85" type="curve" smooth="yes"/>
      <point x="225" y="85"/>
      <point x="165" y="145"/>
      <point x="165" y="220" type="curve" smooth="yes"/>
      <point x="165" y="480" type="line"/>
      <point x="390" y="120" type="line"/>
      <point x="390" y="120"/>
      <point x="360" y="85"/>
    </contour>
    <contour>
      <point x="435" y="220" type="line"/>
      <point x="210" y="580" type="line"/>
      <point x="210" y="580"/>
      <point x="240" y="615"/>
      <point x="300" y="615" type="curve" smooth="yes"/>
      <point x="375" y="615"/>
      <point x="435" y="555"/>
      <point x="435" y="481" type="curve" smooth="yes"/>
    </contour>
  </outline>
</glyph>
<glyph name="R" format="1">
  <advance width="585"/>
  <unicode hex="0052"/>
  <outline>
    <contour>
      <point x="435" y="500" type="curve" smooth="yes" name="hr00"/>
      <point x="435" y="440"/>
      <point x="390" y="395"/>
      <point x="330" y="395" type="curve" smooth="yes"/>
      <point x="90" y="395" type="line"/>
      <point x="90" y="0" type="line"/>
      <point x="185" y="0" type="line"/>
      <point x="185" y="300" type="line"/>
      <point x="295" y="300" type="line"/>
      <point x="440" y="0" type="line"/>
      <point x="545" y="0" type="line"/>
      <point x="390" y="310" type="line"/>
      <point x="390" y="310"/>
      <point x="530" y="355"/>
      <point x="530" y="500" type="curve" smooth="yes"/>
      <point x="530" y="610"/>
      <point x="440" y="700"/>
      <point x="330" y="700" type="curve" smooth="yes"/>
      <point x="10" y="700" type="line"/>
      <point x="10" y="605" type="line"/>
      <point x="330" y="605" type="line" smooth="yes"/>
      <point x="390" y="605"/>
      <point x="435" y="560"/>
    </contour>
  </outline>
</glyph>
<glyph name="S" format="1">
  <advance width="510"/>
  <unicode hex="0053"/>
  <outline>
    <contour>
      <point x="40" y="505" type="curve" smooth="yes" name="hr00"/>
      <point x="40" y="290"/>
      <point x="375" y="340"/>
      <point x="375" y="205" type="curve" smooth="yes"/>
      <point x="375" y="140"/>
      <point x="330" y="95"/>
      <point x="265" y="95" type="curve" smooth="yes"/>
      <point x="50" y="95" type="line"/>
      <point x="50" y="0" type="line"/>
      <point x="265" y="0" type="line" smooth="yes"/>
      <point x="380" y="0"/>
      <point x="470" y="90"/>
      <point x="470" y="205" type="curve" smooth="yes"/>
      <point x="470" y="420"/>
      <point x="135" y="370"/>
      <point x="135" y="505" type="curve" smooth="yes"/>
      <point x="135" y="565"/>
      <point x="175" y="605"/>
      <point x="235" y="605" type="curve" smooth="yes"/>
      <point x="430" y="605" type="line"/>
      <point x="430" y="700" type="line"/>
      <point x="235" y="700" type="line" smooth="yes"/>
      <point x="125" y="700"/>
      <point x="40" y="615"/>
    </contour>
  </outline>
</glyph>
<glyph name="U" format="1">
  <advance width="630"/>
  <unicode hex="0055"/>
  <outline>
    <contour>
      <point x="185" y="700" type="line" name="hr00"/>
      <point x="10" y="700" type="line"/>
      <point x="10" y="605" type="line"/>
      <point x="90" y="605" type="line"/>
      <point x="90" y="220" type="line" smooth="yes"/>
      <point x="90" y="90"/>
      <point x="190" y="-10"/>
      <point x="320" y="-10" type="curve" smooth="yes"/>
      <point x="450" y="-10"/>
      <point x="550" y="90"/>
      <point x="550" y="220" type="curve" smooth="yes"/>
      <point x="550" y="700" type="line"/>
      <point x="455" y="700" type="line"/>
      <point x="455" y="220" type="line" smooth="yes"/>
      <point x="455" y="145"/>
      <point x="395" y="85"/>
      <point x="320" y="85" type="curve" smooth="yes"/>
      <point x="245" y="85"/>
      <point x="185" y="145"/>
      <point x="185" y="220" type="curve" smooth="yes"/>
    </contour>
  </outline>
</glyph>
<glyph name="V" format="1">
  <advance width="560"/>
  <unicode hex="0056"/>
  <outline>
    <contour>
      <point x="550" y="700" type="line" name="hr00"/>
      <point x="450" y="700" type="line"/>
      <point x="290" y="160" type="line"/>
      <point x="130" y="700" type="line"/>
      <point x="-20" y="700" type="line"/>
      <point x="-20" y="605" type="line"/>
      <point x="60" y="605" type="line"/>
      <point x="240" y="0" type="line"/>
      <point x="340" y="0" type="line"/>
    </contour>
  </outline>
</glyph>
<glyph name="W" format="1">
  <advance width="720"/>
  <unicode hex="0057"/>
  <outline>
    <contour>
      <point x="90" y="605" type="line" name="hr00"/>
      <point x="90" y="0" type="line"/>
      <point x="205" y="0" type="line"/>
      <point x="360" y="300" type="line"/>
      <point x="515" y="0" type="line"/>
      <point x="630" y="0" type="line"/>
      <point x="630" y="700" type="line"/>
      <point x="535" y="700" type="line"/>
      <point x="535" y="155" type="line"/>
      <point x="410" y="400" type="line"/>
      <point x="310" y="400" type="line"/>
      <point x="185" y="155" type="line"/>
      <point x="185" y="700" type="line"/>
      <point x="10" y="700" type="line"/>
      <point x="10" y="605" type="line"/>
    </contour>
  </outline>
</glyph>
<glyph name="X" format="1">
  <advance width="510"/>
  <unicode hex="0058"/>
  <outline>
    <contour>
      <point x="255" y="425" type="line" name="hr00"/>
      <point x="125" y="700" type="line"/>
      <point x="20" y="700" type="line"/>
      <point x="190" y="350" type="line"/>
      <point x="10" y="0" type="line"/>
      <point x="115" y="0" type="line"/>
      <point x="255" y="280" type="line"/>
      <point x="395" y="0" type="line"/>
      <point x="500" y="0" type="line"/>
      <point x="320" y="350" type="line"/>
      <point x="490" y="700" type="line"/>
      <point x="385" y="700" type="line"/>
    </contour>
  </outline>
</glyph>
<glyph name="Y" format="1">
  <advance width="475"/>
  <unicode hex="0059"/>
  <outline>
    <contour>
      <point x="190" y="0" type="line" name="hr00"/>
      <point x="285" y="0" type="line"/>
      <point x="285" y="290" type="line"/>
      <point x="485" y="700" type="line"/>
      <point x="380" y="700" type="line"/>
      <point x="240" y="410" type="line"/>
      <point x="235" y="410" type="line"/>
      <point x="95" y="700" type="line"/>
      <point x="-10" y="700" type="line"/>
      <point x="190" y="290" type="line"/>
    </contour>
  </outline>
</glyph>
<glyph name="Z" format="1">
  <advance width="450"/>
  <unicode hex="005A"/>
  <outline>
    <contour>
      <point x="145" y="95" type="line" name="hr00"/>
      <point x="450" y="700" type="line"/>
      <point x="10" y="700" type="line"/>
      <point x="10" y="605" type="line"/>
      <point x="295" y="605" type="line"/>
      <point x="-10" y="0" type="line"/>
      <point x="440" y="0" type="line"/>
      <point x="440" y="95" type="line"/>
    </contour>
  </outline>
</glyph>
<glyph name="bracketleft" format="1">
  <advance width="320"/>
  <unicode hex="005B"/>
  <outline>
    <contour>
      <point x="80" y="730" type="line" name="hr00"/>
      <point x="300" y="730" type="line"/>
      <point x="300" y="640" type="line"/>
      <point x="170" y="640" type="line"/>
      <point x="170" y="-30" type="line"/>
      <point x="300" y="-30" type="line"/>
      <point x="300" y="-120" type="line"/>
      <point x="80" y="-120" type="line"/>
    </contour>
  </outline>
</glyph>
<glyph name="backslash" format="1">
  <advance width="440"/>
  <unicode hex="005C"/>
  <outline>
    <contour>
      <point x="440" y="0" type="line" name="hr00"/>
      <point x="100" y="700" type="line"/>
      <point x="0" y="700" type="line"/>
      <point x="340" y="0" type="line"/>
    </contour>
  </outline>
</glyph>
<glyph name="bracketright" format="1">
  <advance width="320"/>
  <unicode hex="005D"/>
  <outline>
    <contour>
      <point x="240" y="-120" type="line" name="hr00"/>
      <point x="20" y="-120" type="line"/>
      <point x="20" y="-30" type="line"/>
      <point x="150" y="-30" type="line"/>
      <point x="150" y="640" type="line"/>
      <point x="20" y="640" type="line"/>
      <point x="20" y="730" type="line"/>
      <point x="240" y="730" type="line"/>
    </contour>
  </outline>
</glyph>
<glyph name="asciicircum" format="1">
  <advance width="440"/>
  <unicode hex="005E"/>
  <outline>
    <contour>
      <point x="120" y="370" type="line" name="hr00"/>
      <point x="220" y="580" type="line"/>
      <point x="320" y="370" type="line"/>
      <point x="420" y="370" type="line"/>
      <point x="260" y="700" type="line"/>
      <point x="180" y="700" type="line"/>
      <point x="20" y="370" type="line"/>
    </contour>
  </outline>
</glyph>
<glyph name="underscore" format="1">
  <advance width="330"/>
  <unicode hex="005F"/>
  <outline>
    <contour>
      <point x="330" y="-90" type="line" name="hr00"/>
      <point x="0" y="-90" type="line"/>
      <point x="0" y="-180" type="line"/>
      <point x="330" y="-180" type="line"/>
    </contour>
  </outline>
</glyph>
<glyph name="b" format="1">
  <advance width="480"/>
  <unicode hex="0062"/>
  <outline>
    <contour>
      <point x="340" y="170" type="line" smooth="yes" name="hr00"/>
      <point x="340" y="125"/>
      <point x="305" y="90"/>
      <point x="260" y="90" type="curve" smooth="yes"/>
      <point x="170" y="90" type="line"/>
      <point x="170" y="400" type="line"/>
      <point x="260" y="400" type="line" smooth="yes"/>
      <point x="305" y="400"/>
      <point x="340" y="365"/>
      <point x="340" y="320" type="curve" smooth="yes"/>
    </contour>
    <contour>
      <point x="170" y="700" type="line"/>
      <point x="10" y="700" type="line"/>
      <point x="10" y="610" type="line"/>
      <point x="80" y="610" type="line"/>
      <point x="80" y="0" type="line"/>
      <point x="260" y="0" type="line" smooth="yes"/>
      <point x="360" y="0"/>
      <point x="430" y="70"/>
      <point x="430" y="170" type="curve" smooth="yes"/>
      <point x="430" y="320" type="line" smooth="yes"/>
      <point x="430" y="420"/>
      <point x="360" y="490"/>
      <point x="260" y="490" type="curve" smooth="yes"/>
      <point x="170" y="490" type="line"/>
    </contour>
  </outline>
</glyph>
<glyph name="d" format="1">
  <advance width="470"/>
  <unicode hex="0064"/>
  <outline>
    <contour>
      <point x="220" y="490" type="line" smooth="yes" name="hr00"/>
      <point x="120" y="490"/>
      <point x="50" y="420"/>
      <point x="50" y="320" type="curve" smooth="yes"/>
      <point x="50" y="170" type="line" smooth="yes"/>
      <point x="50" y="70"/>
      <point x="120" y="0"/>
      <point x="220" y="0" type="curve" smooth="yes"/>
      <point x="400" y="0" type="line"/>
      <point x="400" y="700" type="line"/>
      <point x="240" y="700" type="line"/>
      <point x="240" y="610" type="line"/>
      <point x="310" y="610" type="line"/>
      <point x="310" y="490" type="line"/>
    </contour>
    <contour>
      <point x="140" y="320" type="line" smooth="yes"/>
      <point x="140" y="365"/>
      <point x="175" y="400"/>
      <point x="220" y="400" type="curve" smooth="yes"/>
      <point x="310" y="400" type="line"/>
      <point x="310" y="90" type="line"/>
      <point x="220" y="90" type="line" smooth="yes"/>
      <point x="175" y="90"/>
      <point x="140" y="125"/>
      <point x="140" y="170" type="curve" smooth="yes"/>
    </contour>
  </outline>
</glyph>
<glyph name="e" format="1">
  <advance width="450"/>
  <unicode hex="0065"/>
  <outline>
    <contour>
      <point x="50" y="170" type="line" smooth="yes" name="hr00"/>
      <point x="50" y="70"/>
      <point x="120" y="0"/>
      <point x="220" y="0" type="curve" smooth="yes"/>
      <point x="380" y="0" type="line"/>
      <point x="380" y="90" type="line"/>
      <point x="220" y="90" type="line" smooth="yes"/>
      <point x="175" y="90"/>
      <point x="140" y="125"/>
      <point x="140" y="170" type="curve" smooth="yes"/>
      <point x="140" y="195" type="line"/>
      <point x="410" y="195" type="line"/>
      <point x="410" y="320" type="line"/>
      <point x="410" y="425"/>
      <point x="335" y="500"/>
      <point x="230" y="500" type="curve"/>
      <point x="125" y="500"/>
      <point x="50" y="425"/>
      <point x="50" y="320" type="curve"/>
    </contour>
    <contour>
      <point x="230" y="410" type="curve"/>
      <point x="280" y="410"/>
      <point x="320" y="370"/>
      <point x="320" y="320" type="curve"/>
      <point x="320" y="280" type="line"/>
      <point x="140" y="280" type="line"/>
      <point x="140" y="320" type="line" smooth="yes"/>
      <point x="140" y="370"/>
      <point x="180" y="410"/>
    </contour>
  </outline>
</glyph>
<glyph name="f" format="1">
  <advance width="310"/>
  <unicode hex="0066"/>
  <outline>
    <contour>
      <point x="10" y="90" type="line" name="hr00"/>
      <point x="10" y="0" type="line"/>
      <point x="280" y="0" type="line"/>
      <point x="280" y="90" type="line"/>
      <point x="190" y="90" type="line"/>
      <point x="190" y="400" type="line"/>
      <point x="290" y="400" type="line"/>
      <point x="290" y="490" type="line"/>
      <point x="190" y="490" type="line"/>
      <point x="190" y="530" type="line" smooth="yes"/>
      <point x="190" y="575"/>
      <point x="225" y="610"/>
      <point x="270" y="610" type="curve" smooth="yes"/>
      <point x="320" y="610" type="line"/>
      <point x="320" y="700" type="line"/>
      <point x="270" y="700" type="line" smooth="yes"/>
      <point x="170" y="700"/>
      <point x="100" y="630"/>
      <point x="100" y="530" type="curve" smooth="yes"/>
      <point x="100" y="490" type="line"/>
      <point x="10" y="490" type="line"/>
      <point x="10" y="400" type="line"/>
      <point x="100" y="400" type="line"/>
      <point x="100" y="90" type="line"/>
    </contour>
  </outline>
</glyph>
<glyph name="g" format="1">
  <advance width="415"/>
  <unicode hex="0067"/>
  <outline>
    <contour>
      <point x="20" y="-55" type="curve" smooth="yes" name="hr00"/>
      <point x="20" y="-145"/>
      <point x="85" y="-210"/>
      <point x="180" y="-210" type="curve" smooth="yes"/>
      <point x="235" y="-210" type="line" smooth="yes"/>
      <point x="330" y="-210"/>
      <point x="395" y="-145"/>
      <point x="395" y="-55" type="curve" smooth="yes"/>
      <point x="395" y="35"/>
      <point x="330" y="100"/>
      <point x="235" y="100" type="curve" smooth="yes"/>
      <point x="165" y="100" type="line" smooth="yes"/>
      <point x="140" y="100"/>
      <point x="125" y="115"/>
      <point x="125" y="140" type="curve" smooth="yes"/>
      <point x="125" y="165"/>
      <point x="140" y="180"/>
      <point x="165" y="180" type="curve" smooth="yes"/>
      <point x="215" y="180" type="line" smooth="yes"/>
      <point x="310" y="180"/>
      <point x="375" y="245"/>
      <point x="375" y="335" type="curve" smooth="yes"/>
      <point x="375" y="370"/>
      <point x="356" y="400"/>
      <point x="356" y="400" type="curve"/>
      <point x="425" y="400" type="line"/>
      <point x="425" y="490" type="line"/>
      <point x="190" y="490" type="line" smooth="yes"/>
      <point x="95" y="490"/>
      <point x="30" y="425"/>
      <point x="30" y="335" type="curve" smooth="yes"/>
      <point x="30" y="260"/>
      <point x="85" y="220"/>
      <point x="85" y="220" type="curve"/>
      <point x="85" y="220"/>
      <point x="45" y="190"/>
      <point x="45" y="140" type="curve" smooth="yes"/>
      <point x="45" y="90"/>
      <point x="85" y="60"/>
      <point x="85" y="60" type="curve"/>
      <point x="85" y="60"/>
      <point x="20" y="20"/>
    </contour>
    <contour>
      <point x="190" y="270" type="line" smooth="yes"/>
      <point x="150" y="270"/>
      <point x="120" y="300"/>
      <point x="120" y="335" type="curve" smooth="yes"/>
      <point x="120" y="370"/>
      <point x="150" y="400"/>
      <point x="190" y="400" type="curve" smooth="yes"/>
      <point x="215" y="400" type="line" smooth="yes"/>
      <point x="255" y="400"/>
      <point x="285" y="370"/>
      <point x="285" y="335" type="curve" smooth="yes"/>
      <point x="285" y="300"/>
      <point x="255" y="270"/>
      <point x="215" y="270" type="curve" smooth="yes"/>
    </contour>
    <contour>
      <point x="235" y="10" type="line" smooth="yes"/>
      <point x="275" y="10"/>
      <point x="305" y="-20"/>
      <point x="305" y="-55" type="curve" smooth="yes"/>
      <point x="305" y="-90"/>
      <point x="275" y="-120"/>
      <point x="235" y="-120" type="curve" smooth="yes"/>
      <point x="180" y="-120" type="line" smooth="yes"/>
      <point x="140" y="-120"/>
      <point x="110" y="-90"/>
      <point x="110" y="-55" type="curve" smooth="yes"/>
      <point x="110" y="-20"/>
      <point x="140" y="10"/>
      <point x="180" y="10" type="curve" smooth="yes"/>
    </contour>
  </outline>
</glyph>
<glyph name="j" format="1">
  <advance width="250"/>
  <unicode hex="006A"/>
  <outline>
    <contour>
      <point x="180" y="700" type="line" name="hr00"/>
      <point x="90" y="700" type="line"/>
      <point x="90" y="600" type="line"/>
      <point x="180" y="600" type="line"/>
    </contour>
    <contour>
      <point x="90" y="-40" type="line" smooth="yes"/>
      <point x="90" y="-85"/>
      <point x="55" y="-120"/>
      <point x="10" y="-120" type="curve" smooth="yes"/>
      <point x="-40" y="-120" type="line"/>
      <point x="-40" y="-210" type="line"/>
      <point x="10" y="-210" type="line" smooth="yes"/>
      <point x="110" y="-210"/>
      <point x="180" y="-140"/>
      <point x="180" y="-40" type="curve" smooth="yes"/>
      <point x="180" y="490" type="line"/>
      <point x="20" y="490" type="line"/>
      <point x="20" y="400" type="line"/>
      <point x="90" y="400" type="line"/>
    </contour>
  </outline>
</glyph>
<glyph name="l" format="1">
  <advance width="240"/>
  <unicode hex="006C"/>
  <outline>
    <contour>
      <point x="170" y="700" type="line" name="hr00"/>
      <point x="10" y="700" type="line"/>
      <point x="10" y="610" type="line"/>
      <point x="80" y="610" type="line"/>
      <point x="80" y="0" type="line"/>
      <point x="170" y="0" type="line"/>
    </contour>
  </outline>
</glyph>
<glyph name="m" format="1">
  <advance width="760"/>
  <unicode hex="006D"/>
  <outline>
    <contour>
      <point x="170" y="490" type="line" name="hr00"/>
      <point x="10" y="490" type="line"/>
      <point x="10" y="400" type="line"/>
      <point x="80" y="400" type="line"/>
      <point x="80" y="0" type="line"/>
      <point x="170" y="0" type="line"/>
      <point x="170" y="360" type="line"/>
      <point x="170" y="360"/>
      <point x="210" y="410"/>
      <point x="265" y="410" type="curve" smooth="yes"/>
      <point x="305" y="410"/>
      <point x="340" y="375"/>
      <point x="340" y="330" type="curve" smooth="yes"/>
      <point x="340" y="0" type="line"/>
      <point x="430" y="0" type="line"/>
      <point x="430" y="360" type="line"/>
      <point x="430" y="360"/>
      <point x="470" y="410"/>
      <point x="525" y="410" type="curve" smooth="yes"/>
      <point x="565" y="410"/>
      <point x="600" y="375"/>
      <point x="600" y="330" type="curve" smooth="yes"/>
      <point x="600" y="0" type="line"/>
      <point x="690" y="0" type="line"/>
      <point x="690" y="330" type="line" smooth="yes"/>
      <point x="690" y="430"/>
      <point x="620" y="500"/>
      <point x="545" y="500" type="curve" smooth="yes"/>
      <point x="460" y="500"/>
      <point x="410" y="420"/>
      <point x="410" y="420" type="curve"/>
      <point x="410" y="420"/>
      <point x="370" y="500"/>
      <point x="285" y="500" type="curve" smooth="yes"/>
      <point x="210" y="500"/>
      <point x="171" y="443"/>
      <point x="170" y="440" type="curve"/>
    </contour>
  </outline>
</glyph>
<glyph name="n" format="1">
  <advance width="510"/>
  <unicode hex="006E"/>
  <outline>
    <contour>
      <point x="170" y="490" type="line" name="hr00"/>
      <point x="10" y="490" type="line"/>
      <point x="10" y="400" type="line"/>
      <point x="80" y="400" type="line"/>
      <point x="80" y="0" type="line"/>
      <point x="170" y="0" type="line"/>
      <point x="170" y="360" type="line"/>
      <point x="170" y="360"/>
      <point x="210" y="410"/>
      <point x="270" y="410" type="curve" smooth="yes"/>
      <point x="315" y="410"/>
      <point x="350" y="375"/>
      <point x="350" y="330" type="curve" smooth="yes"/>
      <point x="350" y="0" type="line"/>
      <point x="440" y="0" type="line"/>
      <point x="440" y="330" type="line" smooth="yes"/>
      <point x="440" y="430"/>
      <point x="370" y="500"/>
      <point x="290" y="500" type="curve" smooth="yes"/>
      <point x="210" y="500"/>
      <point x="170" y="440"/>
      <point x="170" y="440" type="curve"/>
    </contour>
  </outline>
</glyph>
<glyph name="q" format="1">
  <advance width="480"/>
  <unicode hex="0071"/>
  <outline>
    <contour>
      <point x="220" y="490" type="line" smooth="yes" name="hr00"/>
      <point x="120" y="490"/>
      <point x="50" y="420"/>
      <point x="50" y="320" type="curve" smooth="yes"/>
      <point x="50" y="170" type="line" smooth="yes"/>
      <point x="50" y="70"/>
      <point x="120" y="0"/>
      <point x="220" y="0" type="curve" smooth="yes"/>
      <point x="310" y="0" type="line"/>
      <point x="310" y="-210" type="line"/>
      <point x="400" y="-210" type="line"/>
      <point x="400" y="400" type="line"/>
      <point x="470" y="400" type="line"/>
      <point x="470" y="490" type="line"/>
    </contour>
    <contour>
      <point x="140" y="320" type="line" smooth="yes"/>
      <point x="140" y="365"/>
      <point x="175" y="400"/>
      <point x="220" y="400" type="curve" smooth="yes"/>
      <point x="310" y="400" type="line"/>
      <point x="310" y="90" type="line"/>
      <point x="220" y="90" type="line" smooth="yes"/>
      <point x="175" y="90"/>
      <point x="140" y="125"/>
      <point x="140" y="170" type="curve" smooth="yes"/>
    </contour>
  </outline>
</glyph>
<glyph name="r" format="1">
  <advance width="350"/>
  <unicode hex="0072"/>
  <outline>
    <contour>
      <point x="270" y="0" type="line" name="hr00"/>
      <point x="270" y="90" type="line"/>
      <point x="180" y="90" type="line"/>
      <point x="180" y="350" type="line"/>
      <point x="180" y="350"/>
      <point x="220" y="400"/>
      <point x="280" y="400" type="curve" smooth="yes"/>
      <point x="340" y="400" type="line"/>
      <point x="340" y="500" type="line"/>
      <point x="300" y="500" type="line" smooth="yes"/>
      <point x="220" y="500"/>
      <point x="180" y="440"/>
      <point x="180" y="440" type="curve"/>
      <point x="180" y="490" type="line"/>
      <point x="20" y="490" type="line"/>
      <point x="20" y="400" type="line"/>
      <point x="90" y="400" type="line"/>
      <point x="90" y="90" type="line"/>
      <point x="0" y="90" type="line"/>
      <point x="0" y="0" type="line"/>
    </contour>
  </outline>
</glyph>
<glyph name="t" format="1">
  <advance width="330"/>
  <unicode hex="0074"/>
  <outline>
    <contour>
      <point x="90" y="170" type="line" smooth="yes" name="hr00"/>
      <point x="90" y="70"/>
      <point x="160" y="0"/>
      <point x="260" y="0" type="curve" smooth="yes"/>
      <point x="310" y="0" type="line"/>
      <point x="310" y="90" type="line"/>
      <point x="260" y="90" type="line" smooth="yes"/>
      <point x="215" y="90"/>
      <point x="180" y="125"/>
      <point x="180" y="170" type="curve" smooth="yes"/>
      <point x="180" y="400" type="line"/>
      <point x="280" y="400" type="line"/>
      <point x="280" y="490" type="line"/>
      <point x="180" y="490" type="line"/>
      <point x="180" y="650" type="line"/>
      <point x="90" y="650" type="line"/>
      <point x="90" y="490" type="line"/>
      <point x="0" y="490" type="line"/>
      <point x="0" y="400" type="line"/>
      <point x="90" y="400" type="line"/>
    </contour>
  </outline>
</glyph>
<glyph name="u" format="1">
  <advance width="510"/>
  <unicode hex="0075"/>
  <outline>
    <contour>
      <point x="350" y="90" type="line" name="hr00"/>
      <point x="250" y="90" type="line" smooth="yes"/>
      <point x="205" y="90"/>
      <point x="170" y="125"/>
      <point x="170" y="170" type="curve" smooth="yes"/>
      <point x="170" y="490" type="line"/>
      <point x="10" y="490" type="line"/>
      <point x="10" y="400" type="line"/>
      <point x="80" y="400" type="line"/>
      <point x="80" y="170" type="line" smooth="yes"/>
      <point x="80" y="70"/>
      <point x="150" y="0"/>
      <point x="250" y="0" type="curve" smooth="yes"/>
      <point x="440" y="0" type="line"/>
      <point x="440" y="490" type="line"/>
      <point x="350" y="490" type="line"/>
    </contour>
  </outline>
</glyph>
<glyph name="v" format="1">
  <advance width="445"/>
  <unicode hex="0076"/>
  <outline>
    <contour>
      <point x="130" y="490" type="line" name="hr00"/>
      <point x="0" y="490" type="line"/>
      <point x="0" y="400" type="line"/>
      <point x="65" y="400" type="line"/>
      <point x="185" y="0" type="line"/>
      <point x="285" y="0" type="line"/>
      <point x="435" y="490" type="line"/>
      <point x="340" y="490" type="line"/>
      <point x="235" y="140" type="line"/>
    </contour>
  </outline>
</glyph>
<glyph name="w" format="1">
  <advance width="610"/>
  <unicode hex="0077"/>
  <outline>
    <contour>
      <point x="350" y="325" type="line" name="hr00"/>
      <point x="270" y="325" type="line"/>
      <point x="170" y="145" type="line"/>
      <point x="170" y="490" type="line"/>
      <point x="10" y="490" type="line"/>
      <point x="10" y="400" type="line"/>
      <point x="80" y="400" type="line"/>
      <point x="80" y="0" type="line"/>
      <point x="180" y="0" type="line"/>
      <point x="310" y="235" type="line"/>
      <point x="440" y="0" type="line"/>
      <point x="540" y="0" type="line"/>
      <point x="540" y="490" type="line"/>
      <point x="450" y="490" type="line"/>
      <point x="450" y="145" type="line"/>
    </contour>
  </outline>
</glyph>
<glyph name="z" format="1">
  <advance width="350"/>
  <unicode hex="007A"/>
  <outline>
    <contour>
      <point x="0" y="490" type="line" name="hr00"/>
      <point x="0" y="400" type="line"/>
      <point x="200" y="400" type="line"/>
      <point x="-10" y="0" type="line"/>
      <point x="340" y="0" type="line"/>
      <point x="340" y="90" type="line"/>
      <point x="140" y="90" type="line"/>
      <point x="350" y="490" type="line"/>
    </contour>
  </outline>
</glyph>
<glyph name="braceleft" format="1">
  <advance width="310"/>
  <unicode hex="007B"/>
  <outline>
    <contour>
      <point x="20" y="350" type="line" name="hr00"/>
      <point x="50" y="350" type="line" smooth="yes"/>
      <point x="80" y="350"/>
      <point x="100" y="370"/>
      <point x="100" y="400" type="curve" smooth="yes"/>
      <point x="100" y="600" type="line" smooth="yes"/>
      <point x="100" y="675"/>
      <point x="155" y="730"/>
      <point x="230" y="730" type="curve" smooth="yes"/>
      <point x="290" y="730" type="line"/>
      <point x="290" y="640" type="line"/>
      <point x="230" y="640" type="line" smooth="yes"/>
      <point x="205" y="640"/>
      <point x="190" y="625"/>
      <point x="190" y="600" type="curve" smooth="yes"/>
      <point x="190" y="400" type="line" smooth="yes"/>
      <point x="190" y="330"/>
      <point x="130" y="305"/>
      <point x="130" y="305" type="curve"/>
      <point x="130" y="305"/>
      <point x="190" y="280"/>
      <point x="190" y="210" type="curve" smooth="yes"/>
      <point x="190" y="10" type="line" smooth="yes"/>
      <point x="190" y="-15"/>
      <point x="205" y="-30"/>
      <point x="230" y="-30" type="curve" smooth="yes"/>
      <point x="290" y="-30" type="line"/>
      <point x="290" y="-120" type="line"/>
      <point x="230" y="-120" type="line" smooth="yes"/>
      <point x="155" y="-120"/>
      <point x="100" y="-65"/>
      <point x="100" y="10" type="curve" smooth="yes"/>
      <point x="100" y="210" type="line" smooth="yes"/>
      <point x="100" y="240"/>
      <point x="80" y="260"/>
      <point x="50" y="260" type="curve" smooth="yes"/>
      <point x="20" y="260" type="line"/>
    </contour>
  </outline>
</glyph>
<glyph name="bar" format="1">
  <advance width="270"/>
  <unicode hex="007C"/>
  <outline>
    <contour>
      <point x="90" y="-80" type="line" name="hr00"/>
      <point x="180" y="-80" type="line"/>
      <point x="180" y="780" type="line"/>
      <point x="90" y="780" type="line"/>
    </contour>
  </outline>
</glyph>
<glyph name="braceright" format="1">
  <advance width="310"/>
  <unicode hex="007D"/>
  <outline>
    <contour>
      <point x="290" y="260" type="line" name="hr00"/>
      <point x="260" y="260" type="line" smooth="yes"/>
      <point x="230" y="260"/>
      <point x="210" y="240"/>
      <point x="210" y="210" type="curve" smooth="yes"/>
      <point x="210" y="10" type="line" smooth="yes"/>
      <point x="210" y="-65"/>
      <point x="155" y="-120"/>
      <point x="80" y="-120" type="curve" smooth="yes"/>
      <point x="20" y="-120" type="line"/>
      <point x="20" y="-30" type="line"/>
      <point x="80" y="-30" type="line" smooth="yes"/>
      <point x="105" y="-30"/>
      <point x="120" y="-15"/>
      <point x="120" y="10" type="curve" smooth="yes"/>
      <point x="120" y="210" type="line" smooth="yes"/>
      <point x="120" y="280"/>
      <point x="180" y="305"/>
      <point x="180" y="305" type="curve"/>
      <point x="180" y="305"/>
      <point x="120" y="330"/>
      <point x="120" y="400" type="curve" smooth="yes"/>
      <point x="120" y="600" type="line" smooth="yes"/>
      <point x="120" y="625"/>
      <point x="105" y="640"/>
      <point x="80" y="640" type="curve" smooth="yes"/>
      <point x="20" y="640" type="line"/>
      <point x="20" y="730" type="line"/>
      <point x="80" y="730" type="line" smooth="yes"/>
      <point x="155" y="730"/>
      <point x="210" y="675"/>
      <point x="210" y="600" type="curve" smooth="yes"/>
      <point x="210" y="400" type="line" smooth="yes"/>
      <point x="210" y="370"/>
      <point x="230" y="350"/>
      <point x="260" y="350" type="curve" smooth="yes"/>
      <point x="290" y="350" type="line"/>
    </contour>
  </outline>
</glyph>
<glyph name="asciitilde" format="1">
  <advance width="460"/>
  <unicode hex="007E"/>
  <outline>
    <contour>
      <point x="310" y="210" type="curve" smooth="yes" name="hr00"/>
      <point x="370" y="210"/>
      <point x="420" y="260"/>
      <point x="420" y="340" type="curve" smooth="yes"/>
      <point x="420" y="370" type="line"/>
      <point x="340" y="370" type="line"/>
      <point x="340" y="340" type="line" smooth="yes"/>
      <point x="340" y="320"/>
      <point x="320" y="300"/>
      <point x="300" y="300" type="curve" smooth="yes"/>
      <point x="260" y="300"/>
      <point x="230" y="380"/>
      <point x="150" y="380" type="curve" smooth="yes"/>
      <point x="90" y="380"/>
      <point x="40" y="330"/>
      <point x="40" y="250" type="curve" smooth="yes"/>
      <point x="40" y="220" type="line"/>
      <point x="120" y="220" type="line"/>
      <point x="120" y="250" type="line" smooth="yes"/>
      <point x="120" y="270"/>
      <point x="140" y="290"/>
      <point x="160" y="290" type="curve" smooth="yes"/>
      <point x="200" y="290"/>
      <point x="230" y="210"/>
    </contour>
  </outline>
</glyph>
<glyph name="exclamdown" format="1">
  <advance width="230"/>
  <unicode hex="00A1"/>
  <outline>
    <contour>
      <point x="170" y="445" type="curve" name="hr00"/>
      <point x="170" y="415"/>
      <point x="145" y="390"/>
      <point x="115" y="390" type="curve" smooth="yes"/>
      <point x="85" y="390"/>
      <point x="60" y="415"/>
      <point x="60" y="445" type="curve" smooth="yes"/>
      <point x="60" y="475"/>
      <point x="85" y="500"/>
      <point x="115" y="500" type="curve" smooth="yes"/>
      <point x="145" y="500"/>
      <point x="170" y="475"/>
    </contour>
    <contour>
      <point x="70" y="300" type="line"/>
      <point x="70" y="-210" type="line"/>
      <point x="160" y="-210" type="line"/>
      <point x="160" y="300" type="line"/>
    </contour>
  </outline>
</glyph>
<glyph name="cent" format="1">
  <advance width="420"/>
  <unicode hex="00A2"/>
  <outline>
    <contour>
      <point x="50" y="175" type="line" smooth="yes" name="hr00"/>
      <point x="50" y="70"/>
      <point x="110" y="10"/>
      <point x="190" y="-5" type="curve"/>
      <point x="190" y="-80" type="line"/>
      <point x="280" y="-80" type="line"/>
      <point x="280" y="-5" type="line"/>
      <point x="370" y="10"/>
      <point x="400" y="95"/>
      <point x="400" y="95" type="curve"/>
      <point x="325" y="140" type="line"/>
      <point x="325" y="140"/>
      <point x="305" y="80"/>
      <point x="235" y="80" type="curve" smooth="yes"/>
      <point x="180" y="80"/>
      <point x="140" y="120"/>
      <point x="140" y="175" type="curve" smooth="yes"/>
      <point x="140" y="315" type="line" smooth="yes"/>
      <point x="140" y="370"/>
      <point x="180" y="410"/>
      <point x="235" y="410" type="curve" smooth="yes"/>
      <point x="305" y="410"/>
      <point x="325" y="350"/>
      <point x="325" y="350" type="curve"/>
      <point x="400" y="395" type="line"/>
      <point x="400" y="395"/>
      <point x="370" y="480"/>
      <point x="280" y="495" type="curve"/>
      <point x="280" y="570" type="line"/>
      <point x="190" y="570" type="line"/>
      <point x="190" y="495" type="line"/>
      <point x="110" y="480"/>
      <point x="50" y="420"/>
      <point x="50" y="315" type="curve"/>
    </contour>
  </outline>
</glyph>
<glyph name="sterling" format="1">
  <advance width="490"/>
  <unicode hex="00A3"/>
  <outline>
    <contour>
      <point x="430" y="555" type="line" name="hr00"/>
      <point x="430" y="640"/>
      <point x="360" y="710"/>
      <point x="275" y="710" type="curve"/>
      <point x="190" y="710"/>
      <point x="120" y="640"/>
      <point x="120" y="555" type="curve" smooth="yes"/>
      <point x="120" y="400" type="line"/>
      <point x="40" y="400" type="line"/>
      <point x="40" y="310" type="line"/>
      <point x="120" y="310" type="line"/>
      <point x="120" y="160" type="line" smooth="yes"/>
      <point x="120" y="120"/>
      <point x="90" y="90"/>
      <point x="60" y="90" type="curve" smooth="yes"/>
      <point x="30" y="90" type="line"/>
      <point x="30" y="0" type="line"/>
      <point x="450" y="0" type="line"/>
      <point x="450" y="90" type="line"/>
      <point x="180" y="90" type="line"/>
      <point x="180" y="90"/>
      <point x="210" y="110"/>
      <point x="210" y="160" type="curve"/>
      <point x="210" y="310" type="line"/>
      <point x="360" y="310" type="line"/>
      <point x="360" y="400" type="line"/>
      <point x="210" y="400" type="line"/>
      <point x="210" y="555" type="line" smooth="yes"/>
      <point x="210" y="595"/>
      <point x="235" y="620"/>
      <point x="275" y="620" type="curve" smooth="yes"/>
      <point x="315" y="620"/>
      <point x="340" y="595"/>
      <point x="340" y="555" type="curve"/>
      <point x="340" y="540" type="line"/>
      <point x="430" y="540" type="line"/>
    </contour>
  </outline>
</glyph>
<glyph name="yen" format="1">
  <advance width="495"/>
  <unicode hex="00A5"/>
  <outline>
    <contour>
      <point x="200" y="0" type="line" name="hr00"/>
      <point x="295" y="0" type="line"/>
      <point x="295" y="80" type="line"/>
      <point x="400" y="80" type="line"/>
      <point x="400" y="170" type="line"/>
      <point x="295" y="170" type="line"/>
      <point x="295" y="220" type="line"/>
      <point x="400" y="220" type="line"/>
      <point x="400" y="310" type="line"/>
      <point x="305" y="310" type="line"/>
      <point x="495" y="700" type="line"/>
      <point x="390" y="700" type="line"/>
      <point x="250" y="410" type="line"/>
      <point x="245" y="410" type="line"/>
      <point x="105" y="700" type="line"/>
      <point x="0" y="700" type="line"/>
      <point x="190" y="310" type="line"/>
      <point x="95" y="310" type="line"/>
      <point x="95" y="220" type="line"/>
      <point x="200" y="220" type="line"/>
      <point x="200" y="170" type="line"/>
      <point x="95" y="170" type="line"/>
      <point x="95" y="80" type="line"/>
      <point x="200" y="80" type="line"/>
    </contour>
  </outline>
</glyph>
<glyph name="section" format="1">
  <advance width="435"/>
  <unicode hex="00A7"/>
  <outline>
    <contour>
      <point x="395" y="325" type="curve" smooth="yes" name="hr00"/>
      <point x="395" y="500"/>
      <point x="185" y="505"/>
      <point x="185" y="585" type="curve" smooth="yes"/>
      <point x="185" y="605"/>
      <point x="205" y="625"/>
      <point x="225" y="625" type="curve" smooth="yes"/>
      <point x="250" y="625"/>
      <point x="265" y="605"/>
      <point x="265" y="605" type="curve"/>
      <point x="335" y="650" type="line"/>
      <point x="335" y="650"/>
      <point x="295" y="710"/>
      <point x="225" y="710" type="curve" smooth="yes"/>
      <point x="155" y="710"/>
      <point x="100" y="655"/>
      <point x="100" y="585" type="curve" smooth="yes"/>
      <point x="100" y="535"/>
      <point x="130" y="505"/>
      <point x="130" y="505" type="curve"/>
      <point x="130" y="505"/>
      <point x="40" y="460"/>
      <point x="40" y="375" type="curve" smooth="yes"/>
      <point x="40" y="200"/>
      <point x="250" y="195"/>
      <point x="250" y="115" type="curve" smooth="yes"/>
      <point x="250" y="95"/>
      <point x="230" y="75"/>
      <point x="210" y="75" type="curve" smooth="yes"/>
      <point x="185" y="75"/>
      <point x="170" y="95"/>
      <point x="170" y="95" type="curve"/>
      <point x="100" y="50" type="line"/>
      <point x="100" y="50"/>
      <point x="140" y="-10"/>
      <point x="210" y="-10" type="curve" smooth="yes"/>
      <point x="280" y="-10"/>
      <point x="335" y="45"/>
      <point x="335" y="115" type="curve" smooth="yes"/>
      <point x="335" y="165"/>
      <point x="305" y="195"/>
      <point x="305" y="195" type="curve"/>
      <point x="305" y="195"/>
      <point x="395" y="240"/>
    </contour>
    <contour>
      <point x="185" y="455" type="curve"/>
      <point x="185" y="455"/>
      <point x="310" y="410"/>
      <point x="310" y="325" type="curve" smooth="yes"/>
      <point x="310" y="270"/>
      <point x="250" y="245"/>
      <point x="250" y="245" type="curve"/>
      <point x="250" y="245"/>
      <point x="125" y="290"/>
      <point x="125" y="375" type="curve" smooth="yes"/>
      <point x="125" y="430"/>
    </contour>
  </outline>
</glyph>
<glyph name="dieresis" format="1">
  <advance width="310"/>
  <unicode hex="00A8"/>
  <outline>
    <contour>
      <point x="280" y="700" type="line" name="hr00"/>
      <point x="280" y="610" type="line"/>
      <point x="190" y="610" type="line"/>
      <point x="190" y="700" type="line"/>
    </contour>
    <contour>
      <point x="120" y="700" type="line"/>
      <point x="120" y="610" type="line"/>
      <point x="30" y="610" type="line"/>
      <point x="30" y="700" type="line"/>
    </contour>
  </outline>
</glyph>
<glyph name="copyright" format="1">
  <advance width="780"/>
  <unicode hex="00A9"/>
  <outline>
    <contour>
      <point x="50" y="340" type="curve" name="hr00"/>
      <point x="50" y="150"/>
      <point x="200" y="0"/>
      <point x="390" y="0" type="curve" smooth="yes"/>
      <point x="580" y="0"/>
      <point x="730" y="150"/>
      <point x="730" y="340" type="curve" smooth="yes"/>
      <point x="730" y="530"/>
      <point x="580" y="680"/>
      <point x="390" y="680" type="curve" smooth="yes"/>
      <point x="200" y="680"/>
      <point x="50" y="530"/>
    </contour>
    <contour>
      <point x="650" y="340" type="curve"/>
      <point x="650" y="200"/>
      <point x="530" y="80"/>
      <point x="390" y="80" type="curve" smooth="yes"/>
      <point x="250" y="80"/>
      <point x="130" y="200"/>
      <point x="130" y="340" type="curve" smooth="yes"/>
      <point x="130" y="480"/>
      <point x="250" y="600"/>
      <point x="390" y="600" type="curve" smooth="yes"/>
      <point x="530" y="600"/>
      <point x="650" y="480"/>
    </contour>
    <contour>
      <point x="325" y="340" type="curve"/>
      <point x="325" y="385"/>
      <point x="360" y="420"/>
      <point x="400" y="420" type="curve" smooth="yes"/>
      <point x="440" y="420"/>
      <point x="460" y="385"/>
      <point x="460" y="385" type="curve"/>
      <point x="530" y="425" type="line"/>
      <point x="530" y="425"/>
      <point x="490" y="500"/>
      <point x="400" y="500" type="curve" smooth="yes"/>
      <point x="315" y="500"/>
      <point x="245" y="430"/>
      <point x="245" y="340" type="curve"/>
      <point x="245" y="250"/>
      <point x="315" y="180"/>
      <point x="400" y="180" type="curve" smooth="yes"/>
      <point x="490" y="180"/>
      <point x="530" y="255"/>
      <point x="530" y="255" type="curve"/>
      <point x="460" y="295" type="line"/>
      <point x="460" y="295"/>
      <point x="440" y="260"/>
      <point x="400" y="260" type="curve" smooth="yes"/>
      <point x="360" y="260"/>
      <point x="325" y="295"/>
    </contour>
  </outline>
</glyph>
<glyph name="ordfeminine" format="1">
  <advance width="330"/>
  <unicode hex="00AA"/>
  <outline>
    <contour>
      <point x="135" y="585" type="line" smooth="yes" name="hr00"/>
      <point x="65" y="585"/>
      <point x="20" y="540"/>
      <point x="20" y="485" type="curve" smooth="yes"/>
      <point x="20" y="430"/>
      <point x="65" y="385"/>
      <point x="135" y="385" type="curve" smooth="yes"/>
      <point x="280" y="385" type="line"/>
      <point x="280" y="595" type="line" smooth="yes"/>
      <point x="280" y="655"/>
      <point x="235" y="700"/>
      <point x="165" y="700" type="curve" smooth="yes"/>
      <point x="70" y="700" type="line"/>
      <point x="70" y="620" type="line"/>
      <point x="165" y="620" type="line" smooth="yes"/>
      <point x="180" y="620"/>
      <point x="190" y="610"/>
      <point x="190" y="595" type="curve" smooth="yes"/>
      <point x="190" y="585" type="line"/>
    </contour>
    <contour>
      <point x="190" y="460" type="line"/>
      <point x="135" y="460" type="line" smooth="yes"/>
      <point x="120" y="460"/>
      <point x="110" y="470"/>
      <point x="110" y="485" type="curve" smooth="yes"/>
      <point x="110" y="500"/>
      <point x="120" y="510"/>
      <point x="135" y="510" type="curve" smooth="yes"/>
      <point x="190" y="510" type="line"/>
    </contour>
  </outline>
</glyph>
<glyph name="guillemotleft" format="1">
  <advance width="460"/>
  <unicode hex="00AB"/>
  <outline>
    <contour>
      <point x="150" y="40" type="line" name="hr00"/>
      <point x="250" y="40" type="line"/>
      <point x="130" y="240" type="line"/>
      <point x="250" y="440" type="line"/>
      <point x="150" y="440" type="line"/>
      <point x="30" y="240" type="line"/>
    </contour>
    <contour>
      <point x="330" y="40" type="line"/>
      <point x="430" y="40" type="line"/>
      <point x="310" y="240" type="line"/>
      <point x="430" y="440" type="line"/>
      <point x="330" y="440" type="line"/>
      <point x="210" y="240" type="line"/>
    </contour>
  </outline>
</glyph>
<glyph name="logicalnot" format="1">
  <advance width="430"/>
  <unicode hex="00AC"/>
  <outline>
    <contour>
      <point x="40" y="300" type="line" name="hr00"/>
      <point x="300" y="300" type="line"/>
      <point x="300" y="200" type="line"/>
      <point x="390" y="200" type="line"/>
      <point x="390" y="390" type="line"/>
      <point x="40" y="390" type="line"/>
    </contour>
  </outline>
</glyph>
<glyph name="registered" format="1">
  <advance width="780"/>
  <unicode hex="00AE"/>
  <outline>
    <contour>
      <point x="360" y="270" type="line" name="hr00"/>
      <point x="405" y="270" type="line"/>
      <point x="445" y="180" type="line"/>
      <point x="535" y="180" type="line"/>
      <point x="480" y="295" type="line"/>
      <point x="480" y="295"/>
      <point x="525" y="325"/>
      <point x="525" y="385" type="curve" smooth="yes"/>
      <point x="525" y="450"/>
      <point x="475" y="500"/>
      <point x="410" y="500" type="curve" smooth="yes"/>
      <point x="280" y="500" type="line"/>
      <point x="280" y="180" type="line"/>
      <point x="360" y="180" type="line"/>
    </contour>
    <contour>
      <point x="360" y="420" type="line"/>
      <point x="410" y="420" type="line" smooth="yes"/>
      <point x="430" y="420"/>
      <point x="445" y="405"/>
      <point x="445" y="385" type="curve" smooth="yes"/>
      <point x="445" y="365"/>
      <point x="430" y="350"/>
      <point x="410" y="350" type="curve" smooth="yes"/>
      <point x="360" y="350" type="line"/>
    </contour>
    <contour>
      <point x="50" y="340" type="curve" smooth="yes"/>
      <point x="50" y="150"/>
      <point x="200" y="0"/>
      <point x="390" y="0" type="curve" smooth="yes"/>
      <point x="580" y="0"/>
      <point x="730" y="150"/>
      <point x="730" y="340" type="curve" smooth="yes"/>
      <point x="730" y="530"/>
      <point x="580" y="680"/>
      <point x="390" y="680" type="curve" smooth="yes"/>
      <point x="200" y="680"/>
      <point x="50" y="530"/>
    </contour>
    <contour>
      <point x="650" y="340" type="curve" smooth="yes"/>
      <point x="650" y="200"/>
      <point x="530" y="80"/>
      <point x="390" y="80" type="curve" smooth="yes"/>
      <point x="250" y="80"/>
      <point x="130" y="200"/>
      <point x="130" y="340" type="curve" smooth="yes"/>
      <point x="130" y="480"/>
      <point x="250" y="600"/>
      <point x="390" y="600" type="curve" smooth="yes"/>
      <point x="530" y="600"/>
      <point x="650" y="480"/>
    </contour>
  </outline>
</glyph>
<glyph name="macron" format="1">
  <advance width="320"/>
  <unicode hex="00AF"/>
  <outline>
    <contour>
      <point x="290" y="700" type="line" name="hr00"/>
      <point x="30" y="700" type="line"/>
      <point x="30" y="615" type="line"/>
      <point x="290" y="615" type="line"/>
    </contour>
  </outline>
</glyph>
<glyph name="degree" format="1">
  <advance width="340"/>
  <unicode hex="00B0"/>
  <outline>
    <contour>
      <point x="300" y="570" type="curve" smooth="yes" name="hr00"/>
      <point x="300" y="640"/>
      <point x="240" y="700"/>
      <point x="170" y="700" type="curve" smooth="yes"/>
      <point x="100" y="700"/>
      <point x="40" y="640"/>
      <point x="40" y="570" type="curve" smooth="yes"/>
      <point x="40" y="500"/>
      <point x="100" y="440"/>
      <point x="170" y="440" type="curve" smooth="yes"/>
      <point x="240" y="440"/>
      <point x="300" y="500"/>
    </contour>
    <contour>
      <point x="215" y="570" type="curve"/>
      <point x="215" y="540"/>
      <point x="195" y="520"/>
      <point x="170" y="520" type="curve" smooth="yes"/>
      <point x="145" y="520"/>
      <point x="125" y="540"/>
      <point x="125" y="570" type="curve"/>
      <point x="125" y="600"/>
      <point x="145" y="620"/>
      <point x="170" y="620" type="curve" smooth="yes"/>
      <point x="195" y="620"/>
      <point x="215" y="600"/>
    </contour>
  </outline>
</glyph>
<glyph name="plusminus" format="1">
  <advance width="410"/>
  <unicode hex="00B1"/>
  <outline>
    <contour>
      <point x="370" y="150" type="line" name="hr00"/>
      <point x="250" y="150" type="line"/>
      <point x="250" y="280" type="line"/>
      <point x="370" y="280" type="line"/>
      <point x="370" y="370" type="line"/>
      <point x="250" y="370" type="line"/>
      <point x="250" y="500" type="line"/>
      <point x="160" y="500" type="line"/>
      <point x="160" y="370" type="line"/>
      <point x="40" y="370" type="line"/>
      <point x="40" y="280" type="line"/>
      <point x="160" y="280" type="line"/>
      <point x="160" y="150" type="line"/>
      <point x="40" y="150" type="line"/>
      <point x="40" y="60" type="line"/>
      <point x="370" y="60" type="line"/>
    </contour>
  </outline>
</glyph>
<glyph name="twosuperior" format="1">
  <advance width="300"/>
  <unicode hex="00B2"/>
  <outline>
    <contour>
      <point x="260" y="600" type="curve" smooth="yes" name="hr00"/>
      <point x="260" y="650"/>
      <point x="210" y="700"/>
      <point x="140" y="700" type="curve" smooth="yes"/>
      <point x="40" y="700" type="line"/>
      <point x="40" y="620" type="line"/>
      <point x="140" y="620" type="line" smooth="yes"/>
      <point x="160" y="620"/>
      <point x="170" y="610"/>
      <point x="170" y="590" type="curve" smooth="yes"/>
      <point x="170" y="550"/>
      <point x="30" y="535"/>
      <point x="30" y="535" type="curve"/>
      <point x="30" y="385" type="line"/>
      <point x="260" y="385" type="line"/>
      <point x="260" y="465" type="line"/>
      <point x="120" y="465" type="line"/>
      <point x="120" y="480" type="line"/>
      <point x="119" y="480"/>
      <point x="260" y="500"/>
    </contour>
  </outline>
</glyph>
<glyph name="threesuperior" format="1">
  <advance width="300"/>
  <unicode hex="00B3"/>
  <outline>
    <contour>
      <point x="160" y="620" type="line" name="hr00"/>
      <point x="80" y="570" type="line"/>
      <point x="80" y="505" type="line"/>
      <point x="145" y="505" type="line" smooth="yes"/>
      <point x="160" y="505"/>
      <point x="170" y="495"/>
      <point x="170" y="485" type="curve" smooth="yes"/>
      <point x="170" y="475"/>
      <point x="160" y="465"/>
      <point x="145" y="465" type="curve" smooth="yes"/>
      <point x="30" y="465" type="line"/>
      <point x="30" y="385" type="line"/>
      <point x="145" y="385" type="line" smooth="yes"/>
      <point x="220" y="385"/>
      <point x="260" y="425"/>
      <point x="260" y="485" type="curve" smooth="yes"/>
      <point x="260" y="555"/>
      <point x="170" y="570"/>
      <point x="170" y="570" type="curve"/>
      <point x="240" y="604" type="line"/>
      <point x="241" y="700" type="line"/>
      <point x="30" y="700" type="line"/>
      <point x="30" y="620" type="line"/>
    </contour>
  </outline>
</glyph>
<glyph name="acute" format="1">
  <advance width="230"/>
  <unicode hex="00B4"/>
  <outline>
    <contour>
      <point x="110" y="700" type="line" name="hr00"/>
      <point x="30" y="540" type="line"/>
      <point x="90" y="540" type="line"/>
      <point x="200" y="700" type="line"/>
    </contour>
  </outline>
</glyph>
<glyph name="mu" format="1">
  <advance width="540"/>
  <unicode hex="00B5"/>
  <outline>
    <contour>
      <point x="500" y="90" type="line" smooth="yes" name="hr00"/>
      <point x="465" y="90"/>
      <point x="440" y="115"/>
      <point x="440" y="150" type="curve" smooth="yes"/>
      <point x="440" y="490" type="line"/>
      <point x="350" y="490" type="line"/>
      <point x="350" y="140" type="line"/>
      <point x="350" y="140"/>
      <point x="310" y="90"/>
      <point x="250" y="90" type="curve" smooth="yes"/>
      <point x="205" y="90"/>
      <point x="170" y="125"/>
      <point x="170" y="170" type="curve" smooth="yes"/>
      <point x="170" y="490" type="line"/>
      <point x="80" y="490" type="line"/>
      <point x="80" y="-210" type="line"/>
      <point x="170" y="-210" type="line"/>
      <point x="170" y="20" type="line"/>
      <point x="170" y="20"/>
      <point x="200" y="0"/>
      <point x="250" y="0" type="curve" smooth="yes"/>
      <point x="340" y="0"/>
      <point x="390" y="60"/>
      <point x="390" y="60" type="curve"/>
      <point x="390" y="60"/>
      <point x="430" y="0"/>
      <point x="500" y="0" type="curve" smooth="yes"/>
      <point x="530" y="0" type="line"/>
      <point x="530" y="90" type="line"/>
    </contour>
  </outline>
</glyph>
<glyph name="paragraph" format="1">
  <advance width="570"/>
  <unicode hex="00B6"/>
  <outline>
    <contour>
      <point x="220" y="700" type="line" smooth="yes" name="hr00"/>
      <point x="120" y="700"/>
      <point x="20" y="600"/>
      <point x="20" y="490" type="curve" smooth="yes"/>
      <point x="20" y="380"/>
      <point x="120" y="280"/>
      <point x="220" y="280" type="curve"/>
      <point x="220" y="0" type="line"/>
      <point x="310" y="0" type="line"/>
      <point x="310" y="610" type="line"/>
      <point x="390" y="610" type="line"/>
      <point x="390" y="0" type="line"/>
      <point x="480" y="0" type="line"/>
      <point x="480" y="700" type="line"/>
    </contour>
  </outline>
</glyph>
<glyph name="periodcentered" format="1">
  <advance width="160"/>
  <unicode hex="00B7"/>
  <outline>
    <contour>
      <point x="135" y="350" type="curve" name="hr00"/>
      <point x="135" y="380"/>
      <point x="110" y="405"/>
      <point x="80" y="405" type="curve" smooth="yes"/>
      <point x="50" y="405"/>
      <point x="25" y="380"/>
      <point x="25" y="350" type="curve"/>
      <point x="25" y="320"/>
      <point x="50" y="295"/>
      <point x="80" y="295" type="curve"/>
      <point x="110" y="295"/>
      <point x="135" y="320"/>
    </contour>
  </outline>
</glyph>
<glyph name="cedilla" format="1">
  <advance width="220"/>
  <unicode hex="00B8"/>
  <outline>
    <contour>
      <point x="80" y="-100" type="line" smooth="yes" name="hr00"/>
      <point x="100" y="-100"/>
      <point x="115" y="-115"/>
      <point x="115" y="-130" type="curve" smooth="yes"/>
      <point x="115" y="-145"/>
      <point x="100" y="-160"/>
      <point x="80" y="-160" type="curve" smooth="yes"/>
      <point x="50" y="-160"/>
      <point x="30" y="-150"/>
      <point x="30" y="-150" type="curve"/>
      <point x="30" y="-220" type="line"/>
      <point x="30" y="-220"/>
      <point x="50" y="-230"/>
      <point x="80" y="-230" type="curve" smooth="yes"/>
      <point x="150" y="-230"/>
      <point x="190" y="-190"/>
      <point x="190" y="-130" type="curve" smooth="yes"/>
      <point x="190" y="-75"/>
      <point x="160" y="-45"/>
      <point x="110" y="-35" type="curve"/>
      <point x="120" y="0" type="line"/>
      <point x="80" y="0" type="line"/>
      <point x="50" y="-100" type="line"/>
    </contour>
  </outline>
</glyph>
<glyph name="onesuperior" format="1">
  <advance width="280"/>
  <unicode hex="00B9"/>
  <outline>
    <contour>
      <point x="30" y="465" type="line" name="hr00"/>
      <point x="30" y="385" type="line"/>
      <point x="250" y="385" type="line"/>
      <point x="250" y="465" type="line"/>
      <point x="185" y="465" type="line"/>
      <point x="185" y="700" type="line"/>
      <point x="30" y="700" type="line"/>
      <point x="30" y="620" type="line"/>
      <point x="95" y="620" type="line"/>
      <point x="95" y="465" type="line"/>
    </contour>
  </outline>
</glyph>
<glyph name="ordmasculine" format="1">
  <advance width="340"/>
  <unicode hex="00BA"/>
  <outline>
    <contour>
      <point x="220" y="520" type="line" smooth="yes" name="hr00"/>
      <point x="220" y="495"/>
      <point x="200" y="475"/>
      <point x="170" y="475" type="curve" smooth="yes"/>
      <point x="140" y="475"/>
      <point x="120" y="495"/>
      <point x="120" y="520" type="curve" smooth="yes"/>
      <point x="120" y="565" type="line" smooth="yes"/>
      <point x="120" y="590"/>
      <point x="140" y="610"/>
      <point x="170" y="610" type="curve" smooth="yes"/>
      <point x="200" y="610"/>
      <point x="220" y="590"/>
      <point x="220" y="565" type="curve" smooth="yes"/>
    </contour>
    <contour>
      <point x="310" y="565" type="line" smooth="yes"/>
      <point x="310" y="645"/>
      <point x="255" y="700"/>
      <point x="170" y="700" type="curve" smooth="yes"/>
      <point x="85" y="700"/>
      <point x="30" y="645"/>
      <point x="30" y="565" type="curve" smooth="yes"/>
      <point x="30" y="520" type="line" smooth="yes"/>
      <point x="30" y="440"/>
      <point x="85" y="385"/>
      <point x="170" y="385" type="curve" smooth="yes"/>
      <point x="255" y="385"/>
      <point x="310" y="440"/>
      <point x="310" y="520" type="curve" smooth="yes"/>
    </contour>
  </outline>
</glyph>
<glyph name="guillemotright" format="1">
  <advance width="460"/>
  <unicode hex="00BB"/>
  <outline>
    <contour>
      <point x="430" y="240" type="line" name="hr00"/>
      <point x="310" y="440" type="line"/>
      <point x="210" y="440" type="line"/>
      <point x="330" y="240" type="line"/>
      <point x="210" y="40" type="line"/>
      <point x="310" y="40" type="line"/>
    </contour>
    <contour>
      <point x="250" y="240" type="line"/>
      <point x="130" y="440" type="line"/>
      <point x="30" y="440" type="line"/>
      <point x="150" y="240" type="line"/>
      <point x="30" y="40" type="line"/>
      <point x="130" y="40" type="line"/>
    </contour>
  </outline>
</glyph>
<glyph name="onequarter" format="1">
  <advance width="695"/>
  <unicode hex="00BC"/>
  <outline>
    <contour>
      <point x="110" y="0" type="line" name="hr00"/>
      <point x="210" y="0" type="line"/>
      <point x="570" y="700" type="line"/>
      <point x="470" y="700" type="line"/>
    </contour>
    <contour>
      <point x="30" y="465" type="line"/>
      <point x="30" y="385" type="line"/>
      <point x="250" y="385" type="line"/>
      <point x="250" y="465" type="line"/>
      <point x="185" y="465" type="line"/>
      <point x="185" y="700" type="line"/>
      <point x="30" y="700" type="line"/>
      <point x="30" y="620" type="line"/>
      <point x="95" y="620" type="line"/>
      <point x="95" y="465" type="line"/>
    </contour>
    <contour>
      <point x="540" y="75" type="line"/>
      <point x="540" y="0" type="line"/>
      <point x="630" y="0" type="line"/>
      <point x="630" y="75" type="line"/>
      <point x="665" y="75" type="line"/>
      <point x="665" y="155" type="line"/>
      <point x="630" y="155" type="line"/>
      <point x="630" y="315" type="line"/>
      <point x="540" y="315" type="line"/>
      <point x="540" y="155" type="line"/>
      <point x="490" y="155" type="line"/>
      <point x="515" y="235" type="line"/>
      <point x="430" y="235" type="line"/>
      <point x="380" y="75" type="line"/>
    </contour>
  </outline>
</glyph>
<glyph name="onehalf" format="1">
  <advance width="690"/>
  <unicode hex="00BD"/>
  <outline>
    <contour>
      <point x="110" y="0" type="line" name="hr00"/>
      <point x="210" y="0" type="line"/>
      <point x="570" y="700" type="line"/>
      <point x="470" y="700" type="line"/>
    </contour>
    <contour>
      <point x="30" y="465" type="line"/>
      <point x="30" y="385" type="line"/>
      <point x="250" y="385" type="line"/>
      <point x="250" y="465" type="line"/>
      <point x="185" y="465" type="line"/>
      <point x="185" y="700" type="line"/>
      <point x="30" y="700" type="line"/>
      <point x="30" y="620" type="line"/>
      <point x="95" y="620" type="line"/>
      <point x="95" y="465" type="line"/>
    </contour>
    <contour>
      <point x="650" y="215" type="curve" smooth="yes"/>
      <point x="650" y="265"/>
      <point x="600" y="315"/>
      <point x="530" y="315" type="curve" smooth="yes"/>
      <point x="430" y="315" type="line"/>
      <point x="430" y="235" type="line"/>
      <point x="530" y="235" type="line" smooth="yes"/>
      <point x="550" y="235"/>
      <point x="560" y="225"/>
      <point x="560" y="205" type="curve" smooth="yes"/>
      <point x="560" y="165"/>
      <point x="420" y="150"/>
      <point x="420" y="150" type="curve"/>
      <point x="420" y="0" type="line"/>
      <point x="650" y="0" type="line"/>
      <point x="650" y="80" type="line"/>
      <point x="510" y="80" type="line"/>
      <point x="510" y="95" type="line"/>
      <point x="509" y="95"/>
      <point x="650" y="115"/>
    </contour>
  </outline>
</glyph>
<glyph name="threequarters" format="1">
  <advance width="705"/>
  <unicode hex="00BE"/>
  <outline>
    <contour>
      <point x="120" y="0" type="line" name="hr00"/>
      <point x="220" y="0" type="line"/>
      <point x="580" y="700" type="line"/>
      <point x="480" y="700" type="line"/>
    </contour>
    <contour>
      <point x="550" y="75" type="line"/>
      <point x="550" y="0" type="line"/>
      <point x="640" y="0" type="line"/>
      <point x="640" y="75" type="line"/>
      <point x="675" y="75" type="line"/>
      <point x="675" y="155" type="line"/>
      <point x="640" y="155" type="line"/>
      <point x="640" y="315" type="line"/>
      <point x="550" y="315" type="line"/>
      <point x="550" y="155" type="line"/>
      <point x="500" y="155" type="line"/>
      <point x="525" y="235" type="line"/>
      <point x="440" y="235" type="line"/>
      <point x="390" y="75" type="line"/>
    </contour>
    <contour>
      <point x="160" y="620" type="line"/>
      <point x="80" y="570" type="line"/>
      <point x="80" y="505" type="line"/>
      <point x="145" y="505" type="line" smooth="yes"/>
      <point x="160" y="505"/>
      <point x="170" y="495"/>
      <point x="170" y="485" type="curve" smooth="yes"/>
      <point x="170" y="475"/>
      <point x="160" y="465"/>
      <point x="145" y="465" type="curve" smooth="yes"/>
      <point x="30" y="465" type="line"/>
      <point x="30" y="385" type="line"/>
      <point x="145" y="385" type="line" smooth="yes"/>
      <point x="220" y="385"/>
      <point x="260" y="425"/>
      <point x="260" y="485" type="curve" smooth="yes"/>
      <point x="260" y="555"/>
      <point x="170" y="570"/>
      <point x="170" y="570" type="curve"/>
      <point x="240" y="604" type="line"/>
      <point x="241" y="700" type="line"/>
      <point x="30" y="700" type="line"/>
      <point x="30" y="620" type="line"/>
    </contour>
  </outline>
</glyph>
<glyph name="questiondown" format="1">
  <advance width="335"/>
  <unicode hex="00BF"/>
  <outline>
    <contour>
      <point x="20" y="-25" type="curve" name="hr00"/>
      <point x="20" y="-125"/>
      <point x="105" y="-210"/>
      <point x="215" y="-210" type="curve" smooth="yes"/>
      <point x="315" y="-210" type="line"/>
      <point x="315" y="-115" type="line"/>
      <point x="215" y="-115" type="line" smooth="yes"/>
      <point x="155" y="-115"/>
      <point x="115" y="-75"/>
      <point x="115" y="-25" type="curve" smooth="yes"/>
      <point x="115" y="70"/>
      <point x="260" y="90"/>
      <point x="260" y="240" type="curve" smooth="yes"/>
      <point x="260" y="300" type="line"/>
      <point x="170" y="300" type="line"/>
      <point x="170" y="240" type="line" smooth="yes"/>
      <point x="170" y="140"/>
      <point x="20" y="120"/>
    </contour>
    <contour>
      <point x="160" y="445" type="curve"/>
      <point x="160" y="475"/>
      <point x="185" y="500"/>
      <point x="215" y="500" type="curve" smooth="yes"/>
      <point x="245" y="500"/>
      <point x="270" y="475"/>
      <point x="270" y="445" type="curve" smooth="yes"/>
      <point x="270" y="415"/>
      <point x="245" y="390"/>
      <point x="215" y="390" type="curve" smooth="yes"/>
      <point x="185" y="390"/>
      <point x="160" y="415"/>
    </contour>
  </outline>
</glyph>
<glyph name="AE" format="1">
  <advance width="760"/>
  <unicode hex="00C6"/>
  <outline>
    <contour>
      <point x="80" y="0" type="line" name="hr00"/>
      <point x="135" y="185" type="line"/>
      <point x="350" y="185" type="line"/>
      <point x="350" y="0" type="line"/>
      <point x="740" y="0" type="line"/>
      <point x="740" y="95" type="line"/>
      <point x="445" y="95" type="line"/>
      <point x="445" y="305" type="line"/>
      <point x="650" y="305" type="line"/>
      <point x="650" y="400" type="line"/>
      <point x="445" y="400" type="line"/>
      <point x="445" y="605" type="line"/>
      <point x="740" y="605" type="line"/>
      <point x="740" y="700" type="line"/>
      <point x="190" y="700" type="line"/>
      <point x="-20" y="0" type="line"/>
    </contour>
    <contour>
      <point x="260" y="605" type="line"/>
      <point x="350" y="605" type="line"/>
      <point x="350" y="280" type="line"/>
      <point x="165" y="280" type="line"/>
    </contour>
  </outline>
</glyph>
<glyph name="Ccedilla" format="1">
  <advance width="525"/>
  <unicode hex="00C7"/>
  <outline>
    <contour>
      <point x="282" y="-100" type="line" smooth="yes" name="hr00"/>
      <point x="302" y="-100"/>
      <point x="317" y="-115"/>
      <point x="317" y="-130" type="curve" smooth="yes"/>
      <point x="317" y="-145"/>
      <point x="302" y="-160"/>
      <point x="282" y="-160" type="curve" smooth="yes"/>
      <point x="252" y="-160"/>
      <point x="232" y="-150"/>
      <point x="232" y="-150" type="curve"/>
      <point x="232" y="-220" type="line"/>
      <point x="232" y="-220"/>
      <point x="252" y="-230"/>
      <point x="282" y="-230" type="curve" smooth="yes"/>
      <point x="352" y="-230"/>
      <point x="392" y="-190"/>
      <point x="392" y="-130" type="curve" smooth="yes"/>
      <point x="392" y="-75"/>
      <point x="362" y="-45"/>
      <point x="312" y="-35" type="curve"/>
      <point x="319" y="-10" type="line"/>
      <point x="454" y="1"/>
      <point x="505" y="120"/>
      <point x="505" y="120" type="curve"/>
      <point x="425" y="170" type="line"/>
      <point x="425" y="170"/>
      <point x="395" y="85"/>
      <point x="300" y="85" type="curve" smooth="yes"/>
      <point x="225" y="85"/>
      <point x="165" y="145"/>
      <point x="165" y="220" type="curve" smooth="yes"/>
      <point x="165" y="480" type="line" smooth="yes"/>
      <point x="165" y="555"/>
      <point x="225" y="615"/>
      <point x="300" y="615" type="curve" smooth="yes"/>
      <point x="395" y="615"/>
      <point x="425" y="530"/>
      <point x="425" y="530" type="curve"/>
      <point x="505" y="580" type="line"/>
      <point x="505" y="580"/>
      <point x="450" y="710"/>
      <point x="300" y="710" type="curve" smooth="yes"/>
      <point x="170" y="710"/>
      <point x="70" y="610"/>
      <point x="70" y="480" type="curve" smooth="yes"/>
      <point x="70" y="220" type="line" smooth="yes"/>
      <point x="70" y="97"/>
      <point x="159" y="-1"/>
      <point x="279" y="-10" type="curve"/>
      <point x="252" y="-100" type="line"/>
    </contour>
  </outline>
</glyph>
<glyph name="multiply" format="1">
  <advance width="380"/>
  <unicode hex="00D7"/>
  <outline>
    <contour>
      <point x="255" y="305" type="line" name="hr00"/>
      <point x="340" y="215" type="line"/>
      <point x="280" y="150" type="line"/>
      <point x="190" y="245" type="line"/>
      <point x="100" y="150" type="line"/>
      <point x="40" y="215" type="line"/>
      <point x="125" y="305" type="line"/>
      <point x="40" y="395" type="line"/>
      <point x="100" y="460" type="line"/>
      <point x="190" y="365" type="line"/>
      <point x="280" y="460" type="line"/>
      <point x="340" y="395" type="line"/>
    </contour>
  </outline>
</glyph>
<glyph name="Thorn" format="1">
  <advance width="590"/>
  <unicode hex="00DE"/>
  <outline>
    <contour>
      <point x="90" y="0" type="line" name="hr00"/>
      <point x="185" y="0" type="line"/>
      <point x="185" y="135" type="line"/>
      <point x="340" y="135" type="line" smooth="yes"/>
      <point x="455" y="135"/>
      <point x="550" y="230"/>
      <point x="550" y="345" type="curve" smooth="yes"/>
      <point x="550" y="460"/>
      <point x="455" y="555"/>
      <point x="340" y="555" type="curve" smooth="yes"/>
      <point x="185" y="555" type="line"/>
      <point x="185" y="700" type="line"/>
      <point x="10" y="700" type="line"/>
      <point x="10" y="605" type="line"/>
      <point x="90" y="605" type="line"/>
    </contour>
    <contour>
      <point x="455" y="345" type="curve" smooth="yes"/>
      <point x="455" y="280"/>
      <point x="405" y="230"/>
      <point x="340" y="230" type="curve" smooth="yes"/>
      <point x="185" y="230" type="line"/>
      <point x="185" y="460" type="line"/>
      <point x="340" y="460" type="line" smooth="yes"/>
      <point x="405" y="460"/>
      <point x="455" y="410"/>
    </contour>
  </outline>
</glyph>
<glyph name="ae" format="1">
  <advance width="700"/>
  <unicode hex="00E6"/>
  <outline>
    <contour>
      <point x="180" y="0" type="curve" name="hr00"/>
      <point x="630" y="0" type="line"/>
      <point x="630" y="90" type="line"/>
      <point x="390" y="90" type="line"/>
      <point x="390" y="210" type="line"/>
      <point x="660" y="210" type="line"/>
      <point x="660" y="320" type="line" smooth="yes"/>
      <point x="660" y="425"/>
      <point x="585" y="500"/>
      <point x="480" y="500" type="curve" smooth="yes"/>
      <point x="390" y="500"/>
      <point x="345" y="440"/>
      <point x="345" y="440" type="curve"/>
      <point x="345" y="440"/>
      <point x="300" y="490"/>
      <point x="230" y="490" type="curve" smooth="yes"/>
      <point x="100" y="490" type="line"/>
      <point x="100" y="400" type="line"/>
      <point x="230" y="400" type="line" smooth="yes"/>
      <point x="270" y="400"/>
      <point x="300" y="370"/>
      <point x="300" y="330" type="curve" smooth="yes"/>
      <point x="300" y="295" type="line"/>
      <point x="180" y="295" type="line" smooth="yes"/>
      <point x="90" y="295"/>
      <point x="30" y="235"/>
      <point x="30" y="150" type="curve" smooth="yes"/>
      <point x="30" y="60"/>
      <point x="90" y="0"/>
    </contour>
    <contour>
      <point x="180" y="210" type="curve"/>
      <point x="300" y="210" type="line"/>
      <point x="300" y="90" type="line"/>
      <point x="180" y="90" type="line" smooth="yes"/>
      <point x="145" y="90"/>
      <point x="120" y="115"/>
      <point x="120" y="150" type="curve" smooth="yes"/>
      <point x="120" y="185"/>
      <point x="145" y="210"/>
    </contour>
    <contour>
      <point x="480" y="410" type="curve" smooth="yes"/>
      <point x="530" y="410"/>
      <point x="570" y="370"/>
      <point x="570" y="320" type="curve" smooth="yes"/>
      <point x="570" y="295" type="line"/>
      <point x="390" y="295" type="line"/>
      <point x="390" y="320" type="line" smooth="yes"/>
      <point x="390" y="370"/>
      <point x="430" y="410"/>
    </contour>
  </outline>
</glyph>
<glyph name="ccedilla" format="1">
  <advance width="420"/>
  <unicode hex="00E7"/>
  <outline>
    <contour>
      <point x="220" y="-100" type="line" smooth="yes" name="hr00"/>
      <point x="240" y="-100"/>
      <point x="255" y="-115"/>
      <point x="255" y="-130" type="curve" smooth="yes"/>
      <point x="255" y="-145"/>
      <point x="240" y="-160"/>
      <point x="220" y="-160" type="curve" smooth="yes"/>
      <point x="190" y="-160"/>
      <point x="170" y="-150"/>
      <point x="170" y="-150" type="curve"/>
      <point x="170" y="-220" type="line"/>
      <point x="170" y="-220"/>
      <point x="190" y="-230"/>
      <point x="220" y="-230" type="curve" smooth="yes"/>
      <point x="290" y="-230"/>
      <point x="330" y="-190"/>
      <point x="330" y="-130" type="curve" smooth="yes"/>
      <point x="330" y="-75"/>
      <point x="300" y="-45"/>
      <point x="250" y="-35" type="curve"/>
      <point x="257" y="-9" type="line"/>
      <point x="372" y="2"/>
      <point x="400" y="95"/>
      <point x="400" y="95" type="curve"/>
      <point x="325" y="140" type="line"/>
      <point x="325" y="140"/>
      <point x="305" y="80"/>
      <point x="235" y="80" type="curve" smooth="yes"/>
      <point x="180" y="80"/>
      <point x="140" y="120"/>
      <point x="140" y="175" type="curve" smooth="yes"/>
      <point x="140" y="315" type="line" smooth="yes"/>
      <point x="140" y="370"/>
      <point x="180" y="410"/>
      <point x="235" y="410" type="curve" smooth="yes"/>
      <point x="305" y="410"/>
      <point x="325" y="350"/>
      <point x="325" y="350" type="curve"/>
      <point x="400" y="395" type="line"/>
      <point x="400" y="395"/>
      <point x="370" y="500"/>
      <point x="235" y="500" type="curve" smooth="yes"/>
      <point x="125" y="500"/>
      <point x="50" y="425"/>
      <point x="50" y="315" type="curve" smooth="yes"/>
      <point x="50" y="175" type="line" smooth="yes"/>
      <point x="50" y="71"/>
      <point x="117" y="-1"/>
      <point x="217" y="-9" type="curve"/>
      <point x="190" y="-100" type="line"/>
    </contour>
  </outline>
</glyph>
<glyph name="eth" format="1">
  <advance width="480"/>
  <unicode hex="00F0"/>
  <outline>
    <contour>
      <point x="50" y="170" type="line" smooth="yes" name="hr00"/>
      <point x="50" y="65"/>
      <point x="125" y="-10"/>
      <point x="230" y="-10" type="curve" smooth="yes"/>
      <point x="335" y="-10"/>
      <point x="410" y="65"/>
      <point x="410" y="170" type="curve" smooth="yes"/>
      <point x="410" y="380" type="line" smooth="yes"/>
      <point x="410" y="490"/>
      <point x="370" y="595"/>
      <point x="370" y="595" type="curve"/>
      <point x="460" y="615" type="line"/>
      <point x="435" y="695" type="line"/>
      <point x="336" y="670" type="line"/>
      <point x="315" y="715"/>
      <point x="280" y="760"/>
      <point x="280" y="760" type="curve"/>
      <point x="190" y="740" type="line"/>
      <point x="190" y="740"/>
      <point x="225" y="700"/>
      <point x="250" y="650" type="curve"/>
      <point x="150" y="625" type="line"/>
      <point x="176" y="545" type="line"/>
      <point x="290" y="575" type="line"/>
      <point x="290" y="575"/>
      <point x="305" y="535"/>
      <point x="310" y="490" type="curve"/>
      <point x="230" y="490" type="line" smooth="yes"/>
      <point x="125" y="490"/>
      <point x="50" y="415"/>
      <point x="50" y="310" type="curve" smooth="yes"/>
    </contour>
    <contour>
      <point x="140" y="310" type="line" smooth="yes"/>
      <point x="140" y="360"/>
      <point x="180" y="400"/>
      <point x="230" y="400" type="curve" smooth="yes"/>
      <point x="320" y="400" type="line"/>
      <point x="320" y="170" type="line" smooth="yes"/>
      <point x="320" y="120"/>
      <point x="280" y="80"/>
      <point x="230" y="80" type="curve" smooth="yes"/>
      <point x="180" y="80"/>
      <point x="140" y="120"/>
      <point x="140" y="170" type="curve" smooth="yes"/>
    </contour>
  </outline>
</glyph>
<glyph name="divide" format="1">
  <advance width="410"/>
  <unicode hex="00F7"/>
  <outline>
    <contour>
      <point x="40" y="260" type="line" name="hr00"/>
      <point x="370" y="260" type="line"/>
      <point x="370" y="350" type="line"/>
      <point x="40" y="350" type="line"/>
    </contour>
    <contour>
      <point x="150" y="145" type="curve"/>
      <point x="150" y="115"/>
      <point x="175" y="90"/>
      <point x="205" y="90" type="curve" smooth="yes"/>
      <point x="235" y="90"/>
      <point x="260" y="115"/>
      <point x="260" y="145" type="curve" smooth="yes"/>
      <point x="260" y="175"/>
      <point x="235" y="200"/>
      <point x="205" y="200" type="curve" smooth="yes"/>
      <point x="175" y="200"/>
      <point x="150" y="175"/>
    </contour>
    <contour>
      <point x="150" y="465" type="curve"/>
      <point x="150" y="435"/>
      <point x="175" y="410"/>
      <point x="205" y="410" type="curve" smooth="yes"/>
      <point x="235" y="410"/>
      <point x="260" y="435"/>
      <point x="260" y="465" type="curve" smooth="yes"/>
      <point x="260" y="495"/>
      <point x="235" y="520"/>
      <point x="205" y="520" type="curve" smooth="yes"/>
      <point x="175" y="520"/>
      <point x="150" y="495"/>
    </contour>
  </outline>
</glyph>
<glyph name="Aogonek" format="1">
  <advance width="540"/>
  <unicode hex="0104"/>
  <outline>
    <contour>
      <point x="480" y="-100" type="curve" smooth="yes" name="hr00"/>
      <point x="480" y="-50"/>
      <point x="540" y="0"/>
      <point x="540" y="0" type="curve"/>
      <point x="320" y="700" type="line"/>
      <point x="220" y="700" type="line"/>
      <point x="0" y="0" type="line"/>
      <point x="100" y="0" type="line"/>
      <point x="155" y="170" type="line"/>
      <point x="385" y="170" type="line"/>
      <point x="440" y="0" type="line"/>
      <point x="490" y="0" type="line"/>
      <point x="490" y="0"/>
      <point x="410" y="-50"/>
      <point x="410" y="-130" type="curve" smooth="yes"/>
      <point x="410" y="-175"/>
      <point x="445" y="-210"/>
      <point x="500" y="-210" type="curve" smooth="yes"/>
      <point x="560" y="-210" type="line"/>
      <point x="560" y="-130" type="line"/>
      <point x="510" y="-130" type="line" smooth="yes"/>
      <point x="495" y="-130"/>
      <point x="480" y="-115"/>
    </contour>
    <contour>
      <point x="270" y="545" type="line"/>
      <point x="360" y="260" type="line"/>
      <point x="180" y="260" type="line"/>
    </contour>
  </outline>
</glyph>
<glyph name="aogonek" format="1">
  <advance width="460"/>
  <unicode hex="0105"/>
  <outline>
    <contour>
      <point x="180" y="0" type="curve" name="hr00"/>
      <point x="340" y="0" type="line"/>
      <point x="340" y="0"/>
      <point x="260" y="-50"/>
      <point x="260" y="-130" type="curve" smooth="yes"/>
      <point x="260" y="-175"/>
      <point x="295" y="-210"/>
      <point x="350" y="-210" type="curve" smooth="yes"/>
      <point x="410" y="-210" type="line"/>
      <point x="410" y="-130" type="line"/>
      <point x="360" y="-130" type="line" smooth="yes"/>
      <point x="345" y="-130"/>
      <point x="330" y="-115"/>
      <point x="330" y="-100" type="curve" smooth="yes"/>
      <point x="330" y="-50"/>
      <point x="390" y="0"/>
      <point x="390" y="0" type="curve"/>
      <point x="390" y="330" type="line" smooth="yes"/>
      <point x="390" y="425"/>
      <point x="325" y="490"/>
      <point x="230" y="490" type="curve" smooth="yes"/>
      <point x="100" y="490" type="line"/>
      <point x="100" y="400" type="line"/>
      <point x="230" y="400" type="line" smooth="yes"/>
      <point x="270" y="400"/>
      <point x="300" y="370"/>
      <point x="300" y="330" type="curve" smooth="yes"/>
      <point x="300" y="300" type="line"/>
      <point x="180" y="300" type="line" smooth="yes"/>
      <point x="90" y="300"/>
      <point x="30" y="240"/>
      <point x="30" y="150" type="curve" smooth="yes"/>
      <point x="30" y="60"/>
      <point x="90" y="0"/>
    </contour>
    <contour>
      <point x="180" y="210" type="curve"/>
      <point x="300" y="210" type="line"/>
      <point x="300" y="90" type="line"/>
      <point x="180" y="90" type="line" smooth="yes"/>
      <point x="145" y="90"/>
      <point x="120" y="115"/>
      <point x="120" y="150" type="curve" smooth="yes"/>
      <point x="120" y="185"/>
      <point x="145" y="210"/>
    </contour>
  </outline>
</glyph>
<glyph name="Dcroat" format="1">
  <advance width="595"/>
  <unicode hex="0110"/>
  <outline>
    <contour>
      <point x="120" y="95" type="line" name="hr00"/>
      <point x="40" y="95" type="line"/>
      <point x="40" y="0" type="line"/>
      <point x="305" y="0" type="line" smooth="yes"/>
      <point x="430" y="0"/>
      <point x="525" y="95"/>
      <point x="525" y="220" type="curve" smooth="yes"/>
      <point x="525" y="480" type="line" smooth="yes"/>
      <point x="525" y="605"/>
      <point x="430" y="700"/>
      <point x="305" y="700" type="curve" smooth="yes"/>
      <point x="40" y="700" type="line"/>
      <point x="40" y="605" type="line"/>
      <point x="120" y="605" type="line"/>
      <point x="120" y="405" type="line"/>
      <point x="40" y="405" type="line"/>
      <point x="40" y="310" type="line"/>
      <point x="120" y="310" type="line"/>
    </contour>
    <contour>
      <point x="215" y="605" type="line"/>
      <point x="305" y="605" type="line" smooth="yes"/>
      <point x="375" y="605"/>
      <point x="430" y="550"/>
      <point x="430" y="480" type="curve" smooth="yes"/>
      <point x="430" y="220" type="line" smooth="yes"/>
      <point x="430" y="150"/>
      <point x="375" y="95"/>
      <point x="305" y="95" type="curve" smooth="yes"/>
      <point x="215" y="95" type="line"/>
      <point x="215" y="310" type="line"/>
      <point x="300" y="310" type="line"/>
      <point x="300" y="405" type="line"/>
      <point x="215" y="405" type="line"/>
    </contour>
  </outline>
</glyph>
<glyph name="dcroat" format="1">
  <advance width="470"/>
  <unicode hex="0111"/>
  <outline>
    <contour>
      <point x="220" y="450" type="line" smooth="yes" name="hr00"/>
      <point x="120" y="450"/>
      <point x="50" y="380"/>
      <point x="50" y="280" type="curve" smooth="yes"/>
      <point x="50" y="170" type="line" smooth="yes"/>
      <point x="50" y="70"/>
      <point x="120" y="0"/>
      <point x="220" y="0" type="curve" smooth="yes"/>
      <point x="400" y="0" type="line"/>
      <point x="400" y="530" type="line"/>
      <point x="470" y="530" type="line"/>
      <point x="470" y="620" type="line"/>
      <point x="400" y="620" type="line"/>
      <point x="400" y="700" type="line"/>
      <point x="310" y="700" type="line"/>
      <point x="310" y="620" type="line"/>
      <point x="180" y="620" type="line"/>
      <point x="180" y="530" type="line"/>
      <point x="310" y="530" type="line"/>
      <point x="310" y="450" type="line"/>
    </contour>
    <contour>
      <point x="140" y="280" type="line" smooth="yes"/>
      <point x="140" y="325"/>
      <point x="175" y="360"/>
      <point x="220" y="360" type="curve" smooth="yes"/>
      <point x="310" y="360" type="line"/>
      <point x="310" y="90" type="line"/>
      <point x="220" y="90" type="line" smooth="yes"/>
      <point x="175" y="90"/>
      <point x="140" y="125"/>
      <point x="140" y="170" type="curve" smooth="yes"/>
    </contour>
  </outline>
</glyph>
<glyph name="Eogonek" format="1">
  <advance width="530"/>
  <unicode hex="0118"/>
  <outline>
    <contour>
      <point x="290" y="-100" type="curve" smooth="yes" name="hr00"/>
      <point x="290" y="-50"/>
      <point x="350" y="0"/>
      <point x="350" y="0" type="curve"/>
      <point x="510" y="0" type="line"/>
      <point x="510" y="95" type="line"/>
      <point x="185" y="95" type="line"/>
      <point x="185" y="305" type="line"/>
      <point x="420" y="305" type="line"/>
      <point x="420" y="400" type="line"/>
      <point x="185" y="400" type="line"/>
      <point x="185" y="605" type="line"/>
      <point x="510" y="605" type="line"/>
      <point x="510" y="700" type="line"/>
      <point x="90" y="700" type="line"/>
      <point x="90" y="0" type="line"/>
      <point x="300" y="0" type="line"/>
      <point x="300" y="0"/>
      <point x="220" y="-50"/>
      <point x="220" y="-130" type="curve" smooth="yes"/>
      <point x="220" y="-175"/>
      <point x="255" y="-210"/>
      <point x="310" y="-210" type="curve" smooth="yes"/>
      <point x="370" y="-210" type="line"/>
      <point x="370" y="-130" type="line"/>
      <point x="320" y="-130" type="line" smooth="yes"/>
      <point x="305" y="-130"/>
      <point x="290" y="-115"/>
    </contour>
  </outline>
</glyph>
<glyph name="eogonek" format="1">
  <advance width="450"/>
  <unicode hex="0119"/>
  <outline>
    <contour>
      <point x="230" y="-100" type="curve" smooth="yes" name="hr00"/>
      <point x="230" y="-50"/>
      <point x="290" y="0"/>
      <point x="290" y="0" type="curve"/>
      <point x="380" y="0" type="line"/>
      <point x="380" y="90" type="line"/>
      <point x="220" y="90" type="line" smooth="yes"/>
      <point x="175" y="90"/>
      <point x="140" y="125"/>
      <point x="140" y="170" type="curve" smooth="yes"/>
      <point x="140" y="195" type="line"/>
      <point x="410" y="195" type="line"/>
      <point x="410" y="320" type="line" smooth="yes"/>
      <point x="410" y="425"/>
      <point x="335" y="500"/>
      <point x="230" y="500" type="curve" smooth="yes"/>
      <point x="125" y="500"/>
      <point x="50" y="425"/>
      <point x="50" y="320" type="curve" smooth="yes"/>
      <point x="50" y="170" type="line" smooth="yes"/>
      <point x="50" y="70"/>
      <point x="120" y="0"/>
      <point x="220" y="0" type="curve" smooth="yes"/>
      <point x="240" y="0" type="line"/>
      <point x="240" y="0"/>
      <point x="160" y="-50"/>
      <point x="160" y="-130" type="curve" smooth="yes"/>
      <point x="160" y="-175"/>
      <point x="195" y="-210"/>
      <point x="250" y="-210" type="curve" smooth="yes"/>
      <point x="310" y="-210" type="line"/>
      <point x="310" y="-130" type="line"/>
      <point x="260" y="-130" type="line" smooth="yes"/>
      <point x="245" y="-130"/>
      <point x="230" y="-115"/>
    </contour>
    <contour>
      <point x="230" y="410" type="curve" smooth="yes"/>
      <point x="280" y="410"/>
      <point x="320" y="370"/>
      <point x="320" y="320" type="curve" smooth="yes"/>
      <point x="320" y="280" type="line"/>
      <point x="140" y="280" type="line"/>
      <point x="140" y="320" type="line" smooth="yes"/>
      <point x="140" y="370"/>
      <point x="180" y="410"/>
    </contour>
  </outline>
</glyph>
<glyph name="gcommaaccent" format="1">
  <advance width="415"/>
  <unicode hex="0123"/>
  <outline>
    <contour>
      <point x="160" y="570" type="line" name="hr00"/>
      <point x="260" y="570" type="line"/>
      <point x="260" y="660" type="line"/>
      <point x="310" y="770" type="line"/>
      <point x="260" y="770" type="line"/>
      <point x="160" y="650" type="line"/>
    </contour>
    <component base="g"/>
  </outline>
</glyph>
<glyph name="Iogonek" format="1">
  <advance width="365"/>
  <unicode hex="012E"/>
  <outline>
    <contour>
      <point x="170" y="-100" type="curve" smooth="yes" name="hr00"/>
      <point x="170" y="-50"/>
      <point x="230" y="0"/>
      <point x="230" y="0" type="curve"/>
      <point x="355" y="0" type="line"/>
      <point x="355" y="95" type="line"/>
      <point x="230" y="95" type="line"/>
      <point x="230" y="605" type="line"/>
      <point x="355" y="605" type="line"/>
      <point x="355" y="700" type="line"/>
      <point x="10" y="700" type="line"/>
      <point x="10" y="605" type="line"/>
      <point x="135" y="605" type="line"/>
      <point x="135" y="95" type="line"/>
      <point x="10" y="95" type="line"/>
      <point x="10" y="0" type="line"/>
      <point x="180" y="0" type="line"/>
      <point x="180" y="0"/>
      <point x="100" y="-50"/>
      <point x="100" y="-130" type="curve" smooth="yes"/>
      <point x="100" y="-175"/>
      <point x="135" y="-210"/>
      <point x="190" y="-210" type="curve" smooth="yes"/>
      <point x="250" y="-210" type="line"/>
      <point x="250" y="-130" type="line"/>
      <point x="200" y="-130" type="line" smooth="yes"/>
      <point x="185" y="-130"/>
      <point x="170" y="-115"/>
    </contour>
  </outline>
</glyph>
<glyph name="iogonek" format="1">
  <advance width="280"/>
  <unicode hex="012F"/>
  <outline>
    <contour>
      <point x="130" y="-100" type="curve" smooth="yes" name="hr00"/>
      <point x="130" y="-50"/>
      <point x="190" y="0"/>
      <point x="190" y="0" type="curve"/>
      <point x="280" y="0" type="line"/>
      <point x="280" y="90" type="line"/>
      <point x="190" y="90" type="line"/>
      <point x="190" y="490" type="line"/>
      <point x="30" y="490" type="line"/>
      <point x="30" y="400" type="line"/>
      <point x="100" y="400" type="line"/>
      <point x="100" y="90" type="line"/>
      <point x="10" y="90" type="line"/>
      <point x="10" y="0" type="line"/>
      <point x="140" y="0" type="line"/>
      <point x="140" y="0"/>
      <point x="60" y="-50"/>
      <point x="60" y="-130" type="curve" smooth="yes"/>
      <point x="60" y="-175"/>
      <point x="95" y="-210"/>
      <point x="150" y="-210" type="curve" smooth="yes"/>
      <point x="210" y="-210" type="line"/>
      <point x="210" y="-130" type="line"/>
      <point x="160" y="-130" type="line" smooth="yes"/>
      <point x="145" y="-130"/>
      <point x="130" y="-115"/>
    </contour>
    <contour>
      <point x="190" y="700" type="line"/>
      <point x="100" y="700" type="line"/>
      <point x="100" y="600" type="line"/>
      <point x="190" y="600" type="line"/>
    </contour>
  </outline>
</glyph>
<glyph name="Lslash" format="1">
  <advance width="530"/>
  <unicode hex="0141"/>
  <outline>
    <contour>
      <point x="20" y="310" type="line" name="hr00"/>
      <point x="20" y="200" type="line"/>
      <point x="100" y="265" type="line"/>
      <point x="100" y="0" type="line"/>
      <point x="510" y="0" type="line"/>
      <point x="510" y="180" type="line"/>
      <point x="415" y="180" type="line"/>
      <point x="415" y="95" type="line"/>
      <point x="195" y="95" type="line"/>
      <point x="195" y="340" type="line"/>
      <point x="285" y="415" type="line"/>
      <point x="285" y="525" type="line"/>
      <point x="195" y="450" type="line"/>
      <point x="195" y="700" type="line"/>
      <point x="100" y="700" type="line"/>
      <point x="100" y="375" type="line"/>
    </contour>
  </outline>
</glyph>
<glyph name="lslash" format="1">
  <advance width="280"/>
  <unicode hex="0142"/>
  <outline>
    <contour>
      <point x="10" y="310" type="line" name="hr00"/>
      <point x="10" y="200" type="line"/>
      <point x="90" y="265" type="line"/>
      <point x="90" y="0" type="line"/>
      <point x="180" y="0" type="line"/>
      <point x="180" y="335" type="line"/>
      <point x="270" y="410" type="line"/>
      <point x="270" y="520" type="line"/>
      <point x="180" y="445" type="line"/>
      <point x="180" y="700" type="line"/>
      <point x="20" y="700" type="line"/>
      <point x="20" y="610" type="line"/>
      <point x="90" y="610" type="line"/>
      <point x="90" y="375" type="line"/>
    </contour>
  </outline>
</glyph>
<glyph name="OE" format="1">
  <advance width="790"/>
  <unicode hex="0152"/>
  <outline>
    <contour>
      <point x="475" y="605" type="line" name="hr00"/>
      <point x="770" y="605" type="line"/>
      <point x="770" y="700" type="line"/>
      <point x="290" y="700" type="line" smooth="yes"/>
      <point x="165" y="700"/>
      <point x="70" y="605"/>
      <point x="70" y="480" type="curve" smooth="yes"/>
      <point x="70" y="220" type="line" smooth="yes"/>
      <point x="70" y="95"/>
      <point x="165" y="0"/>
      <point x="290" y="0" type="curve" smooth="yes"/>
      <point x="770" y="0" type="line"/>
      <point x="770" y="95" type="line"/>
      <point x="475" y="95" type="line"/>
      <point x="475" y="305" type="line"/>
      <point x="680" y="305" type="line"/>
      <point x="680" y="400" type="line"/>
      <point x="475" y="400" type="line"/>
    </contour>
    <contour>
      <point x="380" y="95" type="line"/>
      <point x="290" y="95" type="line" smooth="yes"/>
      <point x="220" y="95"/>
      <point x="165" y="150"/>
      <point x="165" y="220" type="curve" smooth="yes"/>
      <point x="165" y="480" type="line" smooth="yes"/>
      <point x="165" y="550"/>
      <point x="220" y="605"/>
      <point x="290" y="605" type="curve" smooth="yes"/>
      <point x="380" y="605" type="line"/>
    </contour>
  </outline>
</glyph>
<glyph name="oe" format="1">
  <advance width="730"/>
  <unicode hex="0153"/>
  <outline>
    <contour>
      <point x="235" y="500" type="curve" smooth="yes" name="hr00"/>
      <point x="125" y="500"/>
      <point x="50" y="425"/>
      <point x="50" y="315" type="curve" smooth="yes"/>
      <point x="50" y="175" type="line" smooth="yes"/>
      <point x="50" y="65"/>
      <point x="125" y="-10"/>
      <point x="235" y="-10" type="curve" smooth="yes"/>
      <point x="330" y="-10"/>
      <point x="375" y="50"/>
      <point x="375" y="50" type="curve"/>
      <point x="375" y="50"/>
      <point x="420" y="0"/>
      <point x="500" y="0" type="curve" smooth="yes"/>
      <point x="660" y="0" type="line"/>
      <point x="660" y="90" type="line"/>
      <point x="500" y="90" type="line" smooth="yes"/>
      <point x="455" y="90"/>
      <point x="420" y="125"/>
      <point x="420" y="170" type="curve" smooth="yes"/>
      <point x="420" y="195" type="line"/>
      <point x="690" y="195" type="line"/>
      <point x="690" y="320" type="line" smooth="yes"/>
      <point x="690" y="425"/>
      <point x="615" y="500"/>
      <point x="510" y="500" type="curve" smooth="yes"/>
      <point x="420" y="500"/>
      <point x="375" y="440"/>
      <point x="375" y="440" type="curve"/>
      <point x="375" y="440"/>
      <point x="330" y="500"/>
    </contour>
    <contour>
      <point x="140" y="315" type="line" smooth="yes"/>
      <point x="140" y="370"/>
      <point x="180" y="410"/>
      <point x="235" y="410" type="curve" smooth="yes"/>
      <point x="290" y="410"/>
      <point x="330" y="370"/>
      <point x="330" y="315" type="curve" smooth="yes"/>
      <point x="330" y="175" type="line" smooth="yes"/>
      <point x="330" y="120"/>
      <point x="290" y="80"/>
      <point x="235" y="80" type="curve" smooth="yes"/>
      <point x="180" y="80"/>
      <point x="140" y="120"/>
      <point x="140" y="175" type="curve" smooth="yes"/>
    </contour>
    <contour>
      <point x="510" y="410" type="curve" smooth="yes"/>
      <point x="560" y="410"/>
      <point x="600" y="370"/>
      <point x="600" y="320" type="curve" smooth="yes"/>
      <point x="600" y="280" type="line"/>
      <point x="420" y="280" type="line"/>
      <point x="420" y="320" type="line" smooth="yes"/>
      <point x="420" y="370"/>
      <point x="460" y="410"/>
    </contour>
  </outline>
</glyph>
<glyph name="Scedilla" format="1">
  <advance width="510"/>
  <unicode hex="015E"/>
  <outline>
    <contour>
      <point x="225" y="-100" type="line" smooth="yes" name="hr00"/>
      <point x="245" y="-100"/>
      <point x="260" y="-115"/>
      <point x="260" y="-130" type="curve" smooth="yes"/>
      <point x="260" y="-145"/>
      <point x="245" y="-160"/>
      <point x="225" y="-160" type="curve" smooth="yes"/>
      <point x="195" y="-160"/>
      <point x="175" y="-150"/>
      <point x="175" y="-150" type="curve"/>
      <point x="175" y="-220" type="line"/>
      <point x="175" y="-220"/>
      <point x="195" y="-230"/>
      <point x="225" y="-230" type="curve" smooth="yes"/>
      <point x="295" y="-230"/>
      <point x="335" y="-190"/>
      <point x="335" y="-130" type="curve" smooth="yes"/>
      <point x="335" y="-75"/>
      <point x="305" y="-45"/>
      <point x="255" y="-35" type="curve"/>
      <point x="264" y="0" type="line"/>
      <point x="265" y="0" type="line"/>
      <point x="380" y="0"/>
      <point x="470" y="90"/>
      <point x="470" y="205" type="curve" smooth="yes"/>
      <point x="470" y="420"/>
      <point x="135" y="370"/>
      <point x="135" y="505" type="curve" smooth="yes"/>
      <point x="135" y="565"/>
      <point x="175" y="605"/>
      <point x="235" y="605" type="curve" smooth="yes"/>
      <point x="430" y="605" type="line"/>
      <point x="430" y="700" type="line"/>
      <point x="235" y="700" type="line" smooth="yes"/>
      <point x="125" y="700"/>
      <point x="40" y="615"/>
      <point x="40" y="505" type="curve" smooth="yes"/>
      <point x="40" y="290"/>
      <point x="375" y="340"/>
      <point x="375" y="205" type="curve" smooth="yes"/>
      <point x="375" y="140"/>
      <point x="330" y="95"/>
      <point x="265" y="95" type="curve" smooth="yes"/>
      <point x="50" y="95" type="line"/>
      <point x="50" y="0" type="line"/>
      <point x="225" y="0" type="line"/>
      <point x="195" y="-100" type="line"/>
    </contour>
  </outline>
</glyph>
<glyph name="scedilla" format="1">
  <advance width="400"/>
  <unicode hex="015F"/>
  <outline>
    <contour>
      <point x="170" y="-100" type="line" smooth="yes" name="hr00"/>
      <point x="190" y="-100"/>
      <point x="205" y="-115"/>
      <point x="205" y="-130" type="curve" smooth="yes"/>
      <point x="205" y="-145"/>
      <point x="190" y="-160"/>
      <point x="170" y="-160" type="curve" smooth="yes"/>
      <point x="140" y="-160"/>
      <point x="120" y="-150"/>
      <point x="120" y="-150" type="curve"/>
      <point x="120" y="-220" type="line"/>
      <point x="120" y="-220"/>
      <point x="140" y="-230"/>
      <point x="170" y="-230" type="curve" smooth="yes"/>
      <point x="240" y="-230"/>
      <point x="280" y="-190"/>
      <point x="280" y="-130" type="curve" smooth="yes"/>
      <point x="280" y="-75"/>
      <point x="250" y="-45"/>
      <point x="200" y="-35" type="curve"/>
      <point x="210" y="0" type="line"/>
      <point x="220" y="0" type="line" smooth="yes"/>
      <point x="310" y="0"/>
      <point x="370" y="60"/>
      <point x="370" y="150" type="curve" smooth="yes"/>
      <point x="370" y="305"/>
      <point x="120" y="270"/>
      <point x="120" y="345" type="curve" smooth="yes"/>
      <point x="120" y="375"/>
      <point x="145" y="400"/>
      <point x="175" y="400" type="curve" smooth="yes"/>
      <point x="340" y="400" type="line"/>
      <point x="340" y="490" type="line"/>
      <point x="175" y="490" type="line" smooth="yes"/>
      <point x="90" y="490"/>
      <point x="30" y="430"/>
      <point x="30" y="345" type="curve" smooth="yes"/>
      <point x="30" y="190"/>
      <point x="280" y="225"/>
      <point x="280" y="150" type="curve" smooth="yes"/>
      <point x="280" y="115"/>
      <point x="255" y="90"/>
      <point x="220" y="90" type="curve" smooth="yes"/>
      <point x="40" y="90" type="line"/>
      <point x="40" y="0" type="line"/>
      <point x="170" y="0" type="line"/>
      <point x="140" y="-100" type="line"/>
    </contour>
  </outline>
</glyph>
<glyph name="Uogonek" format="1">
  <advance width="630"/>
  <unicode hex="0172"/>
  <outline>
    <contour>
      <point x="310" y="-100" type="curve" smooth="yes" name="hr00"/>
      <point x="310" y="-59"/>
      <point x="348" y="-19"/>
      <point x="363" y="-6" type="curve"/>
      <point x="471" y="13"/>
      <point x="550" y="105"/>
      <point x="550" y="220" type="curve" smooth="yes"/>
      <point x="550" y="700" type="line"/>
      <point x="455" y="700" type="line"/>
      <point x="455" y="220" type="line" smooth="yes"/>
      <point x="455" y="145"/>
      <point x="395" y="85"/>
      <point x="320" y="85" type="curve" smooth="yes"/>
      <point x="245" y="85"/>
      <point x="185" y="145"/>
      <point x="185" y="220" type="curve" smooth="yes"/>
      <point x="185" y="700" type="line"/>
      <point x="10" y="700" type="line"/>
      <point x="10" y="605" type="line"/>
      <point x="90" y="605" type="line"/>
      <point x="90" y="220" type="line" smooth="yes"/>
      <point x="90" y="94"/>
      <point x="183" y="-3"/>
      <point x="306" y="-10" type="curve"/>
      <point x="283" y="-28"/>
      <point x="240" y="-71"/>
      <point x="240" y="-130" type="curve" smooth="yes"/>
      <point x="240" y="-175"/>
      <point x="275" y="-210"/>
      <point x="330" y="-210" type="curve" smooth="yes"/>
      <point x="390" y="-210" type="line"/>
      <point x="390" y="-130" type="line"/>
      <point x="340" y="-130" type="line" smooth="yes"/>
      <point x="325" y="-130"/>
      <point x="310" y="-115"/>
    </contour>
  </outline>
</glyph>
<glyph name="uogonek" format="1">
  <advance width="510"/>
  <unicode hex="0173"/>
  <outline>
    <contour>
      <point x="380" y="-100" type="curve" smooth="yes" name="hr00"/>
      <point x="380" y="-50"/>
      <point x="440" y="0"/>
      <point x="440" y="0" type="curve"/>
      <point x="440" y="490" type="line"/>
      <point x="350" y="490" type="line"/>
      <point x="350" y="90" type="line"/>
      <point x="250" y="90" type="line" smooth="yes"/>
      <point x="205" y="90"/>
      <point x="170" y="125"/>
      <point x="170" y="170" type="curve" smooth="yes"/>
      <point x="170" y="490" type="line"/>
      <point x="10" y="490" type="line"/>
      <point x="10" y="400" type="line"/>
      <point x="80" y="400" type="line"/>
      <point x="80" y="170" type="line" smooth="yes"/>
      <point x="80" y="70"/>
      <point x="150" y="0"/>
      <point x="250" y="0" type="curve" smooth="yes"/>
      <point x="390" y="0" type="line"/>
      <point x="390" y="0"/>
      <point x="310" y="-50"/>
      <point x="310" y="-130" type="curve" smooth="yes"/>
      <point x="310" y="-175"/>
      <point x="345" y="-210"/>
      <point x="400" y="-210" type="curve" smooth="yes"/>
      <point x="460" y="-210" type="line"/>
      <point x="460" y="-130" type="line"/>
      <point x="410" y="-130" type="line" smooth="yes"/>
      <point x="395" y="-130"/>
      <point x="380" y="-115"/>
    </contour>
  </outline>
</glyph>
<glyph name="florin" format="1">
  <advance width="300"/>
  <unicode hex="0192"/>
  <outline>
    <contour>
      <point x="90" y="-40" type="line" smooth="yes" name="hr00"/>
      <point x="90" y="-85"/>
      <point x="55" y="-120"/>
      <point x="10" y="-120" type="curve" smooth="yes"/>
      <point x="-40" y="-120" type="line"/>
      <point x="-40" y="-210" type="line"/>
      <point x="10" y="-210" type="line" smooth="yes"/>
      <point x="110" y="-210"/>
      <point x="180" y="-140"/>
      <point x="180" y="-40" type="curve" smooth="yes"/>
      <point x="180" y="400" type="line"/>
      <point x="280" y="400" type="line"/>
      <point x="280" y="490" type="line"/>
      <point x="180" y="490" type="line"/>
      <point x="180" y="530" type="line" smooth="yes"/>
      <point x="180" y="575"/>
      <point x="215" y="610"/>
      <point x="260" y="610" type="curve" smooth="yes"/>
      <point x="310" y="610" type="line"/>
      <point x="310" y="700" type="line"/>
      <point x="260" y="700" type="line" smooth="yes"/>
      <point x="160" y="700"/>
      <point x="90" y="630"/>
      <point x="90" y="530" type="curve" smooth="yes"/>
      <point x="90" y="490" type="line"/>
      <point x="0" y="490" type="line"/>
      <point x="0" y="400" type="line"/>
      <point x="90" y="400" type="line"/>
    </contour>
  </outline>
</glyph>
<glyph name="afii57929" format="1">
  <advance width="195"/>
  <unicode hex="02BC"/>
  <outline>
    <contour>
      <point x="165" y="700" type="line" name="hr00"/>
      <point x="75" y="700" type="line"/>
      <point x="75" y="620" type="line"/>
      <point x="30" y="520" type="line"/>
      <point x="75" y="520" type="line"/>
      <point x="165" y="630" type="line"/>
    </contour>
  </outline>
</glyph>
<glyph name="circumflex" format="1">
  <advance width="410"/>
  <unicode hex="02C6"/>
  <outline>
    <contour>
      <point x="250" y="700" type="line" name="hr00"/>
      <point x="380" y="570" type="line"/>
      <point x="275" y="570" type="line"/>
      <point x="205" y="640" type="line"/>
      <point x="135" y="570" type="line"/>
      <point x="30" y="570" type="line"/>
      <point x="160" y="700" type="line"/>
    </contour>
  </outline>
</glyph>
<glyph name="caron" format="1">
  <advance width="410"/>
  <unicode hex="02C7"/>
  <outline>
    <contour>
      <point x="160" y="570" type="line" name="hr00"/>
      <point x="30" y="700" type="line"/>
      <point x="135" y="700" type="line"/>
      <point x="205" y="630" type="line"/>
      <point x="275" y="700" type="line"/>
      <point x="380" y="700" type="line"/>
      <point x="250" y="570" type="line"/>
    </contour>
  </outline>
</glyph>
<glyph name="breve" format="1">
  <advance width="370"/>
  <unicode hex="02D8"/>
  <outline>
    <contour>
      <point x="185" y="640" type="curve" smooth="yes" name="hr00"/>
      <point x="150" y="640"/>
      <point x="125" y="665"/>
      <point x="115" y="700" type="curve"/>
      <point x="30" y="690" type="line"/>
      <point x="50" y="615"/>
      <point x="105" y="560"/>
      <point x="185" y="560" type="curve" smooth="yes"/>
      <point x="265" y="560"/>
      <point x="320" y="615"/>
      <point x="340" y="690" type="curve"/>
      <point x="255" y="700" type="line"/>
      <point x="245" y="665"/>
      <point x="220" y="640"/>
    </contour>
  </outline>
</glyph>
<glyph name="dotaccent" format="1">
  <advance width="150"/>
  <unicode hex="02D9"/>
  <outline>
    <contour>
      <point x="120" y="700" type="line" name="hr00"/>
      <point x="30" y="700" type="line"/>
      <point x="30" y="600" type="line"/>
      <point x="120" y="600" type="line"/>
    </contour>
  </outline>
</glyph>
<glyph name="ring" format="1">
  <advance width="270"/>
  <unicode hex="02DA"/>
  <outline>
    <contour>
      <point x="240" y="595" type="curve" name="hr00"/>
      <point x="240" y="655"/>
      <point x="195" y="700"/>
      <point x="135" y="700" type="curve"/>
      <point x="75" y="700"/>
      <point x="30" y="655"/>
      <point x="30" y="595" type="curve"/>
      <point x="30" y="535"/>
      <point x="75" y="490"/>
      <point x="135" y="490" type="curve" smooth="yes"/>
      <point x="195" y="490"/>
      <point x="240" y="535"/>
    </contour>
    <contour>
      <point x="175" y="595" type="curve"/>
      <point x="175" y="575"/>
      <point x="155" y="555"/>
      <point x="135" y="555" type="curve" smooth="yes"/>
      <point x="115" y="555"/>
      <point x="95" y="575"/>
      <point x="95" y="595" type="curve"/>
      <point x="95" y="615"/>
      <point x="115" y="635"/>
      <point x="135" y="635" type="curve"/>
      <point x="155" y="635"/>
      <point x="175" y="615"/>
    </contour>
  </outline>
</glyph>
<glyph name="ogonek" format="1">
  <advance width="210"/>
  <unicode hex="02DB"/>
  <outline>
    <contour>
      <point x="100" y="-100" type="curve" smooth="yes" name="hr00"/>
      <point x="100" y="-50"/>
      <point x="160" y="0"/>
      <point x="160" y="0" type="curve"/>
      <point x="110" y="0" type="line"/>
      <point x="110" y="0"/>
      <point x="30" y="-50"/>
      <point x="30" y="-130" type="curve" smooth="yes"/>
      <point x="30" y="-175"/>
      <point x="65" y="-210"/>
      <point x="120" y="-210" type="curve" smooth="yes"/>
      <point x="153" y="-210"/>
      <point x="180" y="-210"/>
      <point x="180" y="-210" type="curve"/>
      <point x="180" y="-130" type="line"/>
      <point x="130" y="-130" type="line"/>
      <point x="115" y="-130"/>
      <point x="100" y="-115"/>
    </contour>
  </outline>
</glyph>
<glyph name="tilde" format="1">
  <advance width="350"/>
  <unicode hex="02DC"/>
  <outline>
    <contour>
      <point x="230" y="560" type="curve" name="hr00"/>
      <point x="280" y="560"/>
      <point x="320" y="600"/>
      <point x="320" y="670" type="curve" smooth="yes"/>
      <point x="320" y="700" type="line"/>
      <point x="245" y="700" type="line"/>
      <point x="245" y="670" type="line" smooth="yes"/>
      <point x="245" y="655"/>
      <point x="235" y="640"/>
      <point x="220" y="640" type="curve" smooth="yes"/>
      <point x="200" y="640"/>
      <point x="180" y="710"/>
      <point x="120" y="710" type="curve"/>
      <point x="70" y="710"/>
      <point x="30" y="670"/>
      <point x="30" y="600" type="curve" smooth="yes"/>
      <point x="30" y="570" type="line"/>
      <point x="105" y="570" type="line"/>
      <point x="105" y="600" type="line" smooth="yes"/>
      <point x="105" y="615"/>
      <point x="115" y="630"/>
      <point x="130" y="630" type="curve" smooth="yes"/>
      <point x="150" y="630"/>
      <point x="170" y="560"/>
    </contour>
  </outline>
</glyph>
<glyph name="hungarumlaut" format="1">
  <advance width="350"/>
  <unicode hex="02DD"/>
  <outline>
    <contour>
      <point x="180" y="700" type="line" name="hr00"/>
      <point x="90" y="700" type="line"/>
      <point x="30" y="540" type="line"/>
      <point x="90" y="540" type="line"/>
    </contour>
    <contour>
      <point x="320" y="700" type="line"/>
      <point x="230" y="700" type="line"/>
      <point x="170" y="540" type="line"/>
      <point x="230" y="540" type="line"/>
    </contour>
  </outline>
</glyph>
<glyph name="pi" format="1">
  <advance width="520"/>
  <unicode hex="03C0"/>
  <outline>
    <contour>
      <point x="10" y="490" type="line" name="hr00"/>
      <point x="10" y="400" type="line"/>
      <point x="80" y="400" type="line"/>
      <point x="80" y="0" type="line"/>
      <point x="170" y="0" type="line"/>
      <point x="170" y="400" type="line"/>
      <point x="350" y="400" type="line"/>
      <point x="350" y="120" type="line" smooth="yes"/>
      <point x="350" y="40"/>
      <point x="400" y="-10"/>
      <point x="480" y="-10" type="curve" smooth="yes"/>
      <point x="510" y="-10" type="line"/>
      <point x="510" y="80" type="line"/>
      <point x="480" y="80" type="line" smooth="yes"/>
      <point x="455" y="80"/>
      <point x="440" y="95"/>
      <point x="440" y="120" type="curve" smooth="yes"/>
      <point x="440" y="400" type="line"/>
      <point x="510" y="400" type="line"/>
      <point x="510" y="490" type="line"/>
    </contour>
  </outline>
</glyph>
<glyph name="afii10023" format="1">
  <advance width="530"/>
  <unicode hex="0401"/>
  <outline>
    <contour>
      <point x="510" y="95" type="line" name="hr00"/>
      <point x="185" y="95" type="line"/>
      <point x="185" y="305" type="line"/>
      <point x="420" y="305" type="line"/>
      <point x="420" y="400" type="line"/>
      <point x="185" y="400" type="line"/>
      <point x="185" y="605" type="line"/>
      <point x="510" y="605" type="line"/>
      <point x="510" y="700" type="line"/>
      <point x="90" y="700" type="line"/>
      <point x="90" y="0" type="line"/>
      <point x="510" y="0" type="line"/>
    </contour>
    <contour>
      <point x="425" y="890" type="line"/>
      <point x="425" y="800" type="line"/>
      <point x="335" y="800" type="line"/>
      <point x="335" y="890" type="line"/>
    </contour>
    <contour>
      <point x="265" y="890" type="line"/>
      <point x="265" y="800" type="line"/>
      <point x="175" y="800" type="line"/>
      <point x="175" y="890" type="line"/>
    </contour>
  </outline>
</glyph>
<glyph name="afii10051" format="1">
  <advance width="585"/>
  <unicode hex="0402"/>
  <outline>
    <contour>
      <point x="450" y="80" type="line" smooth="yes" name="hr00"/>
      <point x="450" y="35"/>
      <point x="415" y="0"/>
      <point x="375" y="0" type="curve"/>
      <point x="375" y="-95" type="line"/>
      <point x="475" y="-95"/>
      <point x="545" y="-25"/>
      <point x="545" y="80" type="curve"/>
      <point x="545" y="195" type="line" smooth="yes"/>
      <point x="545" y="325"/>
      <point x="445" y="425"/>
      <point x="315" y="425" type="curve" smooth="yes"/>
      <point x="220" y="425" type="line"/>
      <point x="220" y="605" type="line"/>
      <point x="365" y="605" type="line"/>
      <point x="365" y="700" type="line"/>
      <point x="-20" y="700" type="line"/>
      <point x="-20" y="605" type="line"/>
      <point x="125" y="605" type="line"/>
      <point x="125" y="0" type="line"/>
      <point x="220" y="0" type="line"/>
      <point x="220" y="330" type="line"/>
      <point x="315" y="330" type="line" smooth="yes"/>
      <point x="390" y="330"/>
      <point x="450" y="270"/>
      <point x="450" y="195" type="curve" smooth="yes"/>
    </contour>
  </outline>
</glyph>
<glyph name="afii10053" format="1">
  <advance width="525"/>
  <unicode hex="0404"/>
  <outline>
    <contour>
      <point x="70" y="220" type="line" smooth="yes" name="hr00"/>
      <point x="70" y="90"/>
      <point x="170" y="-10"/>
      <point x="300" y="-10" type="curve" smooth="yes"/>
      <point x="450" y="-10"/>
      <point x="505" y="120"/>
      <point x="505" y="120" type="curve"/>
      <point x="425" y="170" type="line"/>
      <point x="425" y="170"/>
      <point x="395" y="85"/>
      <point x="300" y="85" type="curve" smooth="yes"/>
      <point x="225" y="85"/>
      <point x="165" y="145"/>
      <point x="165" y="220" type="curve" smooth="yes"/>
      <point x="165" y="310" type="line"/>
      <point x="345" y="310" type="line"/>
      <point x="345" y="400" type="line"/>
      <point x="165" y="400" type="line"/>
      <point x="165" y="480" type="line" smooth="yes"/>
      <point x="165" y="555"/>
      <point x="225" y="615"/>
      <point x="300" y="615" type="curve" smooth="yes"/>
      <point x="395" y="615"/>
      <point x="425" y="530"/>
      <point x="425" y="530" type="curve"/>
      <point x="505" y="580" type="line"/>
      <point x="505" y="580"/>
      <point x="450" y="710"/>
      <point x="300" y="710" type="curve" smooth="yes"/>
      <point x="170" y="710"/>
      <point x="70" y="610"/>
      <point x="70" y="480" type="curve" smooth="yes"/>
    </contour>
  </outline>
</glyph>
<glyph name="afii10055" format="1">
  <advance width="365"/>
  <unicode hex="0406"/>
  <outline>
    <contour>
      <point x="10" y="95" type="line" name="hr00"/>
      <point x="10" y="0" type="line"/>
      <point x="355" y="0" type="line"/>
      <point x="355" y="95" type="line"/>
      <point x="230" y="95" type="line"/>
      <point x="230" y="605" type="line"/>
      <point x="355" y="605" type="line"/>
      <point x="355" y="700" type="line"/>
      <point x="10" y="700" type="line"/>
      <point x="10" y="605" type="line"/>
      <point x="135" y="605" type="line"/>
      <point x="135" y="95" type="line"/>
    </contour>
  </outline>
</glyph>
<glyph name="afii10057" format="1">
  <advance width="390"/>
  <unicode hex="0408"/>
  <outline>
    <contour>
      <point x="265" y="220" type="curve" name="hr00"/>
      <point x="265" y="605" type="line"/>
      <point x="390" y="605" type="line"/>
      <point x="390" y="700" type="line"/>
      <point x="45" y="700" type="line"/>
      <point x="45" y="605" type="line"/>
      <point x="170" y="605" type="line"/>
      <point x="170" y="220" type="line" smooth="yes"/>
      <point x="170" y="150"/>
      <point x="115" y="95"/>
      <point x="45" y="95" type="curve" smooth="yes"/>
      <point x="0" y="95" type="line"/>
      <point x="0" y="0" type="line"/>
      <point x="45" y="0" type="line" smooth="yes"/>
      <point x="170" y="0"/>
      <point x="265" y="95"/>
    </contour>
  </outline>
</glyph>
<glyph name="afii10058" format="1">
  <advance width="905"/>
  <unicode hex="0409"/>
  <outline>
    <contour>
      <point x="865" y="210" type="curve" smooth="yes" name="hr00"/>
      <point x="865" y="325"/>
      <point x="770" y="420"/>
      <point x="655" y="420" type="curve" smooth="yes"/>
      <point x="520" y="420" type="line"/>
      <point x="520" y="700" type="line"/>
      <point x="240" y="700" type="line"/>
      <point x="60" y="95" type="line"/>
      <point x="-20" y="95" type="line"/>
      <point x="-20" y="0" type="line"/>
      <point x="130" y="0" type="line"/>
      <point x="310" y="605" type="line"/>
      <point x="425" y="605" type="line"/>
      <point x="425" y="0" type="line"/>
      <point x="655" y="0" type="line" smooth="yes"/>
      <point x="770" y="0"/>
      <point x="865" y="95"/>
    </contour>
    <contour>
      <point x="770" y="210" type="curve" smooth="yes"/>
      <point x="770" y="145"/>
      <point x="720" y="95"/>
      <point x="655" y="95" type="curve" smooth="yes"/>
      <point x="520" y="95" type="line"/>
      <point x="520" y="325" type="line"/>
      <point x="655" y="325" type="line" smooth="yes"/>
      <point x="720" y="325"/>
      <point x="770" y="275"/>
    </contour>
  </outline>
</glyph>
<glyph name="afii10059" format="1">
  <advance width="915"/>
  <unicode hex="040A"/>
  <outline>
    <contour>
      <point x="875" y="210" type="curve" smooth="yes" name="hr00"/>
      <point x="875" y="325"/>
      <point x="780" y="420"/>
      <point x="665" y="420" type="curve" smooth="yes"/>
      <point x="530" y="420" type="line"/>
      <point x="530" y="700" type="line"/>
      <point x="435" y="700" type="line"/>
      <point x="435" y="420" type="line"/>
      <point x="185" y="420" type="line"/>
      <point x="185" y="700" type="line"/>
      <point x="10" y="700" type="line"/>
      <point x="10" y="605" type="line"/>
      <point x="90" y="605" type="line"/>
      <point x="90" y="0" type="line"/>
      <point x="185" y="0" type="line"/>
      <point x="185" y="325" type="line"/>
      <point x="435" y="325" type="line"/>
      <point x="435" y="0" type="line"/>
      <point x="665" y="0" type="line" smooth="yes"/>
      <point x="780" y="0"/>
      <point x="875" y="95"/>
    </contour>
    <contour>
      <point x="780" y="210" type="curve" smooth="yes"/>
      <point x="780" y="145"/>
      <point x="730" y="95"/>
      <point x="665" y="95" type="curve" smooth="yes"/>
      <point x="530" y="95" type="line"/>
      <point x="530" y="325" type="line"/>
      <point x="665" y="325" type="line" smooth="yes"/>
      <point x="730" y="325"/>
      <point x="780" y="275"/>
    </contour>
  </outline>
</glyph>
<glyph name="afii10060" format="1">
  <advance width="605"/>
  <unicode hex="040B"/>
  <outline>
    <contour>
      <point x="220" y="605" type="line" name="hr00"/>
      <point x="365" y="605" type="line"/>
      <point x="365" y="700" type="line"/>
      <point x="-20" y="700" type="line"/>
      <point x="-20" y="605" type="line"/>
      <point x="125" y="605" type="line"/>
      <point x="125" y="0" type="line"/>
      <point x="220" y="0" type="line"/>
      <point x="220" y="330" type="line"/>
      <point x="315" y="330" type="line" smooth="yes"/>
      <point x="390" y="330"/>
      <point x="450" y="270"/>
      <point x="450" y="195" type="curve" smooth="yes"/>
      <point x="450" y="0" type="line"/>
      <point x="545" y="0" type="line"/>
      <point x="545" y="195" type="line" smooth="yes"/>
      <point x="545" y="325"/>
      <point x="445" y="425"/>
      <point x="315" y="425" type="curve" smooth="yes"/>
      <point x="220" y="425" type="line"/>
    </contour>
  </outline>
</glyph>
<glyph name="afii10145" format="1">
  <advance width="610"/>
  <unicode hex="040F"/>
  <outline>
    <contour>
      <point x="90" y="0" type="line" name="hr00"/>
      <point x="265" y="0" type="line"/>
      <point x="265" y="-125" type="line"/>
      <point x="355" y="-125" type="line"/>
      <point x="355" y="0" type="line"/>
      <point x="530" y="0" type="line"/>
      <point x="530" y="700" type="line"/>
      <point x="435" y="700" type="line"/>
      <point x="435" y="95" type="line"/>
      <point x="185" y="95" type="line"/>
      <point x="185" y="700" type="line"/>
      <point x="10" y="700" type="line"/>
      <point x="10" y="605" type="line"/>
      <point x="90" y="605" type="line"/>
    </contour>
  </outline>
</glyph>
<glyph name="afii10017" format="1">
  <advance width="540"/>
  <unicode hex="0410"/>
  <outline>
    <contour>
      <point x="100" y="0" type="line" name="hr00"/>
      <point x="155" y="170" type="line"/>
      <point x="385" y="170" type="line"/>
      <point x="440" y="0" type="line"/>
      <point x="540" y="0" type="line"/>
      <point x="320" y="700" type="line"/>
      <point x="220" y="700" type="line"/>
      <point x="0" y="0" type="line"/>
    </contour>
    <contour>
      <point x="270" y="545" type="line"/>
      <point x="360" y="260" type="line"/>
      <point x="180" y="260" type="line"/>
    </contour>
  </outline>
</glyph>
<glyph name="afii10018" format="1">
  <advance width="580"/>
  <unicode hex="0411"/>
  <outline>
    <contour>
      <point x="100" y="95" type="line" name="hr00"/>
      <point x="20" y="95" type="line"/>
      <point x="20" y="0" type="line"/>
      <point x="330" y="0" type="line" smooth="yes"/>
      <point x="445" y="0"/>
      <point x="540" y="95"/>
      <point x="540" y="210" type="curve" smooth="yes"/>
      <point x="540" y="325"/>
      <point x="445" y="420"/>
      <point x="330" y="420" type="curve" smooth="yes"/>
      <point x="195" y="420" type="line"/>
      <point x="195" y="605" type="line"/>
      <point x="470" y="605" type="line"/>
      <point x="470" y="700" type="line"/>
      <point x="20" y="700" type="line"/>
      <point x="20" y="605" type="line"/>
      <point x="100" y="605" type="line"/>
    </contour>
    <contour>
      <point x="445" y="210" type="curve" smooth="yes"/>
      <point x="445" y="145"/>
      <point x="395" y="95"/>
      <point x="330" y="95" type="curve" smooth="yes"/>
      <point x="195" y="95" type="line"/>
      <point x="195" y="325" type="line"/>
      <point x="330" y="325" type="line" smooth="yes"/>
      <point x="395" y="325"/>
      <point x="445" y="275"/>
    </contour>
  </outline>
</glyph>
<glyph name="afii10019" format="1">
  <advance width="580"/>
  <unicode hex="0412"/>
  <outline>
    <contour>
      <point x="325" y="0" type="line" smooth="yes" name="hr00"/>
      <point x="440" y="0"/>
      <point x="530" y="90"/>
      <point x="530" y="205" type="curve" smooth="yes"/>
      <point x="530" y="320"/>
      <point x="430" y="370"/>
      <point x="430" y="370" type="curve"/>
      <point x="430" y="370"/>
      <point x="510" y="410"/>
      <point x="510" y="505" type="curve" smooth="yes"/>
      <point x="510" y="615"/>
      <point x="425" y="700"/>
      <point x="315" y="700" type="curve" smooth="yes"/>
      <point x="20" y="700" type="line"/>
      <point x="20" y="605" type="line"/>
      <point x="100" y="605" type="line"/>
      <point x="100" y="95" type="line"/>
      <point x="20" y="95" type="line"/>
      <point x="20" y="0" type="line"/>
      <point x="148" y="0" type="line"/>
    </contour>
    <contour>
      <point x="195" y="605" type="line"/>
      <point x="315" y="605" type="line" smooth="yes"/>
      <point x="375" y="605"/>
      <point x="415" y="565"/>
      <point x="415" y="505" type="curve" smooth="yes"/>
      <point x="415" y="445"/>
      <point x="375" y="405"/>
      <point x="315" y="405" type="curve" smooth="yes"/>
      <point x="195" y="405" type="line"/>
    </contour>
    <contour>
      <point x="195" y="315" type="line"/>
      <point x="325" y="315" type="line" smooth="yes"/>
      <point x="390" y="315"/>
      <point x="435" y="270"/>
      <point x="435" y="205" type="curve" smooth="yes"/>
      <point x="435" y="140"/>
      <point x="390" y="95"/>
      <point x="325" y="95" type="curve" smooth="yes"/>
      <point x="195" y="95" type="line"/>
    </contour>
  </outline>
</glyph>
<glyph name="afii10020" format="1">
  <advance width="450"/>
  <unicode hex="0413"/>
  <outline>
    <contour>
      <point x="90" y="0" type="line" name="hr00"/>
      <point x="185" y="0" type="line"/>
      <point x="185" y="605" type="line"/>
      <point x="450" y="605" type="line"/>
      <point x="450" y="700" type="line"/>
      <point x="10" y="700" type="line"/>
      <point x="10" y="605" type="line"/>
      <point x="90" y="605" type="line"/>
    </contour>
  </outline>
</glyph>
<glyph name="afii10021" format="1">
  <advance width="610"/>
  <unicode hex="0414"/>
  <outline>
    <contour>
      <point x="505" y="700" type="line" name="hr00"/>
      <point x="225" y="700" type="line"/>
      <point x="45" y="95" type="line"/>
      <point x="-10" y="95" type="line"/>
      <point x="-10" y="-120" type="line"/>
      <point x="85" y="-120" type="line"/>
      <point x="85" y="0" type="line"/>
      <point x="485" y="0" type="line"/>
      <point x="485" y="-120" type="line"/>
      <point x="580" y="-120" type="line"/>
      <point x="580" y="95" type="line"/>
      <point x="505" y="95" type="line"/>
    </contour>
    <contour>
      <point x="410" y="95" type="line"/>
      <point x="145" y="95" type="line"/>
      <point x="295" y="605" type="line"/>
      <point x="410" y="605" type="line"/>
    </contour>
  </outline>
</glyph>
<glyph name="afii10024" format="1">
  <advance width="825"/>
  <unicode hex="0416"/>
  <outline>
    <contour>
      <point x="125" y="700" type="line" name="hr00"/>
      <point x="-10" y="700" type="line"/>
      <point x="-10" y="605" type="line"/>
      <point x="70" y="605" type="line"/>
      <point x="195" y="350" type="line"/>
      <point x="20" y="0" type="line"/>
      <point x="125" y="0" type="line"/>
      <point x="275" y="305" type="line"/>
      <point x="370" y="305" type="line"/>
      <point x="370" y="0" type="line"/>
      <point x="465" y="0" type="line"/>
      <point x="465" y="305" type="line"/>
      <point x="560" y="305" type="line"/>
      <point x="710" y="0" type="line"/>
      <point x="815" y="0" type="line"/>
      <point x="640" y="350" type="line"/>
      <point x="815" y="700" type="line"/>
      <point x="710" y="700" type="line"/>
      <point x="560" y="400" type="line"/>
      <point x="465" y="400" type="line"/>
      <point x="465" y="700" type="line"/>
      <point x="370" y="700" type="line"/>
      <point x="370" y="400" type="line"/>
      <point x="275" y="400" type="line"/>
    </contour>
  </outline>
</glyph>
<glyph name="afii10025" format="1">
  <advance width="500"/>
  <unicode hex="0417"/>
  <outline>
    <contour>
      <point x="245" y="0" type="line" name="hr00"/>
      <point x="360" y="0"/>
      <point x="450" y="90"/>
      <point x="450" y="205" type="curve" smooth="yes"/>
      <point x="450" y="320"/>
      <point x="350" y="370"/>
      <point x="350" y="370" type="curve"/>
      <point x="350" y="370"/>
      <point x="430" y="410"/>
      <point x="430" y="505" type="curve" smooth="yes"/>
      <point x="430" y="615"/>
      <point x="345" y="700"/>
      <point x="235" y="700" type="curve"/>
      <point x="30" y="700" type="line"/>
      <point x="30" y="605" type="line"/>
      <point x="235" y="605" type="line"/>
      <point x="295" y="605"/>
      <point x="335" y="565"/>
      <point x="335" y="505" type="curve" smooth="yes"/>
      <point x="335" y="445"/>
      <point x="295" y="405"/>
      <point x="235" y="405" type="curve"/>
      <point x="130" y="405" type="line"/>
      <point x="130" y="315" type="line"/>
      <point x="245" y="315" type="line"/>
      <point x="310" y="315"/>
      <point x="355" y="270"/>
      <point x="355" y="205" type="curve" smooth="yes"/>
      <point x="355" y="140"/>
      <point x="310" y="95"/>
      <point x="245" y="95" type="curve"/>
      <point x="20" y="95" type="line"/>
      <point x="20" y="0" type="line"/>
    </contour>
  </outline>
</glyph>
<glyph name="afii10026" format="1">
  <advance width="620"/>
  <unicode hex="0418"/>
  <outline>
    <contour>
      <point x="185" y="0" type="line" name="hr00"/>
      <point x="435" y="510" type="line"/>
      <point x="435" y="0" type="line"/>
      <point x="530" y="0" type="line"/>
      <point x="530" y="700" type="line"/>
      <point x="435" y="700" type="line"/>
      <point x="185" y="190" type="line"/>
      <point x="185" y="700" type="line"/>
      <point x="10" y="700" type="line"/>
      <point x="10" y="605" type="line"/>
      <point x="90" y="605" type="line"/>
      <point x="90" y="0" type="line"/>
    </contour>
  </outline>
</glyph>
<glyph name="afii10027" format="1">
  <advance width="620"/>
  <unicode hex="0419"/>
  <outline>
    <contour>
      <point x="185" y="0" type="line" name="hr00"/>
      <point x="435" y="510" type="line"/>
      <point x="435" y="0" type="line"/>
      <point x="530" y="0" type="line"/>
      <point x="530" y="700" type="line"/>
      <point x="435" y="700" type="line"/>
      <point x="185" y="190" type="line"/>
      <point x="185" y="700" type="line"/>
      <point x="10" y="700" type="line"/>
      <point x="10" y="605" type="line"/>
      <point x="90" y="605" type="line"/>
      <point x="90" y="0" type="line"/>
    </contour>
    <contour>
      <point x="310" y="870" type="curve" smooth="yes"/>
      <point x="275" y="870"/>
      <point x="250" y="895"/>
      <point x="240" y="930" type="curve"/>
      <point x="155" y="920" type="line"/>
      <point x="175" y="845"/>
      <point x="230" y="790"/>
      <point x="310" y="790" type="curve" smooth="yes"/>
      <point x="390" y="790"/>
      <point x="445" y="845"/>
      <point x="465" y="920" type="curve"/>
      <point x="380" y="930" type="line"/>
      <point x="370" y="895"/>
      <point x="345" y="870"/>
    </contour>
  </outline>
</glyph>
<glyph name="afii10029" format="1">
  <advance width="610"/>
  <unicode hex="041B"/>
  <outline>
    <contour>
      <point x="130" y="0" type="line" name="hr00"/>
      <point x="310" y="605" type="line"/>
      <point x="425" y="605" type="line"/>
      <point x="425" y="0" type="line"/>
      <point x="520" y="0" type="line"/>
      <point x="520" y="700" type="line"/>
      <point x="240" y="700" type="line"/>
      <point x="60" y="95" type="line"/>
      <point x="-20" y="95" type="line"/>
      <point x="-20" y="0" type="line"/>
    </contour>
  </outline>
</glyph>
<glyph name="afii10031" format="1">
  <advance width="620"/>
  <unicode hex="041D"/>
  <outline>
    <contour>
      <point x="90" y="0" type="line" name="hr00"/>
      <point x="185" y="0" type="line"/>
      <point x="185" y="305" type="line"/>
      <point x="435" y="305" type="line"/>
      <point x="435" y="0" type="line"/>
      <point x="530" y="0" type="line"/>
      <point x="530" y="700" type="line"/>
      <point x="435" y="700" type="line"/>
      <point x="435" y="400" type="line"/>
      <point x="185" y="400" type="line"/>
      <point x="185" y="700" type="line"/>
      <point x="10" y="700" type="line"/>
      <point x="10" y="605" type="line"/>
      <point x="90" y="605" type="line"/>
    </contour>
  </outline>
</glyph>
<glyph name="afii10032" format="1">
  <advance width="600"/>
  <unicode hex="041E"/>
  <outline>
    <contour>
      <point x="70" y="220" type="line" smooth="yes" name="hr00"/>
      <point x="70" y="90"/>
      <point x="170" y="-10"/>
      <point x="300" y="-10" type="curve" smooth="yes"/>
      <point x="430" y="-10"/>
      <point x="530" y="90"/>
      <point x="530" y="220" type="curve" smooth="yes"/>
      <point x="530" y="480" type="line"/>
      <point x="530" y="610"/>
      <point x="430" y="710"/>
      <point x="300" y="710" type="curve" smooth="yes"/>
      <point x="170" y="710"/>
      <point x="70" y="610"/>
      <point x="70" y="480" type="curve"/>
    </contour>
    <contour>
      <point x="435" y="220" type="line" smooth="yes"/>
      <point x="435" y="145"/>
      <point x="375" y="85"/>
      <point x="300" y="85" type="curve" smooth="yes"/>
      <point x="225" y="85"/>
      <point x="165" y="145"/>
      <point x="165" y="220" type="curve" smooth="yes"/>
      <point x="165" y="480" type="line"/>
      <point x="165" y="555"/>
      <point x="225" y="615"/>
      <point x="300" y="615" type="curve" smooth="yes"/>
      <point x="375" y="615"/>
      <point x="435" y="555"/>
      <point x="435" y="480" type="curve"/>
    </contour>
  </outline>
</glyph>
<glyph name="afii10034" format="1">
  <advance width="560"/>
  <unicode hex="0420"/>
  <outline>
    <contour>
      <point x="425" y="500" type="curve" smooth="yes" name="hr00"/>
      <point x="425" y="440"/>
      <point x="380" y="395"/>
      <point x="320" y="395" type="curve" smooth="yes"/>
      <point x="90" y="395" type="line"/>
      <point x="90" y="0" type="line"/>
      <point x="185" y="0" type="line"/>
      <point x="185" y="300" type="line"/>
      <point x="320" y="300" type="line" smooth="yes"/>
      <point x="430" y="300"/>
      <point x="520" y="390"/>
      <point x="520" y="500" type="curve" smooth="yes"/>
      <point x="520" y="610"/>
      <point x="430" y="700"/>
      <point x="320" y="700" type="curve" smooth="yes"/>
      <point x="10" y="700" type="line"/>
      <point x="10" y="605" type="line"/>
      <point x="320" y="605" type="line" smooth="yes"/>
      <point x="380" y="605"/>
      <point x="425" y="560"/>
    </contour>
  </outline>
</glyph>
<glyph name="afii10036" format="1">
  <advance width="505"/>
  <unicode hex="0422"/>
  <outline>
    <contour>
      <point x="300" y="0" type="line" name="hr00"/>
      <point x="205" y="0" type="line"/>
      <point x="205" y="315" type="line"/>
      <point x="30" y="315" type="line"/>
      <point x="30" y="410" type="line"/>
      <point x="475" y="410" type="line"/>
      <point x="475" y="315" type="line"/>
      <point x="300" y="315" type="line"/>
    </contour>
    <contour>
      <point x="30" y="700" type="line"/>
      <point x="475" y="700" type="line"/>
      <point x="475" y="605" type="line"/>
      <point x="30" y="605" type="line"/>
    </contour>
  </outline>
</glyph>
<glyph name="afii10037" format="1">
  <advance width="530"/>
  <unicode hex="0423"/>
  <outline>
    <contour>
      <point x="115" y="85" type="line" name="hr00"/>
      <point x="115" y="-10" type="line"/>
      <point x="155" y="-10" type="line" smooth="yes"/>
      <point x="250" y="-10"/>
      <point x="302" y="40"/>
      <point x="340" y="150" type="curve" smooth="yes"/>
      <point x="530" y="700" type="line"/>
      <point x="430" y="700" type="line"/>
      <point x="290" y="295" type="line"/>
      <point x="130" y="700" type="line"/>
      <point x="-20" y="700" type="line"/>
      <point x="-20" y="605" type="line"/>
      <point x="60" y="605" type="line"/>
      <point x="240" y="150" type="line"/>
      <point x="230" y="110"/>
      <point x="205" y="85"/>
      <point x="155" y="85" type="curve" smooth="yes"/>
    </contour>
  </outline>
</glyph>
<glyph name="afii10038" format="1">
  <advance width="785"/>
  <unicode hex="0424"/>
  <outline>
    <contour>
      <point x="30" y="335" type="curve" smooth="yes" name="hr00"/>
      <point x="30" y="220"/>
      <point x="125" y="125"/>
      <point x="240" y="125" type="curve" smooth="yes"/>
      <point x="345" y="125" type="line"/>
      <point x="345" y="-10" type="line"/>
      <point x="440" y="-10" type="line"/>
      <point x="440" y="125" type="line"/>
      <point x="545" y="125" type="line" smooth="yes"/>
      <point x="660" y="125"/>
      <point x="755" y="220"/>
      <point x="755" y="335" type="curve" smooth="yes"/>
      <point x="755" y="450"/>
      <point x="660" y="545"/>
      <point x="545" y="545" type="curve" smooth="yes"/>
      <point x="440" y="545" type="line"/>
      <point x="440" y="720" type="line"/>
      <point x="265" y="720" type="line"/>
      <point x="265" y="625" type="line"/>
      <point x="345" y="625" type="line"/>
      <point x="345" y="545" type="line"/>
      <point x="240" y="545" type="line" smooth="yes"/>
      <point x="125" y="545"/>
      <point x="30" y="450"/>
    </contour>
    <contour>
      <point x="125" y="335" type="curve" smooth="yes"/>
      <point x="125" y="400"/>
      <point x="175" y="450"/>
      <point x="240" y="450" type="curve" smooth="yes"/>
      <point x="345" y="450" type="line"/>
      <point x="345" y="220" type="line"/>
      <point x="240" y="220" type="line" smooth="yes"/>
      <point x="175" y="220"/>
      <point x="125" y="270"/>
    </contour>
    <contour>
      <point x="660" y="335" type="curve" smooth="yes"/>
      <point x="660" y="270"/>
      <point x="610" y="220"/>
      <point x="545" y="220" type="curve" smooth="yes"/>
      <point x="440" y="220" type="line"/>
      <point x="440" y="450" type="line"/>
      <point x="545" y="450" type="line" smooth="yes"/>
      <point x="610" y="450"/>
      <point x="660" y="400"/>
    </contour>
  </outline>
</glyph>
<glyph name="afii10040" format="1">
  <advance width="635"/>
  <unicode hex="0426"/>
  <outline>
    <contour>
      <point x="90" y="0" type="line" name="hr00"/>
      <point x="510" y="0" type="line"/>
      <point x="510" y="-125" type="line"/>
      <point x="605" y="-125" type="line"/>
      <point x="605" y="95" type="line"/>
      <point x="530" y="95" type="line"/>
      <point x="530" y="700" type="line"/>
      <point x="435" y="700" type="line"/>
      <point x="435" y="95" type="line"/>
      <point x="185" y="95" type="line"/>
      <point x="185" y="700" type="line"/>
      <point x="10" y="700" type="line"/>
      <point x="10" y="605" type="line"/>
      <point x="90" y="605" type="line"/>
    </contour>
  </outline>
</glyph>
<glyph name="afii10041" format="1">
  <advance width="600"/>
  <unicode hex="0427"/>
  <outline>
    <contour>
      <point x="80" y="475" type="line" smooth="yes" name="hr00"/>
      <point x="80" y="345"/>
      <point x="180" y="245"/>
      <point x="310" y="245" type="curve" smooth="yes"/>
      <point x="415" y="245" type="line"/>
      <point x="415" y="0" type="line"/>
      <point x="510" y="0" type="line"/>
      <point x="510" y="700" type="line"/>
      <point x="415" y="700" type="line"/>
      <point x="415" y="340" type="line"/>
      <point x="310" y="340" type="line" smooth="yes"/>
      <point x="235" y="340"/>
      <point x="175" y="400"/>
      <point x="175" y="475" type="curve" smooth="yes"/>
      <point x="175" y="700" type="line"/>
      <point x="0" y="700" type="line"/>
      <point x="0" y="605" type="line"/>
      <point x="80" y="605" type="line"/>
    </contour>
  </outline>
</glyph>
<glyph name="afii10042" format="1">
  <advance width="910"/>
  <unicode hex="0428"/>
  <outline>
    <contour>
      <point x="90" y="0" type="line" name="hr00"/>
      <point x="820" y="0" type="line"/>
      <point x="820" y="95" type="line"/>
      <point x="90" y="95" type="line"/>
    </contour>
    <contour>
      <point x="90" y="240" type="line"/>
      <point x="820" y="240" type="line"/>
      <point x="820" y="700" type="line"/>
      <point x="725" y="700" type="line"/>
      <point x="725" y="335" type="line"/>
      <point x="500" y="335" type="line"/>
      <point x="500" y="610" type="line"/>
      <point x="410" y="610" type="line"/>
      <point x="410" y="335" type="line"/>
      <point x="185" y="335" type="line"/>
      <point x="185" y="700" type="line"/>
      <point x="10" y="700" type="line"/>
      <point x="10" y="605" type="line"/>
      <point x="90" y="605" type="line"/>
    </contour>
  </outline>
</glyph>
<glyph name="afii10043" format="1">
  <advance width="925"/>
  <unicode hex="0429"/>
  <outline>
    <contour>
      <point x="90" y="0" type="line" name="hr00"/>
      <point x="800" y="0" type="line"/>
      <point x="800" y="-120" type="line"/>
      <point x="895" y="-120" type="line"/>
      <point x="895" y="95" type="line"/>
      <point x="820" y="95" type="line"/>
      <point x="820" y="700" type="line"/>
      <point x="725" y="700" type="line"/>
      <point x="725" y="95" type="line"/>
      <point x="500" y="95" type="line"/>
      <point x="500" y="610" type="line"/>
      <point x="410" y="610" type="line"/>
      <point x="410" y="95" type="line"/>
      <point x="185" y="95" type="line"/>
      <point x="185" y="700" type="line"/>
      <point x="10" y="700" type="line"/>
      <point x="10" y="605" type="line"/>
      <point x="90" y="605" type="line"/>
    </contour>
  </outline>
</glyph>
<glyph name="afii10044" format="1">
  <advance width="590"/>
  <unicode hex="042A"/>
  <outline>
    <contour>
      <point x="550" y="210" type="curve" smooth="yes" name="hr00"/>
      <point x="550" y="325"/>
      <point x="455" y="420"/>
      <point x="340" y="420" type="curve" smooth="yes"/>
      <point x="215" y="420" type="line"/>
      <point x="215" y="700" type="line"/>
      <point x="-20" y="700" type="line"/>
      <point x="-20" y="605" type="line"/>
      <point x="120" y="605" type="line"/>
      <point x="120" y="0" type="line"/>
      <point x="340" y="0" type="line" smooth="yes"/>
      <point x="455" y="0"/>
      <point x="550" y="95"/>
    </contour>
    <contour>
      <point x="455" y="210" type="curve" smooth="yes"/>
      <point x="455" y="145"/>
      <point x="405" y="95"/>
      <point x="340" y="95" type="curve" smooth="yes"/>
      <point x="215" y="95" type="line"/>
      <point x="215" y="325" type="line"/>
      <point x="340" y="325" type="line" smooth="yes"/>
      <point x="405" y="325"/>
      <point x="455" y="275"/>
    </contour>
  </outline>
</glyph>
<glyph name="afii10045" format="1">
  <advance width="785"/>
  <unicode hex="042B"/>
  <outline>
    <contour>
      <point x="520" y="210" type="curve" smooth="yes" name="hr00"/>
      <point x="520" y="325"/>
      <point x="425" y="420"/>
      <point x="310" y="420" type="curve" smooth="yes"/>
      <point x="185" y="420" type="line"/>
      <point x="185" y="700" type="line"/>
      <point x="90" y="700" type="line"/>
      <point x="90" y="0" type="line"/>
      <point x="310" y="0" type="line" smooth="yes"/>
      <point x="425" y="0"/>
      <point x="520" y="95"/>
    </contour>
    <contour>
      <point x="600" y="0" type="line"/>
      <point x="695" y="0" type="line"/>
      <point x="695" y="700" type="line"/>
      <point x="600" y="700" type="line"/>
    </contour>
    <contour>
      <point x="425" y="210" type="curve" smooth="yes"/>
      <point x="425" y="145"/>
      <point x="375" y="95"/>
      <point x="310" y="95" type="curve" smooth="yes"/>
      <point x="185" y="95" type="line"/>
      <point x="185" y="325" type="line"/>
      <point x="310" y="325" type="line" smooth="yes"/>
      <point x="375" y="325"/>
      <point x="425" y="275"/>
    </contour>
  </outline>
</glyph>
<glyph name="afii10046" format="1">
  <advance width="570"/>
  <unicode hex="042C"/>
  <outline>
    <contour>
      <point x="530" y="210" type="curve" smooth="yes" name="hr00"/>
      <point x="530" y="325"/>
      <point x="435" y="420"/>
      <point x="320" y="420" type="curve" smooth="yes"/>
      <point x="185" y="420" type="line"/>
      <point x="185" y="700" type="line"/>
      <point x="90" y="700" type="line"/>
      <point x="90" y="0" type="line"/>
      <point x="320" y="0" type="line" smooth="yes"/>
      <point x="435" y="0"/>
      <point x="530" y="95"/>
    </contour>
    <contour>
      <point x="435" y="210" type="curve" smooth="yes"/>
      <point x="435" y="145"/>
      <point x="385" y="95"/>
      <point x="320" y="95" type="curve" smooth="yes"/>
      <point x="185" y="95" type="line"/>
      <point x="185" y="325" type="line"/>
      <point x="320" y="325" type="line" smooth="yes"/>
      <point x="385" y="325"/>
      <point x="435" y="275"/>
    </contour>
  </outline>
</glyph>
<glyph name="afii10047" format="1">
  <advance width="525"/>
  <unicode hex="042D"/>
  <outline>
    <contour>
      <point x="455" y="480" type="line" smooth="yes" name="hr00"/>
      <point x="455" y="610"/>
      <point x="355" y="710"/>
      <point x="225" y="710" type="curve" smooth="yes"/>
      <point x="75" y="710"/>
      <point x="20" y="580"/>
      <point x="20" y="580" type="curve"/>
      <point x="100" y="530" type="line"/>
      <point x="100" y="530"/>
      <point x="130" y="615"/>
      <point x="225" y="615" type="curve" smooth="yes"/>
      <point x="300" y="615"/>
      <point x="360" y="555"/>
      <point x="360" y="480" type="curve" smooth="yes"/>
      <point x="360" y="400" type="line"/>
      <point x="180" y="400" type="line"/>
      <point x="180" y="310" type="line"/>
      <point x="360" y="310" type="line"/>
      <point x="360" y="220" type="line" smooth="yes"/>
      <point x="360" y="145"/>
      <point x="300" y="85"/>
      <point x="225" y="85" type="curve" smooth="yes"/>
      <point x="130" y="85"/>
      <point x="100" y="170"/>
      <point x="100" y="170" type="curve"/>
      <point x="20" y="120" type="line"/>
      <point x="20" y="120"/>
      <point x="75" y="-10"/>
      <point x="225" y="-10" type="curve" smooth="yes"/>
      <point x="355" y="-10"/>
      <point x="455" y="90"/>
      <point x="455" y="220" type="curve" smooth="yes"/>
    </contour>
  </outline>
</glyph>
<glyph name="afii10048" format="1">
  <advance width="835"/>
  <unicode hex="042E"/>
  <outline>
    <contour>
      <point x="545" y="710" type="curve" smooth="yes" name="hr00"/>
      <point x="420" y="710"/>
      <point x="325" y="615"/>
      <point x="325" y="490" type="curve" smooth="yes"/>
      <point x="325" y="400" type="line"/>
      <point x="185" y="400" type="line"/>
      <point x="185" y="700" type="line"/>
      <point x="10" y="700" type="line"/>
      <point x="10" y="605" type="line"/>
      <point x="90" y="605" type="line"/>
      <point x="90" y="0" type="line"/>
      <point x="185" y="0" type="line"/>
      <point x="185" y="305" type="line"/>
      <point x="325" y="305" type="line"/>
      <point x="325" y="210" type="line" smooth="yes"/>
      <point x="325" y="85"/>
      <point x="420" y="-10"/>
      <point x="545" y="-10" type="curve" smooth="yes"/>
      <point x="670" y="-10"/>
      <point x="765" y="85"/>
      <point x="765" y="210" type="curve" smooth="yes"/>
      <point x="765" y="490" type="line" smooth="yes"/>
      <point x="765" y="615"/>
      <point x="670" y="710"/>
    </contour>
    <contour>
      <point x="545" y="615" type="curve" smooth="yes"/>
      <point x="615" y="615"/>
      <point x="670" y="560"/>
      <point x="670" y="490" type="curve" smooth="yes"/>
      <point x="670" y="210" type="line" smooth="yes"/>
      <point x="670" y="140"/>
      <point x="615" y="85"/>
      <point x="545" y="85" type="curve" smooth="yes"/>
      <point x="475" y="85"/>
      <point x="420" y="140"/>
      <point x="420" y="210" type="curve" smooth="yes"/>
      <point x="420" y="490" type="line" smooth="yes"/>
      <point x="420" y="560"/>
      <point x="475" y="615"/>
    </contour>
  </outline>
</glyph>
<glyph name="afii10049" format="1">
  <advance width="575"/>
  <unicode hex="042F"/>
  <outline>
    <contour>
      <point x="565" y="605" type="line" name="hr00"/>
      <point x="565" y="700" type="line"/>
      <point x="245" y="700" type="line"/>
      <point x="135" y="700"/>
      <point x="45" y="610"/>
      <point x="45" y="500" type="curve" smooth="yes"/>
      <point x="45" y="355"/>
      <point x="185" y="310"/>
      <point x="185" y="310" type="curve"/>
      <point x="30" y="0" type="line"/>
      <point x="135" y="0" type="line"/>
      <point x="280" y="300" type="line"/>
      <point x="390" y="300" type="line"/>
      <point x="390" y="0" type="line"/>
      <point x="485" y="0" type="line"/>
      <point x="485" y="605" type="line"/>
    </contour>
    <contour>
      <point x="140" y="500" type="curve" smooth="yes"/>
      <point x="140" y="560"/>
      <point x="185" y="605"/>
      <point x="245" y="605" type="curve"/>
      <point x="390" y="605" type="line"/>
      <point x="390" y="395" type="line"/>
      <point x="245" y="395" type="line"/>
      <point x="185" y="395"/>
      <point x="140" y="440"/>
    </contour>
  </outline>
</glyph>
<glyph name="afii10066" format="1">
  <advance width="470"/>
  <unicode hex="0431"/>
  <outline>
    <contour>
      <point x="140" y="360" type="line" name="hr00"/>
      <point x="235" y="360" type="line" smooth="yes"/>
      <point x="290" y="360"/>
      <point x="330" y="320"/>
      <point x="330" y="265" type="curve" smooth="yes"/>
      <point x="330" y="175" type="line" smooth="yes"/>
      <point x="330" y="120"/>
      <point x="290" y="80"/>
      <point x="235" y="80" type="curve" smooth="yes"/>
      <point x="180" y="80"/>
      <point x="140" y="120"/>
      <point x="140" y="175" type="curve" smooth="yes"/>
    </contour>
    <contour>
      <point x="235" y="-10" type="curve" smooth="yes"/>
      <point x="345" y="-10"/>
      <point x="420" y="65"/>
      <point x="420" y="175" type="curve" smooth="yes"/>
      <point x="420" y="265" type="line" smooth="yes"/>
      <point x="420" y="375"/>
      <point x="345" y="450"/>
      <point x="235" y="450" type="curve" smooth="yes"/>
      <point x="140" y="450" type="line"/>
      <point x="140" y="500" type="line" smooth="yes"/>
      <point x="140" y="545"/>
      <point x="175" y="580"/>
      <point x="220" y="580" type="curve" smooth="yes"/>
      <point x="260" y="580" type="line" smooth="yes"/>
      <point x="340" y="580"/>
      <point x="390" y="630"/>
      <point x="390" y="710" type="curve"/>
      <point x="300" y="710" type="line"/>
      <point x="300" y="685"/>
      <point x="285" y="670"/>
      <point x="260" y="670" type="curve" smooth="yes"/>
      <point x="220" y="670" type="line" smooth="yes"/>
      <point x="120" y="670"/>
      <point x="50" y="600"/>
      <point x="50" y="500" type="curve" smooth="yes"/>
      <point x="50" y="175" type="line" smooth="yes"/>
      <point x="50" y="65"/>
      <point x="125" y="-10"/>
    </contour>
  </outline>
</glyph>
<glyph name="afii10067" format="1">
  <advance width="460"/>
  <unicode hex="0432"/>
  <outline>
    <contour>
      <point x="420" y="150" type="curve" smooth="yes" name="hr00"/>
      <point x="420" y="230"/>
      <point x="340" y="260"/>
      <point x="340" y="260" type="curve"/>
      <point x="340" y="260"/>
      <point x="400" y="280"/>
      <point x="400" y="350" type="curve" smooth="yes"/>
      <point x="400" y="435"/>
      <point x="345" y="490"/>
      <point x="260" y="490" type="curve" smooth="yes"/>
      <point x="20" y="490" type="line"/>
      <point x="20" y="400" type="line"/>
      <point x="80" y="400" type="line"/>
      <point x="80" y="90" type="line"/>
      <point x="20" y="90" type="line"/>
      <point x="20" y="0" type="line"/>
      <point x="270" y="0" type="line" smooth="yes"/>
      <point x="360" y="0"/>
      <point x="420" y="60"/>
    </contour>
    <contour>
      <point x="170" y="400" type="line"/>
      <point x="260" y="400" type="line" smooth="yes"/>
      <point x="290" y="400"/>
      <point x="310" y="380"/>
      <point x="310" y="350" type="curve" smooth="yes"/>
      <point x="310" y="320"/>
      <point x="290" y="300"/>
      <point x="260" y="300" type="curve" smooth="yes"/>
      <point x="170" y="300" type="line"/>
    </contour>
    <contour>
      <point x="270" y="90" type="curve"/>
      <point x="170" y="90" type="line"/>
      <point x="170" y="210" type="line"/>
      <point x="270" y="210" type="line" smooth="yes"/>
      <point x="305" y="210"/>
      <point x="330" y="185"/>
      <point x="330" y="150" type="curve" smooth="yes"/>
      <point x="330" y="115"/>
      <point x="305" y="90"/>
    </contour>
  </outline>
</glyph>
<glyph name="afii10068" format="1">
  <advance width="370"/>
  <unicode hex="0433"/>
  <outline>
    <contour>
      <point x="370" y="490" type="line" name="hr00"/>
      <point x="10" y="490" type="line"/>
      <point x="10" y="400" type="line"/>
      <point x="80" y="400" type="line"/>
      <point x="80" y="0" type="line"/>
      <point x="170" y="0" type="line"/>
      <point x="170" y="400" type="line"/>
      <point x="370" y="400" type="line"/>
    </contour>
  </outline>
</glyph>
<glyph name="afii10069" format="1">
  <advance width="500"/>
  <unicode hex="0434"/>
  <outline>
    <contour>
      <point x="415" y="490" type="line" name="hr00"/>
      <point x="165" y="490" type="line"/>
      <point x="45" y="90" type="line"/>
      <point x="-10" y="90" type="line"/>
      <point x="-10" y="-105" type="line"/>
      <point x="80" y="-105" type="line"/>
      <point x="80" y="0" type="line"/>
      <point x="390" y="0" type="line"/>
      <point x="390" y="-105" type="line"/>
      <point x="480" y="-105" type="line"/>
      <point x="480" y="90" type="line"/>
      <point x="415" y="90" type="line"/>
    </contour>
    <contour>
      <point x="325" y="90" type="line"/>
      <point x="135" y="90" type="line"/>
      <point x="230" y="400" type="line"/>
      <point x="325" y="400" type="line"/>
    </contour>
  </outline>
</glyph>
<glyph name="afii10072" format="1">
  <advance width="670"/>
  <unicode hex="0436"/>
  <outline>
    <contour>
      <point x="105" y="490" type="line" name="hr00"/>
      <point x="-10" y="490" type="line"/>
      <point x="-10" y="400" type="line"/>
      <point x="55" y="400" type="line"/>
      <point x="135" y="245" type="line"/>
      <point x="10" y="0" type="line"/>
      <point x="105" y="0" type="line"/>
      <point x="205" y="200" type="line"/>
      <point x="290" y="200" type="line"/>
      <point x="290" y="0" type="line"/>
      <point x="380" y="0" type="line"/>
      <point x="380" y="200" type="line"/>
      <point x="465" y="200" type="line"/>
      <point x="565" y="0" type="line"/>
      <point x="660" y="0" type="line"/>
      <point x="535" y="245" type="line"/>
      <point x="660" y="490" type="line"/>
      <point x="565" y="490" type="line"/>
      <point x="465" y="290" type="line"/>
      <point x="380" y="290" type="line"/>
      <point x="380" y="490" type="line"/>
      <point x="290" y="490" type="line"/>
      <point x="290" y="290" type="line"/>
      <point x="205" y="290" type="line"/>
    </contour>
  </outline>
</glyph>
<glyph name="afii10073" format="1">
  <advance width="395"/>
  <unicode hex="0437"/>
  <outline>
    <contour>
      <point x="205" y="90" type="curve" name="hr00"/>
      <point x="20" y="90" type="line"/>
      <point x="20" y="0" type="line"/>
      <point x="205" y="0" type="line" smooth="yes"/>
      <point x="295" y="0"/>
      <point x="355" y="60"/>
      <point x="355" y="150" type="curve" smooth="yes"/>
      <point x="355" y="228"/>
      <point x="279" y="258"/>
      <point x="275" y="260" type="curve"/>
      <point x="280" y="262"/>
      <point x="335" y="283"/>
      <point x="335" y="350" type="curve" smooth="yes"/>
      <point x="335" y="435"/>
      <point x="280" y="490"/>
      <point x="195" y="490" type="curve" smooth="yes"/>
      <point x="30" y="490" type="line"/>
      <point x="30" y="400" type="line"/>
      <point x="195" y="400" type="line" smooth="yes"/>
      <point x="225" y="400"/>
      <point x="245" y="380"/>
      <point x="245" y="350" type="curve" smooth="yes"/>
      <point x="245" y="320"/>
      <point x="225" y="300"/>
      <point x="195" y="300" type="curve" smooth="yes"/>
      <point x="110" y="300" type="line"/>
      <point x="110" y="210" type="line"/>
      <point x="205" y="210" type="line" smooth="yes"/>
      <point x="240" y="210"/>
      <point x="265" y="185"/>
      <point x="265" y="150" type="curve" smooth="yes"/>
      <point x="265" y="115"/>
      <point x="240" y="90"/>
    </contour>
  </outline>
</glyph>
<glyph name="afii10074" format="1">
  <advance width="510"/>
  <unicode hex="0438"/>
  <outline>
    <contour>
      <point x="440" y="0" type="line" name="hr00"/>
      <point x="440" y="490" type="line"/>
      <point x="350" y="490" type="line"/>
      <point x="170" y="165" type="line"/>
      <point x="170" y="490" type="line"/>
      <point x="10" y="490" type="line"/>
      <point x="10" y="400" type="line"/>
      <point x="80" y="400" type="line"/>
      <point x="80" y="0" type="line"/>
      <point x="170" y="0" type="line"/>
      <point x="350" y="325" type="line"/>
      <point x="350" y="0" type="line"/>
    </contour>
  </outline>
</glyph>
<glyph name="afii10075" format="1">
  <advance width="510"/>
  <unicode hex="0439"/>
  <outline>
    <contour>
      <point x="440" y="0" type="line" name="hr00"/>
      <point x="440" y="490" type="line"/>
      <point x="350" y="490" type="line"/>
      <point x="170" y="165" type="line"/>
      <point x="170" y="490" type="line"/>
      <point x="10" y="490" type="line"/>
      <point x="10" y="400" type="line"/>
      <point x="80" y="400" type="line"/>
      <point x="80" y="0" type="line"/>
      <point x="170" y="0" type="line"/>
      <point x="350" y="325" type="line"/>
      <point x="350" y="0" type="line"/>
    </contour>
    <contour>
      <point x="260" y="640" type="curve" smooth="yes"/>
      <point x="230" y="640"/>
      <point x="210" y="660"/>
      <point x="200" y="690" type="curve"/>
      <point x="125" y="680" type="line"/>
      <point x="140" y="620"/>
      <point x="190" y="570"/>
      <point x="260" y="570" type="curve" smooth="yes"/>
      <point x="330" y="570"/>
      <point x="380" y="620"/>
      <point x="395" y="680" type="curve"/>
      <point x="320" y="690" type="line"/>
      <point x="310" y="660"/>
      <point x="290" y="640"/>
    </contour>
  </outline>
</glyph>
<glyph name="afii10076" format="1">
  <advance width="460"/>
  <unicode hex="043A"/>
  <outline>
    <contour>
      <point x="170" y="490" type="line" name="hr00"/>
      <point x="10" y="490" type="line"/>
      <point x="10" y="400" type="line"/>
      <point x="80" y="400" type="line"/>
      <point x="80" y="0" type="line"/>
      <point x="170" y="0" type="line"/>
      <point x="170" y="200" type="line"/>
      <point x="255" y="200" type="line"/>
      <point x="355" y="0" type="line"/>
      <point x="450" y="0" type="line"/>
      <point x="325" y="245" type="line"/>
      <point x="450" y="490" type="line"/>
      <point x="355" y="490" type="line"/>
      <point x="255" y="290" type="line"/>
      <point x="170" y="290" type="line"/>
    </contour>
  </outline>
</glyph>
<glyph name="afii10077" format="1">
  <advance width="485"/>
  <unicode hex="043B"/>
  <outline>
    <contour>
      <point x="230" y="400" type="line" name="hr00"/>
      <point x="325" y="400" type="line"/>
      <point x="325" y="0" type="line"/>
      <point x="415" y="0" type="line"/>
      <point x="415" y="490" type="line"/>
      <point x="165" y="490" type="line"/>
      <point x="45" y="90" type="line"/>
      <point x="-20" y="90" type="line"/>
      <point x="-20" y="0" type="line"/>
      <point x="110" y="0" type="line"/>
    </contour>
  </outline>
</glyph>
<glyph name="afii10078" format="1">
  <advance width="610"/>
  <unicode hex="043C"/>
  <outline>
    <contour>
      <point x="260" y="165" type="line" name="hr00"/>
      <point x="340" y="165" type="line"/>
      <point x="440" y="345" type="line"/>
      <point x="440" y="0" type="line"/>
      <point x="600" y="0" type="line"/>
      <point x="600" y="90" type="line"/>
      <point x="530" y="90" type="line"/>
      <point x="530" y="490" type="line"/>
      <point x="430" y="490" type="line"/>
      <point x="300" y="255" type="line"/>
      <point x="170" y="490" type="line"/>
      <point x="70" y="490" type="line"/>
      <point x="70" y="0" type="line"/>
      <point x="160" y="0" type="line"/>
      <point x="160" y="345" type="line"/>
    </contour>
  </outline>
</glyph>
<glyph name="afii10080" format="1">
  <advance width="470"/>
  <unicode hex="043E"/>
  <outline>
    <contour>
      <point x="420" y="175" type="line" smooth="yes" name="hr00"/>
      <point x="420" y="65"/>
      <point x="345" y="-10"/>
      <point x="235" y="-10" type="curve" smooth="yes"/>
      <point x="125" y="-10"/>
      <point x="50" y="65"/>
      <point x="50" y="175" type="curve" smooth="yes"/>
      <point x="50" y="315" type="line" smooth="yes"/>
      <point x="50" y="425"/>
      <point x="125" y="500"/>
      <point x="235" y="500" type="curve" smooth="yes"/>
      <point x="345" y="500"/>
      <point x="420" y="425"/>
      <point x="420" y="315" type="curve" smooth="yes"/>
    </contour>
    <contour>
      <point x="140" y="175" type="line" smooth="yes"/>
      <point x="140" y="120"/>
      <point x="180" y="80"/>
      <point x="235" y="80" type="curve" smooth="yes"/>
      <point x="290" y="80"/>
      <point x="330" y="120"/>
      <point x="330" y="175" type="curve" smooth="yes"/>
      <point x="330" y="315" type="line" smooth="yes"/>
      <point x="330" y="370"/>
      <point x="290" y="410"/>
      <point x="235" y="410" type="curve" smooth="yes"/>
      <point x="180" y="410"/>
      <point x="140" y="370"/>
      <point x="140" y="315" type="curve" smooth="yes"/>
    </contour>
  </outline>
</glyph>
<glyph name="afii10084" format="1">
  <advance width="370"/>
  <unicode hex="0442"/>
  <outline>
    <contour>
      <point x="370" y="400" type="line" name="hr00"/>
      <point x="230" y="400" type="line"/>
      <point x="230" y="0" type="line"/>
      <point x="140" y="0" type="line"/>
      <point x="140" y="400" type="line"/>
      <point x="0" y="400" type="line"/>
      <point x="0" y="490" type="line"/>
      <point x="370" y="490" type="line"/>
    </contour>
  </outline>
</glyph>
<glyph name="afii10085" format="1">
  <advance width="445"/>
  <unicode hex="0443"/>
  <outline>
    <contour>
      <point x="231" y="145" type="line" name="hr00"/>
      <point x="120" y="490" type="line"/>
      <point x="-10" y="490" type="line"/>
      <point x="-10" y="400" type="line"/>
      <point x="55" y="400" type="line"/>
      <point x="190" y="5" type="line"/>
      <point x="170" y="-60" type="line" smooth="yes"/>
      <point x="159" y="-95"/>
      <point x="135" y="-120"/>
      <point x="90" y="-120" type="curve" smooth="yes"/>
      <point x="60" y="-120" type="line"/>
      <point x="60" y="-210" type="line"/>
      <point x="90" y="-210" type="line" smooth="yes"/>
      <point x="180" y="-210"/>
      <point x="230" y="-160"/>
      <point x="260" y="-60" type="curve" smooth="yes"/>
      <point x="425" y="490" type="line"/>
      <point x="330" y="490" type="line"/>
    </contour>
  </outline>
</glyph>
